NotoSerifBengali-CondensedLight.ufo
<glyph name="exclam" format="2">
  <advance width="267.73636363636365"/>
  <unicode hex="0021"/>
  <outline>
    <contour>
      <point x="118.67272727272727" y="187.72727272727272" type="line"/>
      <point x="154.01818181818183" y="187.72727272727272" type="line"/>
      <point x="170.9909090909091" y="714.0" type="line"/>
      <point x="101.42727272727274" y="714.0" type="line"/>
    </contour>
    <contour>
      <point x="135.86363636363637" y="-6.090909090909091" type="curve" smooth="yes"/>
      <point x="158.04545454545453" y="-6.090909090909091"/>
      <point x="178.0181818181818" y="6.663636363636364"/>
      <point x="178.0181818181818" y="46.24545454545455" type="curve" smooth="yes"/>
      <point x="178.0181818181818" y="85.84545454545454"/>
      <point x="158.04545454545453" y="98.46363636363635"/>
      <point x="135.86363636363637" y="98.46363636363635" type="curve" smooth="yes"/>
      <point x="111.93636363636364" y="98.46363636363635"/>
      <point x="93.07272727272726" y="85.84545454545454"/>
      <point x="93.07272727272726" y="46.24545454545455" type="curve" smooth="yes"/>
      <point x="93.07272727272726" y="6.663636363636364"/>
      <point x="111.93636363636364" y="-6.090909090909091"/>
    </contour>
  </outline>
</glyph>
<glyph name="quotedbl" format="2">
  <advance width="308.9363636363637"/>
  <unicode hex="0022"/>
  <outline>
    <contour>
      <point x="212.7" y="494.5272727272727" type="line"/>
      <point x="243.7818181818182" y="494.5272727272727" type="line"/>
      <point x="263.8545454545455" y="714.0" type="line"/>
      <point x="192.1909090909091" y="714.0" type="line"/>
    </contour>
    <contour>
      <point x="65.26363636363638" y="494.5272727272727" type="line"/>
      <point x="96.50909090909092" y="494.5272727272727" type="line"/>
      <point x="116.58181818181819" y="714.0" type="line"/>
      <point x="45.08181818181818" y="714.0" type="line"/>
    </contour>
  </outline>
</glyph>
<glyph name="numbersign" format="2">
  <advance width="472.07272727272726"/>
  <unicode hex="0023"/>
  <outline>
    <contour>
      <point x="55.3" y="0.0" type="line"/>
      <point x="98.35454545454546" y="0.0" type="line"/>
      <point x="138.1" y="212.5090909090909" type="line"/>
      <point x="271.93636363636364" y="212.5090909090909" type="line"/>
      <point x="232.0272727272727" y="0.0" type="line"/>
      <point x="275.0818181818182" y="0.0" type="line"/>
      <point x="314.9909090909091" y="212.5090909090909" type="line"/>
      <point x="428.0818181818182" y="212.5090909090909" type="line"/>
      <point x="428.0818181818182" y="252.34545454545454" type="line"/>
      <point x="322.8818181818181" y="252.34545454545454" type="line"/>
      <point x="362.9909090909091" y="467.27272727272725" type="line"/>
      <point x="460.24545454545455" y="467.27272727272725" type="line"/>
      <point x="460.24545454545455" y="508.0363636363636" type="line"/>
      <point x="370.8818181818181" y="508.0363636363636" type="line"/>
      <point x="409.79090909090905" y="714.0" type="line"/>
      <point x="366.3545454545455" y="714.0" type="line"/>
      <point x="327.8272727272727" y="508.0363636363636" type="line"/>
      <point x="193.9909090909091" y="508.0363636363636" type="line"/>
      <point x="232.73636363636365" y="714.0" type="line"/>
      <point x="189.3" y="714.0" type="line"/>
      <point x="150.93636363636364" y="508.0363636363636" type="line"/>
      <point x="42.49090909090909" y="508.0363636363636" type="line"/>
      <point x="42.49090909090909" y="467.27272727272725" type="line"/>
      <point x="142.8272727272727" y="467.27272727272725" type="line"/>
      <point x="102.77272727272727" y="252.34545454545454" type="line"/>
      <point x="10.327272727272728" y="252.34545454545454" type="line"/>
      <point x="10.327272727272728" y="212.5090909090909" type="line"/>
      <point x="95.04545454545453" y="212.5090909090909" type="line"/>
    </contour>
    <contour>
      <point x="146.15454545454546" y="252.34545454545454" type="line"/>
      <point x="186.26363636363635" y="467.27272727272725" type="line"/>
      <point x="320.1" y="467.27272727272725" type="line"/>
      <point x="279.9909090909091" y="252.34545454545454" type="line"/>
    </contour>
  </outline>
</glyph>
<glyph name="percent" format="2">
  <advance width="752.2909090909092"/>
  <unicode hex="0025"/>
  <outline>
    <contour>
      <point x="196.28181818181818" y="0.0" type="line"/>
      <point x="241.3363636363636" y="0.0" type="line"/>
      <point x="552.2272727272727" y="714.0" type="line"/>
      <point x="507.55454545454546" y="714.0" type="line"/>
    </contour>
    <contour>
      <point x="174.4181818181818" y="280.0" type="curve" smooth="yes"/>
      <point x="265.7545454545455" y="280.0"/>
      <point x="308.0" y="366.0909090909091"/>
      <point x="308.0" y="503.0" type="curve"/>
      <point x="308.0" y="641.090909090909"/>
      <point x="264.95454545454544" y="724.0"/>
      <point x="175.4181818181818" y="724.0" type="curve" smooth="yes"/>
      <point x="81.76363636363638" y="724.0"/>
      <point x="41.85454545454545" y="640.1818181818181"/>
      <point x="41.85454545454545" y="503.0" type="curve" smooth="yes"/>
      <point x="41.85454545454545" y="363.6818181818182"/>
      <point x="81.78181818181818" y="280.0"/>
    </contour>
    <contour>
      <point x="174.14545454545453" y="311.49090909090904" type="curve" smooth="yes"/>
      <point x="115.35454545454546" y="311.49090909090904"/>
      <point x="94.5090909090909" y="380.47272727272724"/>
      <point x="94.5090909090909" y="503.0" type="curve"/>
      <point x="94.5090909090909" y="621.5"/>
      <point x="114.5090909090909" y="691.9636363636364"/>
      <point x="174.66363636363639" y="691.9636363636364" type="curve" smooth="yes"/>
      <point x="234.7090909090909" y="691.9636363636364"/>
      <point x="254.8" y="624.5545454545455"/>
      <point x="254.8" y="503.0" type="curve" smooth="yes"/>
      <point x="254.8" y="382.4090909090909"/>
      <point x="235.66363636363636" y="311.49090909090904"/>
    </contour>
    <contour>
      <point x="577.0090909090909" y="-10.0" type="curve" smooth="yes"/>
      <point x="668.3454545454546" y="-10.0"/>
      <point x="710.590909090909" y="76.0909090909091"/>
      <point x="710.590909090909" y="213.0" type="curve" smooth="yes"/>
      <point x="710.590909090909" y="351.0909090909091"/>
      <point x="667.5454545454545" y="434.0"/>
      <point x="578.0090909090909" y="434.0" type="curve" smooth="yes"/>
      <point x="484.57272727272726" y="434.0"/>
      <point x="444.4454545454545" y="350.1818181818182"/>
      <point x="444.4454545454545" y="213.0" type="curve" smooth="yes"/>
      <point x="444.4454545454545" y="73.68181818181819"/>
      <point x="484.7545454545454" y="-10.0"/>
    </contour>
    <contour>
      <point x="576.7363636363638" y="21.490909090909092" type="curve" smooth="yes"/>
      <point x="517.9454545454546" y="21.490909090909092"/>
      <point x="497.09999999999997" y="90.47272727272727"/>
      <point x="497.09999999999997" y="213.0" type="curve" smooth="yes"/>
      <point x="497.09999999999997" y="331.5"/>
      <point x="517.1" y="401.9636363636364"/>
      <point x="577.0363636363637" y="401.9636363636364" type="curve" smooth="yes"/>
      <point x="637.3" y="401.9636363636364"/>
      <point x="657.2272727272727" y="334.55454545454546"/>
      <point x="657.2272727272727" y="213.0" type="curve" smooth="yes"/>
      <point x="657.2272727272727" y="92.4090909090909"/>
      <point x="638.2545454545455" y="21.490909090909092"/>
    </contour>
  </outline>
</glyph>
<glyph name="quotesingle" format="2">
  <advance width="161.66363636363639"/>
  <unicode hex="0027"/>
  <outline>
    <contour>
      <point x="65.26363636363638" y="502.8" type="line"/>
      <point x="96.50909090909092" y="502.8" type="line"/>
      <point x="116.58181818181819" y="714.0" type="line"/>
      <point x="45.08181818181818" y="714.0" type="line"/>
    </contour>
  </outline>
</glyph>
<glyph name="parenleft" format="2">
  <advance width="281.3545454545454"/>
  <unicode hex="0028"/>
  <outline>
    <contour>
      <point x="239.51818181818183" y="-121.24545454545455" type="curve"/>
      <point x="239.51818181818183" y="-85.22727272727273" type="line"/>
      <point x="134.05454545454546" y="-19.89090909090909"/>
      <point x="106.45454545454545" y="138.0"/>
      <point x="106.45454545454545" y="316.09090909090907" type="curve" smooth="yes"/>
      <point x="106.45454545454545" y="494.18181818181813"/>
      <point x="133.64545454545453" y="652.4"/>
      <point x="239.51818181818183" y="716.5636363636364" type="curve"/>
      <point x="239.51818181818183" y="751.9545454545455" type="line"/>
      <point x="104.51818181818182" y="693.1363636363636"/>
      <point x="41.74545454545454" y="565.2727272727273"/>
      <point x="41.74545454545454" y="316.09090909090907" type="curve" smooth="yes"/>
      <point x="41.74545454545454" y="65.54545454545455"/>
      <point x="104.51818181818182" y="-61.39090909090909"/>
    </contour>
  </outline>
</glyph>
<glyph name="parenright" format="2">
  <advance width="294.1454545454546"/>
  <unicode hex="0029"/>
  <outline>
    <contour>
      <point x="54.6909090909091" y="-121.24545454545455" type="line"/>
      <point x="189.69090909090912" y="-61.39090909090909"/>
      <point x="252.4636363636364" y="65.54545454545455"/>
      <point x="252.4636363636364" y="316.09090909090907" type="curve" smooth="yes"/>
      <point x="252.4636363636364" y="565.2727272727273"/>
      <point x="189.69090909090912" y="693.1363636363636"/>
      <point x="54.6909090909091" y="751.9545454545455" type="curve"/>
      <point x="54.6909090909091" y="716.5636363636364" type="line"/>
      <point x="160.56363636363636" y="652.4"/>
      <point x="188.0" y="494.18181818181813"/>
      <point x="188.0" y="316.09090909090907" type="curve" smooth="yes"/>
      <point x="188.0" y="138.0"/>
      <point x="160.15454545454546" y="-19.89090909090909"/>
      <point x="54.6909090909091" y="-85.22727272727273" type="curve"/>
    </contour>
  </outline>
</glyph>
<glyph name="asterisk" format="2">
  <advance width="390.4818181818182"/>
  <unicode hex="002A"/>
  <outline>
    <contour>
      <point x="164.24545454545455" y="377.74545454545455" type="line"/>
      <point x="224.43636363636364" y="377.74545454545455" type="line"/>
      <point x="205.1909090909091" y="545.1454545454545" type="line"/>
      <point x="327.22727272727275" y="454.31818181818187" type="line"/>
      <point x="351.1090909090909" y="512.9" type="line"/>
      <point x="216.54545454545456" y="568.8727272727273" type="line"/>
      <point x="351.1090909090909" y="625.009090909091" type="line"/>
      <point x="327.22727272727275" y="683.8363636363637" type="line"/>
      <point x="205.1909090909091" y="592.9818181818182" type="line"/>
      <point x="224.0" y="760.0" type="line"/>
      <point x="164.24545454545455" y="760.0" type="line"/>
      <point x="182.0818181818182" y="593.0545454545454" type="line"/>
      <point x="60.72727272727273" y="686.0" type="line"/>
      <point x="36.09090909090909" y="626.009090909091" type="line"/>
      <point x="170.5181818181818" y="568.8727272727273" type="line"/>
      <point x="36.09090909090909" y="511.90000000000003" type="line"/>
      <point x="60.72727272727273" y="452.31818181818187" type="line"/>
      <point x="181.78181818181818" y="544.8272727272728" type="line"/>
    </contour>
  </outline>
</glyph>
<glyph name="plus" format="2">
  <advance width="465.2"/>
  <unicode hex="002B"/>
  <outline>
    <contour>
      <point x="209.53636363636363" y="143.0" type="line"/>
      <point x="254.75454545454545" y="143.0" type="line"/>
      <point x="254.75454545454545" y="335.8454545454546" type="line"/>
      <point x="413.3727272727273" y="335.8454545454546" type="line"/>
      <point x="413.3727272727273" y="379.5" type="line"/>
      <point x="254.75454545454545" y="379.5" type="line"/>
      <point x="254.75454545454545" y="572.0" type="line"/>
      <point x="209.53636363636363" y="572.0" type="line"/>
      <point x="209.53636363636363" y="379.5" type="line"/>
      <point x="51.66363636363636" y="379.5" type="line"/>
      <point x="51.66363636363636" y="335.8454545454546" type="line"/>
      <point x="209.53636363636363" y="335.8454545454546" type="line"/>
    </contour>
  </outline>
</glyph>
<glyph name="comma" format="2">
  <advance width="215.85454545454547"/>
  <unicode hex="002C"/>
  <outline>
    <contour>
      <point x="43.618181818181824" y="-154.0" type="line"/>
      <point x="130.43636363636364" y="-122.9909090909091"/>
      <point x="163.43636363636364" y="-54.809090909090905"/>
      <point x="163.43636363636364" y="16.145454545454548" type="curve" smooth="yes"/>
      <point x="163.43636363636364" y="72.36363636363636"/>
      <point x="137.77272727272728" y="98.14545454545454"/>
      <point x="106.82727272727274" y="98.14545454545454" type="curve" smooth="yes"/>
      <point x="82.62727272727274" y="98.14545454545454"/>
      <point x="65.12727272727273" y="81.8"/>
      <point x="65.12727272727273" y="56.081818181818186" type="curve" smooth="yes"/>
      <point x="65.12727272727273" y="12.863636363636363"/>
      <point x="116.62727272727273" y="11.027272727272727"/>
      <point x="116.62727272727273" y="-26.054545454545455" type="curve" smooth="yes"/>
      <point x="116.62727272727273" y="-61.0"/>
      <point x="94.43636363636364" y="-102.93636363636364"/>
      <point x="43.618181818181824" y="-121.67272727272729" type="curve"/>
    </contour>
  </outline>
</glyph>
<glyph name="hyphen" format="2">
  <advance width="262.0181818181818"/>
  <unicode hex="002D"/>
  <outline>
    <contour>
      <point x="21.336363636363636" y="246.61818181818182" type="line"/>
      <point x="240.5181818181818" y="246.61818181818182" type="line"/>
      <point x="240.5181818181818" y="298.8363636363636" type="line"/>
      <point x="21.336363636363636" y="298.8363636363636" type="line"/>
    </contour>
  </outline>
</glyph>
<glyph name="period" format="2">
  <advance width="210.50909090909096"/>
  <unicode hex="002E"/>
  <outline>
    <contour>
      <point x="114.03636363636365" y="-6.409090909090909" type="curve" smooth="yes"/>
      <point x="136.21818181818182" y="-6.409090909090909"/>
      <point x="155.70909090909092" y="6.345454545454546"/>
      <point x="155.70909090909092" y="45.92727272727273" type="curve" smooth="yes"/>
      <point x="155.70909090909092" y="85.52727272727272"/>
      <point x="136.21818181818182" y="98.14545454545454"/>
      <point x="114.03636363636365" y="98.14545454545454" type="curve" smooth="yes"/>
      <point x="90.10909090909091" y="98.14545454545454"/>
      <point x="70.86363636363636" y="85.52727272727272"/>
      <point x="70.86363636363636" y="45.92727272727273" type="curve" smooth="yes"/>
      <point x="70.86363636363636" y="6.345454545454546"/>
      <point x="90.10909090909091" y="-6.409090909090909"/>
    </contour>
  </outline>
</glyph>
<glyph name="zero" format="2">
  <advance width="471.6909090909091"/>
  <unicode hex="0030"/>
  <outline>
    <contour>
      <point x="235.83636363636361" y="-10.0" type="curve" smooth="yes"/>
      <point x="365.6363636363636" y="-10.0"/>
      <point x="429.3" y="118.82727272727274"/>
      <point x="429.3" y="358.0" type="curve" smooth="yes"/>
      <point x="429.3" y="595.5272727272727"/>
      <point x="368.55454545454546" y="724.0"/>
      <point x="236.83636363636361" y="724.0" type="curve" smooth="yes"/>
      <point x="96.33636363636364" y="724.0"/>
      <point x="41.69090909090909" y="589.5090909090909"/>
      <point x="41.69090909090909" y="359.0" type="curve" smooth="yes"/>
      <point x="41.69090909090909" y="119.07272727272726"/>
      <point x="99.98181818181817" y="-10.0"/>
    </contour>
    <contour>
      <point x="235.70000000000002" y="29.290909090909093" type="curve" smooth="yes"/>
      <point x="141.4818181818182" y="29.290909090909093"/>
      <point x="106.18181818181817" y="147.4909090909091"/>
      <point x="106.18181818181817" y="358.0" type="curve" smooth="yes"/>
      <point x="106.18181818181817" y="566.1909090909091"/>
      <point x="140.11818181818182" y="684.7090909090908"/>
      <point x="236.70000000000002" y="684.7090909090908" type="curve" smooth="yes"/>
      <point x="330.87272727272733" y="684.7090909090908"/>
      <point x="365.57272727272726" y="567.1454545454545"/>
      <point x="365.57272727272726" y="358.0" type="curve" smooth="yes"/>
      <point x="365.57272727272726" y="148.5818181818182"/>
      <point x="330.05454545454546" y="29.290909090909093"/>
    </contour>
  </outline>
</glyph>
<glyph name="one" format="2">
  <advance width="471.6909090909091"/>
  <unicode hex="0031"/>
  <outline>
    <contour>
      <point x="90.41818181818184" y="0.0" type="line"/>
      <point x="400.8" y="0.0" type="line"/>
      <point x="400.8" y="31.890909090909087" type="line"/>
      <point x="345.6181818181818" y="31.890909090909087" type="line" smooth="yes"/>
      <point x="300.8909090909091" y="31.890909090909087"/>
      <point x="281.1636363636364" y="41.590909090909086"/>
      <point x="281.1636363636364" y="109.93636363636362" type="curve" smooth="yes"/>
      <point x="281.1636363636364" y="718.0" type="line"/>
      <point x="241.23636363636365" y="718.0" type="line"/>
      <point x="190.55454545454546" y="668.5636363636364" type="line" smooth="yes"/>
      <point x="137.51818181818183" y="616.1272727272727"/>
      <point x="99.78181818181818" y="596.9454545454546"/>
      <point x="60.790909090909096" y="587.6272727272727" type="curve"/>
      <point x="60.790909090909096" y="565.8727272727273"/>
      <point x="75.94545454545455" y="551.8818181818183"/>
      <point x="96.94545454545455" y="551.8818181818183" type="curve" smooth="yes"/>
      <point x="135.73636363636362" y="551.8818181818183"/>
      <point x="172.44545454545457" y="591.9272727272728"/>
      <point x="219.45454545454547" y="653.5181818181819" type="curve"/>
      <point x="219.45454545454547" y="109.93636363636362" type="line" smooth="yes"/>
      <point x="219.45454545454547" y="40.44545454545454"/>
      <point x="199.72727272727272" y="31.890909090909087"/>
      <point x="155.0" y="31.890909090909087" type="curve" smooth="yes"/>
      <point x="90.41818181818184" y="31.890909090909087" type="line"/>
    </contour>
  </outline>
</glyph>
<glyph name="two" format="2">
  <advance width="471.6909090909091"/>
  <unicode hex="0032"/>
  <outline>
    <contour>
      <point x="46.518181818181816" y="0.0" type="line"/>
      <point x="408.70909090909095" y="0.0" type="line"/>
      <point x="411.99090909090904" y="152.21818181818182" type="line"/>
      <point x="381.1363636363636" y="152.21818181818182" type="line"/>
      <point x="378.3636363636364" y="126.51818181818182" type="line" smooth="yes"/>
      <point x="372.7272727272727" y="78.32727272727273"/>
      <point x="362.2" y="54.809090909090905"/>
      <point x="311.6272727272727" y="54.809090909090905" type="curve" smooth="yes"/>
      <point x="99.54545454545455" y="54.809090909090905" type="line"/>
      <point x="254.9909090909091" y="266.58181818181816" type="line" smooth="yes"/>
      <point x="337.8636363636363" y="374.42727272727274"/>
      <point x="389.75454545454545" y="451.3909090909091"/>
      <point x="389.75454545454545" y="553.9909090909091" type="curve" smooth="yes"/>
      <point x="389.75454545454545" y="651.9909090909091"/>
      <point x="330.2636363636364" y="724.0"/>
      <point x="221.6090909090909" y="724.0" type="curve" smooth="yes"/>
      <point x="112.01818181818182" y="724.0"/>
      <point x="60.00909090909091" y="658.8909090909091"/>
      <point x="60.00909090909091" y="597.3636363636364" type="curve" smooth="yes"/>
      <point x="60.00909090909091" y="557.7454545454547"/>
      <point x="84.44545454545455" y="544.3181818181819"/>
      <point x="113.17272727272729" y="544.3181818181819" type="curve"/>
      <point x="113.17272727272729" y="622.0363636363636"/>
      <point x="140.72727272727275" y="685.7454545454545"/>
      <point x="221.6090909090909" y="685.7454545454545" type="curve" smooth="yes"/>
      <point x="295.40909090909093" y="685.7454545454545"/>
      <point x="325.75454545454545" y="626.9727272727273"/>
      <point x="325.75454545454545" y="547.0545454545455" type="curve" smooth="yes"/>
      <point x="325.75454545454545" y="457.2727272727273"/>
      <point x="292.6" y="387.79090909090905"/>
      <point x="203.71818181818182" y="266.3909090909091" type="curve" smooth="yes"/>
      <point x="46.518181818181816" y="47.52727272727273" type="line"/>
    </contour>
  </outline>
</glyph>
<glyph name="three" format="2">
  <advance width="471.6909090909091"/>
  <unicode hex="0033"/>
  <outline>
    <contour>
      <point x="216.0727272727273" y="-9.545454545454545" type="curve" smooth="yes"/>
      <point x="316.6636363636364" y="-9.545454545454545"/>
      <point x="413.9545454545455" y="51.409090909090914"/>
      <point x="413.9545454545455" y="194.3090909090909" type="curve" smooth="yes"/>
      <point x="413.9545454545455" y="324.99090909090904"/>
      <point x="332.6909090909091" y="369.7727272727273"/>
      <point x="258.5" y="377.58181818181816" type="curve"/>
      <point x="334.9" y="396.1090909090909"/>
      <point x="392.7727272727273" y="466.39090909090913"/>
      <point x="392.7727272727273" y="560.2090909090908" type="curve" smooth="yes"/>
      <point x="392.7727272727273" y="663.3909090909091"/>
      <point x="327.3090909090909" y="724.0"/>
      <point x="228.74545454545452" y="724.0" type="curve" smooth="yes"/>
      <point x="124.01818181818183" y="724.0"/>
      <point x="67.4909090909091" y="664.6727272727272"/>
      <point x="67.4909090909091" y="593.2454545454545" type="curve" smooth="yes"/>
      <point x="67.4909090909091" y="555.6909090909091"/>
      <point x="90.76363636363637" y="542.5818181818181"/>
      <point x="118.21818181818182" y="542.5818181818181" type="curve"/>
      <point x="118.35454545454546" y="624.2181818181818"/>
      <point x="147.06363636363633" y="685.7454545454545"/>
      <point x="225.93636363636367" y="685.7454545454545" type="curve" smooth="yes"/>
      <point x="294.4272727272727" y="685.7454545454545"/>
      <point x="328.8272727272727" y="637.6545454545455"/>
      <point x="328.8272727272727" y="554.1363636363636" type="curve" smooth="yes"/>
      <point x="328.8272727272727" y="452.3909090909091"/>
      <point x="270.41818181818184" y="391.3636363636364"/>
      <point x="188.47272727272727" y="391.3636363636364" type="curve"/>
      <point x="159.11818181818185" y="391.3636363636364" type="line"/>
      <point x="159.11818181818185" y="353.70909090909095" type="line"/>
      <point x="188.36363636363637" y="353.70909090909095" type="line" smooth="yes"/>
      <point x="296.2454545454545" y="353.70909090909095"/>
      <point x="349.8454545454545" y="295.4"/>
      <point x="349.8454545454545" y="195.3090909090909" type="curve" smooth="yes"/>
      <point x="349.8454545454545" y="84.0909090909091"/>
      <point x="292.31818181818187" y="30.50909090909091"/>
      <point x="215.5818181818182" y="30.50909090909091" type="curve" smooth="yes"/>
      <point x="136.4909090909091" y="30.50909090909091"/>
      <point x="95.44545454545455" y="79.2"/>
      <point x="95.44545454545455" y="151.8181818181818" type="curve"/>
      <point x="68.44545454545455" y="151.8181818181818"/>
      <point x="50.11818181818182" y="132.22727272727272"/>
      <point x="50.11818181818182" y="100.56363636363636" type="curve" smooth="yes"/>
      <point x="50.11818181818182" y="42.43636363636363"/>
      <point x="102.2909090909091" y="-9.545454545454545"/>
    </contour>
  </outline>
</glyph>
<glyph name="four" format="2">
  <advance width="471.6909090909091"/>
  <unicode hex="0034"/>
  <outline>
    <contour>
      <point x="195.72727272727272" y="0.0" type="line"/>
      <point x="430.6090909090909" y="0.0" type="line"/>
      <point x="430.6090909090909" y="31.618181818181817" type="line"/>
      <point x="415.2090909090909" y="31.618181818181817" type="line" smooth="yes"/>
      <point x="369.71818181818185" y="31.618181818181817"/>
      <point x="349.22727272727275" y="40.89090909090908"/>
      <point x="349.22727272727275" y="108.66363636363636" type="curve" smooth="yes"/>
      <point x="349.22727272727275" y="201.83636363636364" type="line"/>
      <point x="459.0727272727273" y="201.83636363636364" type="line"/>
      <point x="459.0727272727273" y="243.36363636363637" type="line"/>
      <point x="349.22727272727275" y="243.36363636363637" type="line"/>
      <point x="349.22727272727275" y="714.0" type="line"/>
      <point x="288.1181818181818" y="714.0" type="line"/>
      <point x="16.018181818181816" y="231.48181818181817" type="line"/>
      <point x="16.018181818181816" y="201.83636363636364" type="line"/>
      <point x="289.17272727272723" y="201.83636363636364" type="line"/>
      <point x="289.17272727272723" y="108.66363636363636" type="line" smooth="yes"/>
      <point x="289.17272727272723" y="40.89090909090908"/>
      <point x="269.06363636363636" y="31.618181818181817"/>
      <point x="223.50909090909087" y="31.618181818181817" type="curve" smooth="yes"/>
      <point x="195.72727272727272" y="31.618181818181817" type="line"/>
    </contour>
    <contour>
      <point x="64.58181818181818" y="243.36363636363637" type="line"/>
      <point x="207.96363636363634" y="498.1545454545454" type="line" smooth="yes"/>
      <point x="231.97272727272727" y="540.6454545454545"/>
      <point x="282.1090909090909" y="634.4"/>
      <point x="293.1363636363636" y="660.8545454545455" type="curve"/>
      <point x="290.0181818181818" y="598.2181818181817"/>
      <point x="289.17272727272723" y="500.7090909090909"/>
      <point x="289.17272727272723" y="442.7090909090909" type="curve" smooth="yes"/>
      <point x="289.17272727272723" y="243.36363636363637" type="line"/>
    </contour>
  </outline>
</glyph>
<glyph name="five" format="2">
  <advance width="471.6909090909091"/>
  <unicode hex="0035"/>
  <outline>
    <contour>
      <point x="209.4818181818182" y="-10.0" type="curve" smooth="yes"/>
      <point x="328.6818181818182" y="-10.0"/>
      <point x="406.94545454545454" y="77.05454545454545"/>
      <point x="406.94545454545454" y="217.22727272727272" type="curve" smooth="yes"/>
      <point x="406.94545454545454" y="355.70909090909095"/>
      <point x="325.4636363636364" y="426.27272727272725"/>
      <point x="215.97272727272727" y="426.27272727272725" type="curve" smooth="yes"/>
      <point x="173.15454545454546" y="426.27272727272725"/>
      <point x="139.43636363636364" y="416.5"/>
      <point x="116.7090909090909" y="406.4636363636364" type="curve"/>
      <point x="136.0818181818182" y="658.7818181818182" type="line"/>
      <point x="297.58181818181816" y="658.7818181818182" type="line" smooth="yes"/>
      <point x="338.17272727272723" y="658.7818181818182"/>
      <point x="342.8" y="649.8909090909091"/>
      <point x="347.8" y="607.0272727272727" type="curve" smooth="yes"/>
      <point x="350.8181818181818" y="582.3272727272727" type="line"/>
      <point x="381.67272727272723" y="582.3272727272727" type="line"/>
      <point x="378.3454545454546" y="714.0" type="line"/>
      <point x="104.51818181818182" y="714.0" type="line"/>
      <point x="77.24545454545455" y="363.9" type="line"/>
      <point x="94.60909090909091" y="357.1181818181818" type="line"/>
      <point x="118.62727272727274" y="372.0"/>
      <point x="153.76363636363638" y="386.4363636363637"/>
      <point x="205.3272727272727" y="386.4363636363637" type="curve" smooth="yes"/>
      <point x="288.72727272727275" y="386.4363636363637"/>
      <point x="342.45454545454544" y="328.72727272727275"/>
      <point x="342.45454545454544" y="217.0909090909091" type="curve" smooth="yes"/>
      <point x="342.45454545454544" y="84.2090909090909"/>
      <point x="286.9818181818182" y="30.490909090909092"/>
      <point x="206.23636363636362" y="30.490909090909092" type="curve" smooth="yes"/>
      <point x="130.45454545454544" y="30.490909090909092"/>
      <point x="91.27272727272727" y="78.94545454545455"/>
      <point x="91.27272727272727" y="141.0" type="curve"/>
      <point x="65.74545454545455" y="141.0"/>
      <point x="50.27272727272727" y="123.4"/>
      <point x="50.27272727272727" y="91.46363636363635" type="curve" smooth="yes"/>
      <point x="50.27272727272727" y="50.45454545454545"/>
      <point x="91.89090909090909" y="-10.0"/>
    </contour>
  </outline>
</glyph>
<glyph name="six" format="2">
  <advance width="471.6909090909091"/>
  <unicode hex="0036"/>
  <outline>
    <contour>
      <point x="248.70909090909092" y="-10.0" type="curve" smooth="yes"/>
      <point x="352.91818181818184" y="-10.0"/>
      <point x="422.99090909090916" y="73.0"/>
      <point x="422.99090909090916" y="223.63636363636363" type="curve" smooth="yes"/>
      <point x="422.99090909090916" y="355.3909090909091"/>
      <point x="359.00909090909096" y="431.07272727272726"/>
      <point x="257.58181818181816" y="431.07272727272726" type="curve" smooth="yes"/>
      <point x="192.26363636363635" y="431.07272727272726"/>
      <point x="147.60909090909095" y="396.8818181818182"/>
      <point x="120.22727272727273" y="368.5363636363636" type="curve"/>
      <point x="122.2" y="588.3636363636364"/>
      <point x="173.73636363636362" y="686.8363636363637"/>
      <point x="267.2" y="686.8363636363637" type="curve" smooth="yes"/>
      <point x="330.5727272727273" y="686.8363636363637"/>
      <point x="356.62727272727267" y="644.1727272727272"/>
      <point x="356.62727272727267" y="573.1454545454545" type="curve"/>
      <point x="386.3181818181818" y="573.1454545454545"/>
      <point x="403.79090909090905" y="587.5"/>
      <point x="403.79090909090905" y="621.5909090909091" type="curve" smooth="yes"/>
      <point x="403.79090909090905" y="675.7272727272726"/>
      <point x="359.9818181818182" y="724.0"/>
      <point x="268.8" y="724.0" type="curve" smooth="yes"/>
      <point x="131.11818181818182" y="724.0"/>
      <point x="56.663636363636364" y="599.9909090909091"/>
      <point x="56.663636363636364" y="342.6818181818182" type="curve" smooth="yes"/>
      <point x="56.663636363636364" y="96.4090909090909"/>
      <point x="133.9818181818182" y="-10.0"/>
    </contour>
    <contour>
      <point x="250.6909090909091" y="29.454545454545453" type="curve" smooth="yes"/>
      <point x="168.30909090909094" y="29.454545454545453"/>
      <point x="121.95454545454547" y="123.28181818181818"/>
      <point x="119.6818181818182" y="323.2181818181818" type="curve"/>
      <point x="144.12727272727273" y="352.93636363636364"/>
      <point x="185.91818181818184" y="393.0363636363636"/>
      <point x="247.4363636363636" y="393.0363636363636" type="curve" smooth="yes"/>
      <point x="322.70909090909095" y="393.0363636363636"/>
      <point x="360.35454545454553" y="335.6545454545455"/>
      <point x="360.35454545454553" y="218.63636363636363" type="curve" smooth="yes"/>
      <point x="360.35454545454553" y="90.30909090909091"/>
      <point x="320.47272727272724" y="29.454545454545453"/>
    </contour>
  </outline>
</glyph>
<glyph name="seven" format="2">
  <advance width="471.6909090909091"/>
  <unicode hex="0037"/>
  <outline>
    <contour>
      <point x="153.4090909090909" y="0.0" type="line"/>
      <point x="202.9909090909091" y="0.0" type="line"/>
      <point x="424.9909090909091" y="688.9454545454545" type="line"/>
      <point x="424.9909090909091" y="714.0" type="line"/>
      <point x="53.127272727272725" y="714.0" type="line"/>
      <point x="48.309090909090905" y="550.9636363636364" type="line"/>
      <point x="80.30909090909091" y="550.9636363636364" type="line"/>
      <point x="83.9909090909091" y="604.7727272727273" type="line" smooth="yes"/>
      <point x="86.9909090909091" y="647.2727272727273"/>
      <point x="99.04545454545455" y="658.7818181818182"/>
      <point x="132.05454545454546" y="658.7818181818182" type="curve" smooth="yes"/>
      <point x="373.3909090909091" y="658.7818181818182" type="line"/>
    </contour>
  </outline>
</glyph>
<glyph name="eight" format="2">
  <advance width="471.6909090909091"/>
  <unicode hex="0038"/>
  <outline>
    <contour>
      <point x="234.27272727272728" y="-10.0" type="curve" smooth="yes"/>
      <point x="349.44545454545454" y="-10.0"/>
      <point x="426.4272727272727" y="57.70000000000001"/>
      <point x="426.4272727272727" y="176.3090909090909" type="curve" smooth="yes"/>
      <point x="426.4272727272727" y="279.04545454545456"/>
      <point x="374.1727272727273" y="329.8454545454546"/>
      <point x="285.2090909090909" y="377.3818181818182" type="curve"/>
      <point x="359.1272727272728" y="414.3545454545454"/>
      <point x="403.9818181818182" y="464.6272727272727"/>
      <point x="403.9818181818182" y="556.9272727272727" type="curve" smooth="yes"/>
      <point x="403.9818181818182" y="652.6454545454546"/>
      <point x="344.73636363636365" y="724.0"/>
      <point x="238.8909090909091" y="724.0" type="curve" smooth="yes"/>
      <point x="124.0" y="724.0"/>
      <point x="65.73636363636362" y="647.5272727272727"/>
      <point x="65.73636363636362" y="550.4181818181819" type="curve" smooth="yes"/>
      <point x="65.73636363636362" y="463.0545454545455"/>
      <point x="115.23636363636363" y="409.9636363636364"/>
      <point x="186.62727272727273" y="370.2727272727273" type="curve"/>
      <point x="103.28181818181817" y="331.8363636363636"/>
      <point x="46.34545454545454" y="273.8181818181818"/>
      <point x="46.34545454545454" y="172.8" type="curve" smooth="yes"/>
      <point x="46.34545454545454" y="66.01818181818183"/>
      <point x="111.17272727272727" y="-10.0"/>
    </contour>
    <contour>
      <point x="235.9909090909091" y="27.6" type="curve" smooth="yes"/>
      <point x="151.04545454545453" y="27.6"/>
      <point x="106.25454545454545" y="83.21818181818182"/>
      <point x="106.25454545454545" y="172.97272727272727" type="curve" smooth="yes"/>
      <point x="106.25454545454545" y="251.88181818181818"/>
      <point x="142.5636363636364" y="313.41818181818184"/>
      <point x="221.33636363636361" y="350.4363636363637" type="curve"/>
      <point x="329.42727272727274" y="295.2818181818182"/>
      <point x="366.3545454545455" y="245.0909090909091"/>
      <point x="366.3545454545455" y="167.87272727272725" type="curve" smooth="yes"/>
      <point x="366.3545454545455" y="78.23636363636362"/>
      <point x="313.4" y="27.6"/>
    </contour>
    <contour>
      <point x="249.7090909090909" y="395.7727272727273" type="curve"/>
      <point x="169.01818181818183" y="437.1363636363636"/>
      <point x="125.91818181818181" y="476.83636363636367"/>
      <point x="125.91818181818181" y="558.8727272727273" type="curve" smooth="yes"/>
      <point x="125.91818181818181" y="634.6454545454546"/>
      <point x="166.85454545454547" y="686.2363636363636"/>
      <point x="237.28181818181818" y="686.2363636363636" type="curve" smooth="yes"/>
      <point x="316.09090909090907" y="686.2363636363636"/>
      <point x="347.2909090909091" y="622.1454545454545"/>
      <point x="347.2909090909091" y="556.4909090909091" type="curve" smooth="yes"/>
      <point x="347.2909090909091" y="478.79090909090905"/>
      <point x="323.6909090909091" y="434.7727272727273"/>
    </contour>
  </outline>
</glyph>
<glyph name="nine" format="2">
  <advance width="471.6909090909091"/>
  <unicode hex="0039"/>
  <outline>
    <contour>
      <point x="193.46363636363637" y="-11.636363636363637" type="curve"/>
      <point x="348.3909090909091" y="-11.636363636363637"/>
      <point x="415.0909090909091" y="132.77272727272728"/>
      <point x="415.0909090909091" y="388.0" type="curve" smooth="yes"/>
      <point x="415.0909090909091" y="626.3272727272727"/>
      <point x="333.1818181818182" y="724.0"/>
      <point x="220.9909090909091" y="724.0" type="curve" smooth="yes"/>
      <point x="109.90000000000002" y="724.0"/>
      <point x="48.38181818181819" y="628.8545454545454"/>
      <point x="48.38181818181819" y="484.3818181818182" type="curve" smooth="yes"/>
      <point x="48.38181818181819" y="353.2090909090909"/>
      <point x="114.63636363636365" y="282.10909090909087"/>
      <point x="216.3181818181818" y="282.10909090909087" type="curve" smooth="yes"/>
      <point x="285.09090909090907" y="282.10909090909087"/>
      <point x="331.4090909090909" y="323.4818181818182"/>
      <point x="351.90909090909093" y="351.02727272727276" type="curve"/>
      <point x="346.9454545454546" y="132.52727272727276"/>
      <point x="300.3909090909091" y="29.345454545454547"/>
      <point x="197.70909090909092" y="29.345454545454547" type="curve" smooth="yes"/>
      <point x="140.0" y="29.345454545454547"/>
      <point x="110.63636363636364" y="63.57272727272728"/>
      <point x="95.39090909090909" y="102.69090909090909" type="curve"/>
      <point x="82.57272727272728" y="97.83636363636363"/>
      <point x="74.93636363636364" y="84.45454545454545"/>
      <point x="74.93636363636364" y="64.68181818181819" type="curve" smooth="yes"/>
      <point x="74.93636363636364" y="27.809090909090912"/>
      <point x="109.66363636363636" y="-11.636363636363637"/>
    </contour>
    <contour>
      <point x="227.77272727272728" y="321.8363636363636" type="curve" smooth="yes"/>
      <point x="150.22727272727272" y="322.9818181818182"/>
      <point x="111.56363636363636" y="377.92727272727274"/>
      <point x="111.56363636363636" y="488.8181818181818" type="curve" smooth="yes"/>
      <point x="111.56363636363636" y="610.2181818181818"/>
      <point x="146.3" y="684.5454545454545"/>
      <point x="222.5181818181818" y="684.5454545454545" type="curve" smooth="yes"/>
      <point x="303.3818181818182" y="684.5454545454545"/>
      <point x="351.19999999999993" y="595.6363636363636"/>
      <point x="352.8363636363636" y="399.6181818181818" type="curve"/>
      <point x="328.9636363636364" y="362.0909090909091"/>
      <point x="292.52727272727276" y="322.9818181818182"/>
    </contour>
  </outline>
</glyph>
<glyph name="colon" format="2">
  <advance width="210.44545454545457"/>
  <unicode hex="003A"/>
  <outline>
    <contour>
      <point x="113.65454545454546" y="418.7909090909091" type="curve" smooth="yes"/>
      <point x="135.83636363636361" y="418.7909090909091"/>
      <point x="155.64545454545456" y="430.8454545454546"/>
      <point x="155.64545454545456" y="470.58181818181816" type="curve" smooth="yes"/>
      <point x="155.64545454545456" y="510.3454545454545"/>
      <point x="135.83636363636361" y="522.1"/>
      <point x="113.65454545454546" y="522.1" type="curve" smooth="yes"/>
      <point x="89.72727272727273" y="522.1"/>
      <point x="70.86363636363636" y="510.3454545454545"/>
      <point x="70.86363636363636" y="470.58181818181816" type="curve" smooth="yes"/>
      <point x="70.86363636363636" y="430.8454545454546"/>
      <point x="89.72727272727273" y="418.7909090909091"/>
    </contour>
    <contour>
      <point x="113.65454545454546" y="-6.090909090909091" type="curve" smooth="yes"/>
      <point x="135.83636363636361" y="-6.090909090909091"/>
      <point x="155.64545454545456" y="6.345454545454546"/>
      <point x="155.64545454545456" y="46.24545454545455" type="curve" smooth="yes"/>
      <point x="155.64545454545456" y="85.84545454545454"/>
      <point x="135.83636363636361" y="98.14545454545454"/>
      <point x="113.65454545454546" y="98.14545454545454" type="curve" smooth="yes"/>
      <point x="89.72727272727273" y="98.14545454545454"/>
      <point x="70.86363636363636" y="85.84545454545454"/>
      <point x="70.86363636363636" y="46.24545454545455" type="curve" smooth="yes"/>
      <point x="70.86363636363636" y="6.345454545454546"/>
      <point x="89.72727272727273" y="-6.090909090909091"/>
    </contour>
  </outline>
</glyph>
<glyph name="semicolon" format="2">
  <advance width="226.9"/>
  <unicode hex="003B"/>
  <outline>
    <contour>
      <point x="43.618181818181824" y="-154.0" type="line"/>
      <point x="130.8181818181818" y="-122.9909090909091"/>
      <point x="163.8181818181818" y="-54.809090909090905"/>
      <point x="163.8181818181818" y="16.145454545454548" type="curve" smooth="yes"/>
      <point x="163.8181818181818" y="72.36363636363636"/>
      <point x="138.01818181818183" y="98.14545454545454"/>
      <point x="106.66363636363637" y="98.14545454545454" type="curve" smooth="yes"/>
      <point x="83.00909090909092" y="98.14545454545454"/>
      <point x="65.50909090909092" y="81.8"/>
      <point x="65.50909090909092" y="56.081818181818186" type="curve" smooth="yes"/>
      <point x="65.50909090909092" y="12.863636363636363"/>
      <point x="117.39090909090909" y="11.027272727272727"/>
      <point x="117.39090909090909" y="-26.054545454545455" type="curve"/>
      <point x="117.39090909090909" y="-61.38181818181818"/>
      <point x="95.03636363636365" y="-102.93636363636364"/>
      <point x="43.618181818181824" y="-121.67272727272729" type="curve"/>
    </contour>
    <contour>
      <point x="114.30909090909091" y="418.7909090909091" type="curve" smooth="yes"/>
      <point x="137.1909090909091" y="418.7909090909091"/>
      <point x="156.46363636363637" y="430.8454545454546"/>
      <point x="156.46363636363637" y="470.58181818181816" type="curve" smooth="yes"/>
      <point x="156.46363636363637" y="510.3454545454545"/>
      <point x="137.1909090909091" y="522.1"/>
      <point x="114.30909090909091" y="522.1" type="curve" smooth="yes"/>
      <point x="90.38181818181819" y="522.1"/>
      <point x="71.68181818181819" y="510.3454545454545"/>
      <point x="71.68181818181819" y="470.58181818181816" type="curve" smooth="yes"/>
      <point x="71.68181818181819" y="430.8454545454546"/>
      <point x="90.38181818181819" y="418.7909090909091"/>
    </contour>
  </outline>
</glyph>
<glyph name="equal" format="2">
  <advance width="464.24545454545455"/>
  <unicode hex="003D"/>
  <outline>
    <contour>
      <point x="52.1" y="434.0" type="line"/>
      <point x="411.8727272727273" y="434.0" type="line"/>
      <point x="411.8727272727273" y="478.03636363636366" type="line"/>
      <point x="52.1" y="478.03636363636366" type="line"/>
    </contour>
    <contour>
      <point x="52.1" y="236.11818181818182" type="line"/>
      <point x="411.8727272727273" y="236.11818181818182" type="line"/>
      <point x="411.8727272727273" y="280.3181818181818" type="line"/>
      <point x="52.1" y="280.3181818181818" type="line"/>
    </contour>
  </outline>
</glyph>
<glyph name="greater" format="2">
  <advance width="465.2"/>
  <unicode hex="003E"/>
  <outline>
    <contour>
      <point x="51.82727272727273" y="113.86363636363637" type="line"/>
      <point x="413.3727272727273" y="341.8181818181818" type="line"/>
      <point x="413.3727272727273" y="373.1818181818182" type="line"/>
      <point x="51.82727272727273" y="602.1363636363637" type="line"/>
      <point x="51.82727272727273" y="551.3272727272728" type="line"/>
      <point x="355.23636363636365" y="357.0" type="line"/>
      <point x="51.82727272727273" y="165.05454545454543" type="line"/>
    </contour>
  </outline>
</glyph>
<glyph name="question" format="2">
  <advance width="403.95454545454544"/>
  <unicode hex="003F"/>
  <outline>
    <contour>
      <point x="165.09090909090907" y="188.60000000000002" type="line"/>
      <point x="201.4909090909091" y="188.60000000000002" type="line"/>
      <point x="206.35454545454547" y="321.5272727272727" type="line"/>
      <point x="307.69090909090914" y="370.69090909090914"/>
      <point x="359.42727272727274" y="436.8272727272727"/>
      <point x="359.42727272727274" y="548.4818181818181" type="curve" smooth="yes"/>
      <point x="359.42727272727274" y="659.4181818181819"/>
      <point x="291.80909090909086" y="724.0"/>
      <point x="189.5818181818182" y="724.0" type="curve" smooth="yes"/>
      <point x="83.25454545454545" y="724.0"/>
      <point x="35.24545454545454" y="666.6909090909091"/>
      <point x="35.24545454545454" y="611.8636363636364" type="curve" smooth="yes"/>
      <point x="35.24545454545454" y="574.8636363636364"/>
      <point x="57.01818181818182" y="559.2909090909092"/>
      <point x="87.14545454545454" y="559.2909090909092" type="curve"/>
      <point x="87.14545454545454" y="630.2454545454545"/>
      <point x="113.0" y="686.290909090909"/>
      <point x="190.78181818181818" y="686.290909090909" type="curve" smooth="yes"/>
      <point x="260.1272727272728" y="686.290909090909"/>
      <point x="295.6454545454546" y="630.9272727272728"/>
      <point x="295.6454545454546" y="551.0090909090909" type="curve" smooth="yes"/>
      <point x="295.6454545454546" y="459.79090909090905"/>
      <point x="258.56363636363636" y="391.43636363636364"/>
      <point x="160.29090909090908" y="343.0545454545455" type="curve"/>
    </contour>
    <contour>
      <point x="183.03636363636363" y="-6.090909090909091" type="curve" smooth="yes"/>
      <point x="207.26363636363635" y="-6.090909090909091"/>
      <point x="227.4" y="6.50909090909091"/>
      <point x="227.4" y="46.57272727272728" type="curve" smooth="yes"/>
      <point x="227.4" y="86.66363636363637"/>
      <point x="207.26363636363635" y="98.96363636363637"/>
      <point x="183.03636363636363" y="98.96363636363637" type="curve" smooth="yes"/>
      <point x="159.8" y="98.96363636363637"/>
      <point x="140.77272727272728" y="86.66363636363637"/>
      <point x="140.77272727272728" y="46.57272727272728" type="curve" smooth="yes"/>
      <point x="140.77272727272728" y="6.50909090909091"/>
      <point x="159.8" y="-6.090909090909091"/>
    </contour>
  </outline>
</glyph>
<glyph name="bracketleft" format="2">
  <advance width="279.55454545454546"/>
  <unicode hex="005B"/>
  <outline>
    <contour>
      <point x="72.92727272727274" y="-128.0" type="line"/>
      <point x="242.4" y="-128.0" type="line"/>
      <point x="242.4" y="-96.7090909090909" type="line"/>
      <point x="197.72727272727272" y="-96.7090909090909" type="line" smooth="yes"/>
      <point x="154.27272727272725" y="-96.7090909090909"/>
      <point x="134.6909090909091" y="-86.8"/>
      <point x="134.6909090909091" y="-17.272727272727273" type="curve" smooth="yes"/>
      <point x="134.6909090909091" y="649.1090909090909" type="line" smooth="yes"/>
      <point x="134.6909090909091" y="718.8"/>
      <point x="154.27272727272725" y="728.709090909091"/>
      <point x="197.72727272727272" y="728.709090909091" type="curve" smooth="yes"/>
      <point x="242.4" y="728.709090909091" type="line"/>
      <point x="242.4" y="760.0" type="line"/>
      <point x="72.92727272727274" y="760.0" type="line"/>
    </contour>
  </outline>
</glyph>
<glyph name="backslash" format="2">
  <advance width="243.13636363636363"/>
  <unicode hex="005C"/>
  <outline>
    <contour>
      <point x="202.0818181818182" y="-121.0" type="line"/>
      <point x="243.13636363636363" y="-121.0" type="line"/>
      <point x="40.89090909090909" y="760.0" type="line"/>
      <point x="0.0" y="760.0" type="line"/>
    </contour>
  </outline>
</glyph>
<glyph name="bracketright" format="2">
  <advance width="298.3454545454546"/>
  <unicode hex="005D"/>
  <outline>
    <contour>
      <point x="55.69090909090909" y="-128.0" type="line"/>
      <point x="224.6181818181818" y="-128.0" type="line"/>
      <point x="224.6181818181818" y="760.0" type="line"/>
      <point x="55.69090909090909" y="760.0" type="line"/>
      <point x="55.69090909090909" y="728.709090909091" type="line"/>
      <point x="99.81818181818183" y="728.709090909091" type="line" smooth="yes"/>
      <point x="143.8181818181818" y="728.709090909091"/>
      <point x="163.01818181818183" y="718.8"/>
      <point x="163.01818181818183" y="649.1090909090909" type="curve" smooth="yes"/>
      <point x="163.01818181818183" y="-17.272727272727273" type="line" smooth="yes"/>
      <point x="163.01818181818183" y="-86.8"/>
      <point x="143.8181818181818" y="-96.7090909090909"/>
      <point x="99.81818181818183" y="-96.7090909090909" type="curve" smooth="yes"/>
      <point x="55.69090909090909" y="-96.7090909090909" type="line"/>
    </contour>
  </outline>
</glyph>
<glyph name="asciicircum" format="2">
  <advance width="464.5"/>
  <unicode hex="005E"/>
  <outline>
    <contour>
      <point x="40.300000000000004" y="268.95454545454544" type="line"/>
      <point x="86.18181818181819" y="268.95454545454544" type="line"/>
      <point x="231.1" y="645.2" type="line"/>
      <point x="377.6363636363636" y="268.95454545454544" type="line"/>
      <point x="423.7363636363637" y="268.95454545454544" type="line"/>
      <point x="245.06363636363636" y="714.0" type="line"/>
      <point x="217.54545454545456" y="714.0" type="line"/>
    </contour>
  </outline>
</glyph>
<glyph name="underscore" format="2">
  <advance width="386.32727272727277"/>
  <unicode hex="005F"/>
  <outline>
    <contour>
      <point x="-4.618181818181818" y="-126.05454545454545" type="line"/>
      <point x="390.94545454545454" y="-126.05454545454545" type="line"/>
      <point x="390.94545454545454" y="-83.0" type="line"/>
      <point x="-4.618181818181818" y="-83.0" type="line"/>
    </contour>
  </outline>
</glyph>
<glyph name="braceleft" format="2">
  <advance width="343.4"/>
  <unicode hex="007B"/>
  <outline>
    <contour>
      <point x="249.43636363636364" y="-129.8181818181818" type="curve" smooth="yes"/>
      <point x="292.5" y="-129.8181818181818" type="line"/>
      <point x="292.5" y="-95.7090909090909" type="line"/>
      <point x="268.8636363636364" y="-95.7090909090909" type="line" smooth="yes"/>
      <point x="217.96363636363634" y="-95.7090909090909"/>
      <point x="197.3" y="-58.43636363636363"/>
      <point x="197.3" y="15.318181818181817" type="curve" smooth="yes"/>
      <point x="197.3" y="185.9090909090909" type="line" smooth="yes"/>
      <point x="197.3" y="259.3181818181818"/>
      <point x="166.24545454545452" y="304.6363636363637"/>
      <point x="107.83636363636364" y="315.45454545454544" type="curve"/>
      <point x="107.83636363636364" y="316.90909090909093" type="line"/>
      <point x="165.78181818181818" y="327.2090909090909"/>
      <point x="197.3" y="373.1363636363636"/>
      <point x="197.3" y="445.72727272727275" type="curve" smooth="yes"/>
      <point x="197.3" y="613.890909090909" type="line" smooth="yes"/>
      <point x="197.3" y="689.3"/>
      <point x="217.96363636363634" y="725.8909090909091"/>
      <point x="269.70909090909095" y="725.8909090909091" type="curve" smooth="yes"/>
      <point x="292.5" y="725.8909090909091" type="line"/>
      <point x="292.5" y="760.0" type="line"/>
      <point x="248.79999999999998" y="760.0" type="line" smooth="yes"/>
      <point x="174.87272727272727" y="760.0"/>
      <point x="135.5" y="707.3181818181818"/>
      <point x="135.5" y="618.9818181818182" type="curve" smooth="yes"/>
      <point x="135.5" y="448.3636363636364" type="line" smooth="yes"/>
      <point x="135.5" y="358.7909090909091"/>
      <point x="92.03636363636363" y="335.1545454545455"/>
      <point x="34.54545454545455" y="331.56363636363636" type="curve"/>
      <point x="34.54545454545455" y="299.8181818181818" type="line"/>
      <point x="92.03636363636363" y="295.5454545454545"/>
      <point x="135.5" y="273.22727272727275"/>
      <point x="135.5" y="182.5909090909091" type="curve" smooth="yes"/>
      <point x="135.5" y="12.2" type="line" smooth="yes"/>
      <point x="135.5" y="-74.7909090909091"/>
      <point x="174.55454545454543" y="-129.8181818181818"/>
    </contour>
  </outline>
</glyph>
<glyph name="bar" format="2">
  <advance width="470.89090909090913"/>
  <unicode hex="007C"/>
  <outline>
    <contour>
      <point x="214.5" y="-240.0" type="line"/>
      <point x="256.19090909090914" y="-240.0" type="line"/>
      <point x="256.19090909090914" y="760.0" type="line"/>
      <point x="214.5" y="760.0" type="line"/>
    </contour>
  </outline>
</glyph>
<glyph name="braceright" format="2">
  <advance width="343.2818181818182"/>
  <unicode hex="007D"/>
  <outline>
    <contour>
      <point x="65.87272727272726" y="-129.8181818181818" type="line"/>
      <point x="109.48181818181818" y="-129.8181818181818" type="line" smooth="yes"/>
      <point x="184.22727272727272" y="-129.8181818181818"/>
      <point x="222.73636363636368" y="-74.7909090909091"/>
      <point x="222.73636363636368" y="12.2" type="curve" smooth="yes"/>
      <point x="222.73636363636368" y="182.5909090909091" type="line" smooth="yes"/>
      <point x="222.73636363636368" y="273.22727272727275"/>
      <point x="267.26363636363635" y="295.5454545454545"/>
      <point x="323.99090909090904" y="299.8181818181818" type="curve"/>
      <point x="323.99090909090904" y="331.56363636363636" type="line"/>
      <point x="267.26363636363635" y="335.1545454545455"/>
      <point x="222.73636363636368" y="358.7909090909091"/>
      <point x="222.73636363636368" y="448.3636363636364" type="curve" smooth="yes"/>
      <point x="222.73636363636368" y="618.9818181818182" type="line" smooth="yes"/>
      <point x="222.73636363636368" y="707.3181818181818"/>
      <point x="183.9090909090909" y="760.0"/>
      <point x="110.11818181818182" y="760.0" type="curve" smooth="yes"/>
      <point x="65.87272727272726" y="760.0" type="line"/>
      <point x="65.87272727272726" y="725.8909090909091" type="line"/>
      <point x="89.2090909090909" y="725.8909090909091" type="line" smooth="yes"/>
      <point x="141.33636363636367" y="725.8909090909091"/>
      <point x="161.23636363636368" y="689.3"/>
      <point x="161.23636363636368" y="613.890909090909" type="curve" smooth="yes"/>
      <point x="161.23636363636368" y="445.72727272727275" type="line" smooth="yes"/>
      <point x="161.23636363636368" y="373.1363636363636"/>
      <point x="193.13636363636365" y="327.2090909090909"/>
      <point x="251.32727272727277" y="316.90909090909093" type="curve"/>
      <point x="251.32727272727277" y="315.45454545454544" type="line"/>
      <point x="191.74545454545452" y="304.6363636363637"/>
      <point x="161.23636363636368" y="259.3181818181818"/>
      <point x="161.23636363636368" y="185.9090909090909" type="curve" smooth="yes"/>
      <point x="161.23636363636368" y="15.318181818181817" type="line" smooth="yes"/>
      <point x="161.23636363636368" y="-58.43636363636363"/>
      <point x="141.33636363636367" y="-95.7090909090909"/>
      <point x="90.05454545454546" y="-95.7090909090909" type="curve" smooth="yes"/>
      <point x="65.87272727272726" y="-95.7090909090909" type="line"/>
    </contour>
  </outline>
</glyph>
<glyph name="asciitilde" format="2">
  <advance width="465.2"/>
  <unicode hex="007E"/>
  <outline>
    <contour>
      <point x="44.13636363636364" y="273.1818181818182" type="curve"/>
      <point x="86.53636363636365" y="273.1818181818182" type="line"/>
      <point x="96.01818181818182" y="353.26363636363635"/>
      <point x="108.7181818181818" y="397.6272727272727"/>
      <point x="146.02727272727273" y="397.6272727272727" type="curve" smooth="yes"/>
      <point x="172.53636363636366" y="397.6272727272727"/>
      <point x="190.5818181818182" y="375.91818181818184"/>
      <point x="221.54545454545456" y="338.4" type="curve" smooth="yes"/>
      <point x="260.5454545454545" y="291.1818181818182"/>
      <point x="286.5090909090909" y="273.5"/>
      <point x="321.5818181818182" y="273.5" type="curve" smooth="yes"/>
      <point x="396.2727272727273" y="273.5"/>
      <point x="414.2636363636364" y="368.6272727272727"/>
      <point x="421.90909090909093" y="439.8818181818182" type="curve"/>
      <point x="378.82727272727277" y="439.8818181818182" type="line"/>
      <point x="369.5363636363636" y="363.50909090909096"/>
      <point x="357.8" y="316.07272727272726"/>
      <point x="320.6" y="316.07272727272726" type="curve" smooth="yes"/>
      <point x="296.43636363636364" y="316.07272727272726"/>
      <point x="278.1545454545454" y="335.59090909090907"/>
      <point x="247.0181818181818" y="372.8363636363636" type="curve" smooth="yes"/>
      <point x="210.22727272727275" y="415.0272727272727"/>
      <point x="184.4" y="440.2"/>
      <point x="144.8818181818182" y="440.2" type="curve" smooth="yes"/>
      <point x="68.25454545454545" y="440.2"/>
      <point x="52.32727272727272" y="347.7363636363637"/>
    </contour>
  </outline>
</glyph>
<glyph name="multiply" format="2">
  <advance width="465.03636363636366"/>
  <unicode hex="00D7"/>
  <outline>
    <contour>
      <point x="87.17272727272729" y="149.26363636363638" type="line"/>
      <point x="235.47272727272727" y="326.06363636363636" type="line"/>
      <point x="383.77272727272725" y="149.26363636363638" type="line"/>
      <point x="416.7818181818182" y="177.4909090909091" type="line"/>
      <point x="264.2181818181819" y="359.4545454545455" type="line"/>
      <point x="416.7818181818182" y="541.809090909091" type="line"/>
      <point x="384.2272727272727" y="569.8545454545455" type="line"/>
      <point x="235.47272727272727" y="393.3818181818182" type="line"/>
      <point x="87.23636363636363" y="569.9363636363636" type="line"/>
      <point x="54.300000000000004" y="542.0545454545455" type="line"/>
      <point x="207.24545454545455" y="359.6181818181818" type="line"/>
      <point x="54.43636363636364" y="177.4090909090909" type="line"/>
    </contour>
  </outline>
</glyph>
<glyph name="divide" format="2">
  <advance width="465.2"/>
  <unicode hex="00F7"/>
  <outline>
    <contour>
      <point x="51.82727272727273" y="335.8454545454546" type="line"/>
      <point x="413.3727272727273" y="335.8454545454546" type="line"/>
      <point x="413.3727272727273" y="379.5" type="line"/>
      <point x="51.82727272727273" y="379.5" type="line"/>
    </contour>
    <contour>
      <point x="233.1" y="124.14545454545453" type="curve" smooth="yes"/>
      <point x="255.25454545454545" y="124.14545454545453"/>
      <point x="272.51818181818186" y="135.82727272727274"/>
      <point x="272.51818181818186" y="170.78181818181818" type="curve" smooth="yes"/>
      <point x="272.51818181818186" y="207.1909090909091"/>
      <point x="255.25454545454545" y="218.1909090909091"/>
      <point x="233.1" y="218.1909090909091" type="curve" smooth="yes"/>
      <point x="209.94545454545454" y="218.1909090909091"/>
      <point x="193.61818181818182" y="207.1909090909091"/>
      <point x="193.61818181818182" y="170.78181818181818" type="curve" smooth="yes"/>
      <point x="193.61818181818182" y="135.82727272727274"/>
      <point x="209.94545454545454" y="124.14545454545453"/>
    </contour>
    <contour>
      <point x="233.1" y="498.2454545454545" type="curve" smooth="yes"/>
      <point x="255.25454545454545" y="498.2454545454545"/>
      <point x="272.51818181818186" y="509.76363636363635"/>
      <point x="272.51818181818186" y="544.8545454545455" type="curve" smooth="yes"/>
      <point x="272.51818181818186" y="581.1272727272727"/>
      <point x="255.25454545454545" y="592.1272727272727"/>
      <point x="233.1" y="592.1272727272727" type="curve" smooth="yes"/>
      <point x="209.94545454545454" y="592.1272727272727"/>
      <point x="193.61818181818182" y="581.1272727272727"/>
      <point x="193.61818181818182" y="544.8545454545455" type="curve" smooth="yes"/>
      <point x="193.61818181818182" y="509.76363636363635"/>
      <point x="209.94545454545454" y="498.2454545454545"/>
    </contour>
  </outline>
</glyph>
<glyph name="udatta-deva" format="2">
  <unicode hex="0951"/>
  <anchor x="-299.0" y="-243.5" name="_vedic"/>
  <outline>
    <contour>
      <point x="-318.8909090909091" y="706.0" type="line"/>
      <point x="-278.56363636363636" y="706.0" type="line"/>
      <point x="-278.56363636363636" y="911.4545454545455" type="line"/>
      <point x="-318.8909090909091" y="911.4545454545455" type="line"/>
    </contour>
  </outline>
</glyph>
<glyph name="anudatta-deva" format="2">
  <unicode hex="0952"/>
  <anchor x="-299.0" y="360.1818181818182" name="_vedic"/>
  <outline>
    <contour>
      <point x="-472.1" y="-136.27272727272728" type="line"/>
      <point x="-125.21818181818183" y="-136.27272727272728" type="line"/>
      <point x="-125.21818181818183" y="-98.81818181818181" type="line"/>
      <point x="-472.1" y="-98.81818181818181" type="line"/>
    </contour>
  </outline>
</glyph>
<glyph name="danda-deva" format="2">
  <advance width="375.5"/>
  <unicode hex="0964"/>
  <outline>
    <contour>
      <point x="296.0" y="-17.09090909090909" type="line"/>
      <point x="299.0" y="-16.09090909090909" type="line"/>
      <point x="299.0" y="589.5454545454545" type="line"/>
      <point x="262.09090909090907" y="617.4545454545455" type="line"/>
      <point x="259.09090909090907" y="617.4545454545455" type="line"/>
      <point x="259.09090909090907" y="4.090909090909091" type="line"/>
    </contour>
  </outline>
</glyph>
<glyph name="dbldanda-deva" format="2">
  <advance width="506.24545454545455"/>
  <unicode hex="0965"/>
  <outline>
    <contour>
      <point x="426.7454545454546" y="-17.09090909090909" type="line"/>
      <point x="429.7454545454546" y="-16.09090909090909" type="line"/>
      <point x="429.7454545454546" y="589.5454545454545" type="line"/>
      <point x="392.83636363636367" y="617.4545454545455" type="line"/>
      <point x="389.83636363636367" y="617.4545454545455" type="line"/>
      <point x="389.83636363636367" y="4.090909090909091" type="line"/>
    </contour>
    <contour>
      <point x="296.0" y="-17.09090909090909" type="line"/>
      <point x="299.0" y="-16.09090909090909" type="line"/>
      <point x="299.0" y="589.5454545454545" type="line"/>
      <point x="262.09090909090907" y="617.4545454545455" type="line"/>
      <point x="259.09090909090907" y="617.4545454545455" type="line"/>
      <point x="259.09090909090907" y="4.090909090909091" type="line"/>
    </contour>
  </outline>
</glyph>
<glyph name="anji-beng" format="2">
  <advance width="431.2181818181818"/>
  <unicode hex="0980"/>
  <anchor x="233.03636363636366" y="584.5454545454545" name="top"/>
  <outline>
    <contour>
      <point x="351.95454545454544" y="10.0" type="curve" smooth="yes"/>
      <point x="382.0" y="10.0"/>
      <point x="399.4818181818182" y="31.381818181818183"/>
      <point x="399.4818181818182" y="61.018181818181816" type="curve" smooth="yes"/>
      <point x="399.4818181818182" y="91.64545454545454"/>
      <point x="380.29090909090905" y="112.67272727272727"/>
      <point x="353.19090909090914" y="112.67272727272727" type="curve" smooth="yes"/>
      <point x="327.20909090909095" y="112.67272727272727"/>
      <point x="317.1818181818182" y="96.30909090909091"/>
      <point x="314.8545454545454" y="74.21818181818182" type="curve"/>
      <point x="331.3727272727273" y="73.30909090909091" type="line"/>
      <point x="331.3727272727273" y="494.10909090909087" type="line" smooth="yes"/>
      <point x="331.3727272727273" y="566.4545454545454"/>
      <point x="295.02727272727276" y="623.8181818181819"/>
      <point x="218.59090909090912" y="623.8181818181819" type="curve" smooth="yes"/>
      <point x="126.53636363636363" y="623.8181818181819"/>
      <point x="53.06363636363637" y="541.2272727272726"/>
      <point x="53.06363636363637" y="430.7818181818182" type="curve" smooth="yes"/>
      <point x="53.06363636363637" y="327.3454545454546"/>
      <point x="111.49999999999999" y="268.2727272727273"/>
      <point x="177.88181818181818" y="268.2727272727273" type="curve" smooth="yes"/>
      <point x="222.07272727272726" y="268.2727272727273"/>
      <point x="245.6727272727273" y="294.82727272727277"/>
      <point x="245.6727272727273" y="335.45454545454544" type="curve" smooth="yes"/>
      <point x="245.6727272727273" y="374.93636363636364"/>
      <point x="222.76363636363635" y="397.9818181818182"/>
      <point x="191.03636363636363" y="397.9818181818182" type="curve" smooth="yes"/>
      <point x="160.5727272727273" y="397.9818181818182"/>
      <point x="138.9" y="375.09090909090907"/>
      <point x="138.9" y="340.3454545454546" type="curve" smooth="yes"/>
      <point x="138.9" y="325.25454545454545"/>
      <point x="143.8272727272727" y="310.8909090909091"/>
      <point x="149.03636363636363" y="303.92727272727274" type="curve"/>
      <point x="175.87272727272725" y="320.7090909090909" type="line"/>
      <point x="168.3181818181818" y="317.1636363636364"/>
      <point x="161.0818181818182" y="316.1636363636364"/>
      <point x="153.9818181818182" y="316.1636363636364" type="curve" smooth="yes"/>
      <point x="121.57272727272728" y="316.1636363636364"/>
      <point x="95.07272727272726" y="354.9454545454545"/>
      <point x="95.07272727272726" y="413.4909090909091" type="curve" smooth="yes"/>
      <point x="95.07272727272726" y="507.3727272727272"/>
      <point x="168.70909090909095" y="579.3090909090909"/>
      <point x="232.8272727272727" y="579.3090909090909" type="curve" smooth="yes"/>
      <point x="273.8" y="579.3090909090909"/>
      <point x="292.92727272727274" y="550.8"/>
      <point x="292.92727272727274" y="498.2545454545455" type="curve" smooth="yes"/>
      <point x="292.92727272727274" y="85.04545454545455" type="line" smooth="yes"/>
      <point x="292.92727272727274" y="40.009090909090915"/>
      <point x="316.41818181818184" y="10.0"/>
    </contour>
  </outline>
</glyph>
<glyph name="candrabindu-beng" format="2">
  <unicode hex="0981"/>
  <anchor x="0.0" y="622.0" name="_top"/>
  <outline>
    <contour>
      <point x="-14.772727272727275" y="730.0" type="curve" smooth="yes"/>
      <point x="57.83636363636364" y="730.0"/>
      <point x="89.23636363636363" y="788.4545454545455"/>
      <point x="100.3" y="874.690909090909" type="curve"/>
      <point x="75.17272727272727" y="883.4454545454545" type="line"/>
      <point x="63.46363636363636" y="820.3181818181818"/>
      <point x="40.18181818181819" y="778.7272727272727"/>
      <point x="-15.572727272727274" y="778.7272727272727" type="curve" smooth="yes"/>
      <point x="-68.83636363636364" y="778.7272727272727"/>
      <point x="-95.14545454545454" y="821.2727272727273"/>
      <point x="-111.94545454545457" y="883.4454545454545" type="curve"/>
      <point x="-136.9090909090909" y="874.690909090909" type="line"/>
      <point x="-121.80909090909091" y="788.4545454545455"/>
      <point x="-85.28181818181818" y="730.0"/>
    </contour>
    <contour>
      <point x="-16.072727272727274" y="838.2727272727273" type="curve" smooth="yes"/>
      <point x="6.045454545454547" y="838.2727272727273"/>
      <point x="21.827272727272728" y="854.5545454545455"/>
      <point x="21.827272727272728" y="881.1363636363637" type="curve" smooth="yes"/>
      <point x="21.827272727272728" y="907.4727272727273"/>
      <point x="6.181818181818182" y="924.3636363636364"/>
      <point x="-16.072727272727274" y="924.3636363636364" type="curve" smooth="yes"/>
      <point x="-39.627272727272725" y="924.3636363636364"/>
      <point x="-55.63636363636364" y="907.6090909090909"/>
      <point x="-55.63636363636364" y="881.1363636363637" type="curve" smooth="yes"/>
      <point x="-55.63636363636364" y="854.5545454545455"/>
      <point x="-39.32727272727273" y="838.2727272727273"/>
    </contour>
  </outline>
</glyph>
<glyph name="anusvara-beng" format="2">
  <advance width="316.3818181818182"/>
  <unicode hex="0982"/>
  <anchor x="-163.87272727272727" y="0.0" name="vedic"/>
  <outline>
    <contour>
      <point x="153.8090909090909" y="371.8181818181818" type="curve" smooth="yes"/>
      <point x="216.11818181818182" y="371.8181818181818"/>
      <point x="260.74545454545455" y="425.74545454545455"/>
      <point x="260.74545454545455" y="503.7272727272727" type="curve" smooth="yes"/>
      <point x="260.74545454545455" y="572.3181818181819"/>
      <point x="225.49999999999997" y="625.2727272727273"/>
      <point x="161.5909090909091" y="625.2727272727273" type="curve" smooth="yes"/>
      <point x="99.39090909090909" y="625.2727272727273"/>
      <point x="55.62727272727273" y="570.7272727272727"/>
      <point x="55.62727272727273" y="495.6363636363636" type="curve" smooth="yes"/>
      <point x="55.62727272727273" y="426.80909090909086"/>
      <point x="91.6909090909091" y="371.8181818181818"/>
    </contour>
    <contour>
      <point x="142.27272727272728" y="409.45454545454544" type="curve" smooth="yes"/>
      <point x="114.39090909090908" y="409.45454545454544"/>
      <point x="94.36363636363636" y="435.0"/>
      <point x="94.36363636363636" y="474.5272727272727" type="curve" smooth="yes"/>
      <point x="94.36363636363636" y="529.3909090909091"/>
      <point x="130.44545454545457" y="584.9090909090909"/>
      <point x="176.5" y="584.9090909090909" type="curve" smooth="yes"/>
      <point x="204.89999999999998" y="584.9090909090909"/>
      <point x="223.35454545454547" y="559.5727272727272"/>
      <point x="223.35454545454547" y="524.5" type="curve" smooth="yes"/>
      <point x="223.35454545454547" y="469.3363636363636"/>
      <point x="186.9909090909091" y="409.45454545454544"/>
    </contour>
    <contour>
      <point x="267.0" y="-31.636363636363637" type="curve"/>
      <point x="289.4" y="-18.90909090909091" type="line"/>
      <point x="243.61818181818182" y="104.07272727272728"/>
      <point x="171.15454545454546" y="222.17272727272726"/>
      <point x="92.9909090909091" y="299.76363636363635" type="curve"/>
      <point x="56.77272727272727" y="242.0909090909091" type="line"/>
      <point x="136.47272727272724" y="179.0"/>
      <point x="204.31818181818178" y="88.9909090909091"/>
    </contour>
  </outline>
</glyph>
<glyph name="visarga-beng" format="2">
  <advance width="316.6454545454546"/>
  <unicode hex="0983"/>
  <anchor x="-163.87272727272727" y="0.0" name="vedic"/>
  <outline>
    <contour>
      <point x="153.8090909090909" y="371.4090909090909" type="curve" smooth="yes"/>
      <point x="216.25454545454545" y="371.4090909090909"/>
      <point x="261.0181818181818" y="425.3363636363636"/>
      <point x="261.0181818181818" y="503.3181818181818" type="curve" smooth="yes"/>
      <point x="261.0181818181818" y="571.7727272727273"/>
      <point x="225.49999999999997" y="624.7272727272727"/>
      <point x="161.72727272727272" y="624.7272727272727" type="curve" smooth="yes"/>
      <point x="99.39090909090909" y="624.7272727272727"/>
      <point x="55.62727272727273" y="570.1818181818181"/>
      <point x="55.62727272727273" y="495.2272727272727" type="curve" smooth="yes"/>
      <point x="55.62727272727273" y="426.4"/>
      <point x="91.96363636363637" y="371.4090909090909"/>
    </contour>
    <contour>
      <point x="142.27272727272728" y="409.0454545454545" type="curve" smooth="yes"/>
      <point x="114.39090909090908" y="409.0454545454545"/>
      <point x="94.5" y="434.59090909090907"/>
      <point x="94.5" y="474.1181818181818" type="curve" smooth="yes"/>
      <point x="94.5" y="528.9818181818182"/>
      <point x="130.44545454545457" y="584.5"/>
      <point x="176.63636363636363" y="584.5" type="curve" smooth="yes"/>
      <point x="205.03636363636366" y="584.5"/>
      <point x="223.49090909090907" y="559.0272727272727"/>
      <point x="223.49090909090907" y="523.9545454545455" type="curve" smooth="yes"/>
      <point x="223.49090909090907" y="468.9272727272727"/>
      <point x="187.12727272727273" y="409.0454545454545"/>
    </contour>
    <contour>
      <point x="153.8090909090909" y="6.754545454545455" type="curve" smooth="yes"/>
      <point x="216.25454545454545" y="6.754545454545455"/>
      <point x="261.0181818181818" y="60.68181818181819"/>
      <point x="261.0181818181818" y="138.5" type="curve" smooth="yes"/>
      <point x="261.0181818181818" y="207.11818181818182"/>
      <point x="225.49999999999997" y="259.9090909090909"/>
      <point x="161.72727272727272" y="259.9090909090909" type="curve" smooth="yes"/>
      <point x="99.39090909090909" y="259.9090909090909"/>
      <point x="55.62727272727273" y="205.52727272727276"/>
      <point x="55.62727272727273" y="130.4090909090909" type="curve" smooth="yes"/>
      <point x="55.62727272727273" y="61.74545454545455"/>
      <point x="91.96363636363637" y="6.754545454545455"/>
    </contour>
    <contour>
      <point x="142.27272727272728" y="44.22727272727273" type="curve" smooth="yes"/>
      <point x="114.39090909090908" y="44.22727272727273"/>
      <point x="94.5" y="69.77272727272727"/>
      <point x="94.5" y="109.3" type="curve" smooth="yes"/>
      <point x="94.5" y="164.3272727272727"/>
      <point x="130.44545454545457" y="219.6818181818182"/>
      <point x="176.63636363636363" y="219.6818181818182" type="curve" smooth="yes"/>
      <point x="205.03636363636366" y="219.6818181818182"/>
      <point x="223.49090909090907" y="194.20909090909092"/>
      <point x="223.49090909090907" y="159.3" type="curve" smooth="yes"/>
      <point x="223.49090909090907" y="104.27272727272728"/>
      <point x="187.12727272727273" y="44.22727272727273"/>
    </contour>
  </outline>
</glyph>
<glyph name="a-beng" format="2">
  <advance width="620.7727272727274"/>
  <unicode hex="0985"/>
  <anchor x="544.9090909090909" y="-5.909090909090909" name="bottom"/>
  <anchor x="545.9545454545455" y="60.90909090909091" name="bottom.rakaar"/>
  <anchor x="545.9545454545455" y="9.272727272727273" name="bottom.rvocalic"/>
  <anchor x="533.4272727272727" y="3.272727272727273" name="bottom.virama"/>
  <anchor x="545.9545454545455" y="584.5454545454545" name="top"/>
  <anchor x="545.9545454545455" y="584.5454545454545" name="topright"/>
  <anchor x="310.0363636363637" y="0.0" name="vedic"/>
  <outline>
    <contour>
      <point x="540.7181818181817" y="-8.454545454545455" type="line"/>
      <point x="545.1909090909091" y="-7.454545454545455" type="line"/>
      <point x="545.1909090909091" y="584.5454545454545" type="line"/>
      <point x="642.4272727272728" y="584.5454545454545" type="line"/>
      <point x="620.4454545454545" y="622.0" type="line"/>
      <point x="-21.654545454545453" y="622.0" type="line"/>
      <point x="-0.21818181818181803" y="584.5454545454545" type="line"/>
      <point x="506.7454545454546" y="584.5454545454545" type="line"/>
      <point x="506.7454545454546" y="64.12727272727273" type="line"/>
      <point x="517.1272727272726" y="62.67272727272727" type="line"/>
      <point x="493.3909090909091" y="137.0181818181818"/>
      <point x="451.0545454545455" y="195.1818181818182"/>
      <point x="400.7" y="239.42727272727274" type="curve"/>
      <point x="383.7636363636364" y="196.36363636363637" type="line"/>
      <point x="439.08181818181816" y="152.55454545454543"/>
      <point x="481.7545454545455" y="92.9909090909091"/>
      <point x="512.4" y="15.100000000000001" type="curve"/>
    </contour>
    <contour>
      <point x="278.3727272727273" y="113.0909090909091" type="curve" smooth="yes"/>
      <point x="375.4454545454546" y="113.0909090909091"/>
      <point x="429.45454545454544" y="191.2"/>
      <point x="430.63636363636357" y="305.9545454545455" type="curve" smooth="yes"/>
      <point x="432.1363636363636" y="426.4818181818182"/>
      <point x="371.0636363636363" y="511.7272727272727"/>
      <point x="271.8363636363636" y="511.04545454545456" type="curve" smooth="yes"/>
      <point x="213.34545454545454" y="510.6363636363636"/>
      <point x="175.52727272727273" y="480.0272727272727"/>
      <point x="175.52727272727273" y="425.5" type="curve" smooth="yes"/>
      <point x="175.52727272727273" y="377.95454545454544"/>
      <point x="204.8909090909091" y="348.7272727272727"/>
      <point x="244.85454545454544" y="348.7272727272727" type="curve" smooth="yes"/>
      <point x="288.3636363636364" y="348.7272727272727"/>
      <point x="310.54545454545456" y="385.29090909090905"/>
      <point x="310.54545454545456" y="432.59090909090907" type="curve" smooth="yes"/>
      <point x="310.54545454545456" y="504.6818181818182"/>
      <point x="271.7" y="560.5909090909091"/>
      <point x="240.89090909090908" y="589.7272727272727" type="curve"/>
      <point x="166.74545454545455" y="588.6363636363636" type="line"/>
      <point x="240.3272727272727" y="556.7727272727274"/>
      <point x="268.48181818181814" y="510.22727272727275"/>
      <point x="275.8181818181818" y="446.04545454545456" type="curve"/>
      <point x="286.40000000000003" y="451.8636363636364"/>
      <point x="295.1454545454546" y="453.95454545454544"/>
      <point x="306.8181818181818" y="453.95454545454544" type="curve" smooth="yes"/>
      <point x="347.5181818181818" y="453.95454545454544"/>
      <point x="394.53636363636366" y="413.59090909090907"/>
      <point x="395.3545454545454" y="318.1818181818182" type="curve" smooth="yes"/>
      <point x="396.17272727272723" y="224.1818181818182"/>
      <point x="350.6454545454546" y="175.0909090909091"/>
      <point x="275.4636363636364" y="175.0909090909091" type="curve" smooth="yes"/>
      <point x="176.86363636363637" y="175.0909090909091"/>
      <point x="99.77272727272727" y="259.2090909090909"/>
      <point x="52.6" y="504.37272727272733" type="curve"/>
      <point x="22.581818181818182" y="497.23636363636365" type="line"/>
      <point x="72.8" y="209.38181818181815"/>
      <point x="166.83636363636361" y="113.0909090909091"/>
    </contour>
  </outline>
</glyph>
<glyph name="i-beng" format="2">
  <advance width="383.97272727272724"/>
  <unicode hex="0987"/>
  <anchor x="245.38181818181815" y="82.34545454545454" name="bottom"/>
  <anchor x="349.5272727272727" y="-78.4" name="bottom.rakaar"/>
  <anchor x="289.45454545454544" y="94.54545454545455" name="bottom.rvocalic"/>
  <anchor x="221.90909090909093" y="90.0" name="bottom.virama"/>
  <anchor x="250.45454545454544" y="621.0909090909091" name="top"/>
  <anchor x="197.3818181818182" y="628.7454545454545" name="topright"/>
  <anchor x="191.72727272727275" y="0.0" name="vedic"/>
  <outline>
    <contour>
      <point x="293.56363636363636" y="614.7272727272727" type="curve"/>
      <point x="324.50909090909096" y="614.7272727272727" type="line"/>
      <point x="319.6545454545454" y="731.8909090909091"/>
      <point x="285.3454545454546" y="786.0272727272727"/>
      <point x="211.75454545454545" y="786.0272727272727" type="curve" smooth="yes"/>
      <point x="171.61818181818182" y="786.0272727272727"/>
      <point x="142.11818181818182" y="775.2"/>
      <point x="96.66363636363637" y="775.2" type="curve" smooth="yes"/>
      <point x="43.345454545454544" y="775.2"/>
      <point x="15.763636363636362" y="796.0272727272727"/>
      <point x="15.763636363636362" y="868.7454545454547" type="curve" smooth="yes"/>
      <point x="15.763636363636362" y="880.7272727272726"/>
      <point x="16.763636363636362" y="895.6636363636363"/>
      <point x="18.281818181818185" y="905.8" type="curve"/>
      <point x="-10.51818181818182" y="908.8909090909091" type="line"/>
      <point x="-12.581818181818182" y="892.8090909090909"/>
      <point x="-13.718181818181819" y="873.3"/>
      <point x="-13.718181818181819" y="858.1272727272727" type="curve" smooth="yes"/>
      <point x="-13.718181818181819" y="764.8090909090909"/>
      <point x="23.990909090909092" y="721.5272727272727"/>
      <point x="96.66363636363636" y="721.5272727272727" type="curve" smooth="yes"/>
      <point x="149.04545454545453" y="721.5272727272727"/>
      <point x="175.52727272727273" y="732.9"/>
      <point x="218.78181818181818" y="732.9" type="curve" smooth="yes"/>
      <point x="269.8818181818182" y="732.9"/>
      <point x="290.41818181818184" y="691.3818181818183"/>
    </contour>
    <component base="ha-beng" xOffset="0.6363636363636364"/>
  </outline>
</glyph>
<glyph name="ii-beng" format="2">
  <advance width="507.2727272727272"/>
  <unicode hex="0988"/>
  <anchor x="440.2818181818182" y="-21.09090909090909" name="bottom"/>
  <anchor x="440.8272727272727" y="70.0" name="bottom.rakaar"/>
  <anchor x="426.40909090909093" y="15.181818181818182" name="bottom.rvocalic"/>
  <anchor x="429.9909090909091" y="0.0" name="bottom.virama"/>
  <anchor x="296.93636363636364" y="621.0909090909091" name="top"/>
  <anchor x="258.23636363636365" y="628.3636363636364" name="topright"/>
  <anchor x="253.3272727272727" y="0.0" name="vedic"/>
  <outline>
    <contour>
      <point x="414.3909090909091" y="-4.436363636363637" type="curve"/>
      <point x="443.32727272727277" y="6.2727272727272725" type="line"/>
      <point x="424.8636363636364" y="68.86363636363636"/>
      <point x="412.6727272727273" y="127.78181818181818"/>
      <point x="412.6727272727273" y="205.23636363636362" type="curve" smooth="yes"/>
      <point x="412.6727272727273" y="293.67272727272723"/>
      <point x="430.95454545454544" y="371.9545454545455"/>
      <point x="462.1818181818182" y="431.0" type="curve"/>
      <point x="404.6636363636364" y="482.0181818181818" type="line"/>
      <point x="348.50909090909096" y="437.44545454545454"/>
      <point x="299.90909090909093" y="370.77272727272725"/>
      <point x="262.2" y="287.4636363636364" type="curve"/>
      <point x="278.91818181818184" y="294.06363636363636" type="line"/>
      <point x="282.25454545454545" y="308.55454545454546"/>
      <point x="286.0272727272727" y="330.44545454545454"/>
      <point x="286.0272727272727" y="351.60909090909087" type="curve" smooth="yes"/>
      <point x="286.0272727272727" y="445.3636363636364"/>
      <point x="239.36363636363635" y="508.45454545454544"/>
      <point x="144.11818181818182" y="508.45454545454544" type="curve" smooth="yes"/>
      <point x="84.95454545454547" y="508.45454545454544"/>
      <point x="53.19090909090909" y="480.0"/>
      <point x="53.327272727272735" y="432.8181818181818" type="curve" smooth="yes"/>
      <point x="53.463636363636354" y="393.09090909090907"/>
      <point x="76.57272727272728" y="368.3636363636364"/>
      <point x="111.70909090909092" y="368.3636363636364" type="curve" smooth="yes"/>
      <point x="150.9909090909091" y="368.3636363636364"/>
      <point x="172.9090909090909" y="400.41818181818184"/>
      <point x="172.9090909090909" y="447.8727272727273" type="curve" smooth="yes"/>
      <point x="172.9090909090909" y="490.8727272727273"/>
      <point x="146.5727272727273" y="553.7272727272727"/>
      <point x="109.9" y="590.1818181818181" type="curve"/>
      <point x="42.64545454545454" y="590.1818181818181" type="line"/>
      <point x="84.97272727272727" y="567.6363636363636"/>
      <point x="120.65454545454547" y="529.6363636363636"/>
      <point x="135.2" y="476.1818181818182" type="curve"/>
      <point x="109.01818181818183" y="436.40909090909093" type="line"/>
      <point x="129.6" y="450.8636363636364"/>
      <point x="147.65454545454546" y="458.5909090909091"/>
      <point x="171.20909090909092" y="458.5909090909091" type="curve" smooth="yes"/>
      <point x="223.89090909090908" y="458.5909090909091"/>
      <point x="252.47272727272727" y="415.8909090909091"/>
      <point x="252.47272727272727" y="349.9454545454545" type="curve" smooth="yes"/>
      <point x="252.47272727272727" y="311.80909090909086"/>
      <point x="245.50909090909096" y="272.1363636363636"/>
      <point x="229.40909090909093" y="240.29090909090908" type="curve" smooth="yes"/>
      <point x="210.64545454545453" y="203.6909090909091"/>
      <point x="186.5090909090909" y="182.16363636363636"/>
      <point x="156.75454545454548" y="182.16363636363636" type="curve" smooth="yes"/>
      <point x="123.07272727272728" y="182.16363636363636"/>
      <point x="95.35454545454546" y="220.4"/>
      <point x="76.11818181818182" y="264.3909090909091" type="curve"/>
      <point x="50.41818181818182" y="252.0909090909091" type="line"/>
      <point x="79.6" y="173.68181818181816"/>
      <point x="118.07272727272726" y="126.5909090909091"/>
      <point x="167.97272727272727" y="126.5909090909091" type="curve" smooth="yes"/>
      <point x="221.08181818181816" y="126.5909090909091"/>
      <point x="251.03636363636363" y="170.64545454545453"/>
      <point x="286.8727272727273" y="237.6" type="curve" smooth="yes"/>
      <point x="323.1363636363636" y="303.29090909090905"/>
      <point x="359.54545454545456" y="366.4272727272727"/>
      <point x="419.77272727272725" y="426.30909090909086" type="curve"/>
      <point x="410.3090909090909" y="434.18181818181813" type="line"/>
      <point x="387.7090909090909" y="386.7272727272727"/>
      <point x="372.6727272727273" y="307.4636363636364"/>
      <point x="372.6727272727273" y="229.27272727272728" type="curve" smooth="yes"/>
      <point x="372.6727272727273" y="146.3181818181818"/>
      <point x="388.66363636363633" y="70.80909090909091"/>
    </contour>
    <contour>
      <point x="-0.21818181818181803" y="584.5454545454545" type="line"/>
      <point x="528.9272727272728" y="584.5454545454545" type="line"/>
      <point x="507.32727272727277" y="622.0" type="line"/>
      <point x="-21.654545454545453" y="622.0" type="line"/>
    </contour>
    <contour>
      <point x="393.2454545454545" y="614.7272727272727" type="curve"/>
      <point x="423.9727272727273" y="614.7272727272727" type="line"/>
      <point x="414.9727272727273" y="731.9545454545455"/>
      <point x="379.6545454545454" y="788.6363636363636"/>
      <point x="296.2636363636364" y="788.6363636363636" type="curve" smooth="yes"/>
      <point x="248.91818181818178" y="788.6363636363636"/>
      <point x="218.10000000000002" y="777.3636363636364"/>
      <point x="166.1818181818182" y="777.3636363636364" type="curve" smooth="yes"/>
      <point x="101.23636363636363" y="777.3636363636364"/>
      <point x="70.92727272727272" y="797.1818181818181"/>
      <point x="70.92727272727272" y="875.7272727272727" type="curve" smooth="yes"/>
      <point x="70.92727272727272" y="883.7818181818182"/>
      <point x="71.38181818181819" y="895.5545454545455"/>
      <point x="72.9" y="906.1818181818181" type="curve"/>
      <point x="45.02727272727273" y="909.2727272727273" type="line"/>
      <point x="42.663636363636364" y="893.409090909091"/>
      <point x="41.28181818181819" y="877.3363636363637"/>
      <point x="41.28181818181819" y="862.0" type="curve" smooth="yes"/>
      <point x="41.28181818181819" y="766.290909090909"/>
      <point x="84.76363636363638" y="720.6363636363636"/>
      <point x="167.04545454545453" y="720.6363636363636" type="curve" smooth="yes"/>
      <point x="224.44545454545454" y="720.6363636363636"/>
      <point x="261.42727272727274" y="732.4545454545455"/>
      <point x="310.3454545454546" y="732.4545454545455" type="curve" smooth="yes"/>
      <point x="365.73636363636365" y="732.4545454545455"/>
      <point x="386.47272727272724" y="691.0"/>
    </contour>
  </outline>
</glyph>
<glyph name="u-beng" format="2">
  <advance width="497.10909090909087"/>
  <unicode hex="0989"/>
  <anchor x="366.6272727272728" y="36.72727272727273" name="bottom"/>
  <anchor x="406.7363636363637" y="-15.47272727272727" name="bottom.rakaar"/>
  <anchor x="345.8545454545455" y="70.65454545454546" name="bottom.rvocalic"/>
  <anchor x="307.3636363636364" y="21.654545454545456" name="bottom.virama"/>
  <anchor x="275.7" y="616.8636363636363" name="top"/>
  <anchor x="238.68181818181816" y="623.4727272727273" name="topright"/>
  <anchor x="248.36363636363635" y="0.0" name="vedic"/>
  <anchor x="264.0" y="-39.27272727272727" name="nukta"/>
  <outline>
    <contour>
      <point x="393.20909090909095" y="614.7272727272727" type="curve"/>
      <point x="423.9363636363637" y="614.7272727272727" type="line"/>
      <point x="416.08181818181816" y="731.1909090909091"/>
      <point x="378.74545454545455" y="787.1090909090909"/>
      <point x="297.75454545454545" y="787.1090909090909" type="curve" smooth="yes"/>
      <point x="250.76363636363635" y="787.1090909090909"/>
      <point x="220.1363636363636" y="775.8363636363637"/>
      <point x="170.12727272727273" y="775.8363636363637" type="curve" smooth="yes"/>
      <point x="106.32727272727271" y="775.8363636363637"/>
      <point x="77.16363636363636" y="799.090909090909"/>
      <point x="77.16363636363636" y="868.8545454545455" type="curve" smooth="yes"/>
      <point x="77.16363636363636" y="878.8181818181818"/>
      <point x="78.0" y="893.2636363636364"/>
      <point x="79.51818181818182" y="905.8" type="curve"/>
      <point x="50.118181818181824" y="908.8909090909091" type="line"/>
      <point x="47.75454545454546" y="891.8818181818183"/>
      <point x="46.75454545454546" y="875.8090909090909"/>
      <point x="46.75454545454546" y="858.1818181818181" type="curve" smooth="yes"/>
      <point x="46.75454545454546" y="765.9090909090909"/>
      <point x="89.85454545454546" y="721.4"/>
      <point x="171.75454545454548" y="721.4" type="curve" smooth="yes"/>
      <point x="227.62727272727273" y="721.4"/>
      <point x="260.6" y="733.2181818181818"/>
      <point x="309.16363636363633" y="733.2181818181818" type="curve" smooth="yes"/>
      <point x="364.8272727272727" y="733.2181818181818"/>
      <point x="386.0545454545455" y="691.0"/>
    </contour>
    <component base="dda-beng"/>
  </outline>
</glyph>
<glyph name="uu-beng" format="2">
  <advance width="549.7181818181818"/>
  <unicode hex="098A"/>
  <anchor x="419.6909090909091" y="36.72727272727273" name="bottom"/>
  <anchor x="459.79999999999995" y="-15.09090909090909" name="bottom.rakaar"/>
  <anchor x="398.6" y="70.27272727272727" name="bottom.rvocalic"/>
  <anchor x="359.3454545454546" y="21.272727272727273" name="bottom.virama"/>
  <anchor x="320.0454545454545" y="619.7272727272727" name="top"/>
  <anchor x="298.1636363636364" y="628.3636363636364" name="topright"/>
  <anchor x="274.7909090909091" y="0.0" name="vedic"/>
  <outline>
    <contour>
      <point x="343.08181818181816" y="65.45454545454545" type="curve" smooth="yes"/>
      <point x="456.97272727272724" y="65.45454545454545"/>
      <point x="514.8363636363637" y="149.0181818181818"/>
      <point x="514.8363636363637" y="270.04545454545456" type="curve" smooth="yes"/>
      <point x="514.8363636363637" y="359.1181818181818"/>
      <point x="484.1545454545454" y="419.3272727272727"/>
      <point x="445.07272727272726" y="458.4909090909091" type="curve"/>
      <point x="413.4818181818182" y="394.00909090909096"/>
      <point x="363.56363636363636" y="339.07272727272726"/>
      <point x="320.5181818181818" y="339.07272727272726" type="curve" smooth="yes"/>
      <point x="299.8909090909091" y="339.07272727272726"/>
      <point x="288.8363636363636" y="352.3909090909091"/>
      <point x="288.8363636363636" y="374.75454545454545" type="curve" smooth="yes"/>
      <point x="288.8363636363636" y="584.5454545454545" type="line"/>
      <point x="571.3727272727273" y="584.5454545454545" type="line"/>
      <point x="548.6909090909091" y="622.0" type="line"/>
      <point x="-21.654545454545453" y="622.0" type="line"/>
      <point x="0.3272727272727278" y="584.5454545454545" type="line"/>
      <point x="250.3909090909091" y="584.5454545454545" type="line"/>
      <point x="250.3909090909091" y="373.6181818181819" type="line" smooth="yes"/>
      <point x="250.3909090909091" y="342.58181818181816"/>
      <point x="259.6545454545454" y="321.8909090909091"/>
      <point x="276.3727272727273" y="307.27272727272725" type="curve" smooth="yes"/>
      <point x="291.3545454545455" y="293.90909090909093"/>
      <point x="309.27272727272725" y="287.3636363636364"/>
      <point x="330.03636363636366" y="287.3636363636364" type="curve" smooth="yes"/>
      <point x="379.1545454545454" y="287.3636363636364"/>
      <point x="432.4090909090909" y="330.3909090909091"/>
      <point x="471.91818181818184" y="400.9818181818182" type="curve"/>
      <point x="443.77272727272725" y="391.0454545454545" type="line"/>
      <point x="463.3818181818182" y="371.40909090909093"/>
      <point x="478.9272727272727" y="338.6181818181818"/>
      <point x="478.9272727272727" y="282.7454545454545" type="curve" smooth="yes"/>
      <point x="478.9272727272727" y="181.4818181818182"/>
      <point x="428.8909090909091" y="124.62727272727274"/>
      <point x="347.3454545454546" y="124.13636363636363" type="curve" smooth="yes"/>
      <point x="226.3181818181818" y="123.31818181818183"/>
      <point x="179.1090909090909" y="287.45454545454544"/>
      <point x="135.3" y="500.3181818181818" type="curve"/>
      <point x="106.36363636363637" y="491.8181818181818" type="line"/>
      <point x="137.3090909090909" y="316.9090909090909"/>
      <point x="171.15454545454546" y="191.65454545454546"/>
      <point x="242.4090909090909" y="119.45454545454545" type="curve"/>
      <point x="263.60909090909087" y="122.45454545454545" type="line"/>
      <point x="166.6" y="151.1818181818182"/>
      <point x="99.79090909090908" y="278.22727272727275"/>
      <point x="50.90909090909092" y="500.3181818181818" type="curve"/>
      <point x="21.972727272727276" y="491.8181818181818" type="line"/>
      <point x="76.51818181818182" y="206.54545454545453"/>
      <point x="175.35454545454544" y="65.45454545454545"/>
    </contour>
    <contour>
      <point x="449.68181818181813" y="614.7272727272727" type="curve"/>
      <point x="480.0272727272727" y="614.7272727272727" type="line"/>
      <point x="471.02727272727276" y="731.9545454545455"/>
      <point x="424.3636363636364" y="790.8181818181819"/>
      <point x="338.23636363636365" y="790.8181818181819" type="curve" smooth="yes"/>
      <point x="283.20909090909095" y="790.8181818181819"/>
      <point x="235.35454545454544" y="774.0363636363636"/>
      <point x="169.63636363636363" y="774.0363636363636" type="curve" smooth="yes"/>
      <point x="105.04545454545453" y="774.0363636363636"/>
      <point x="73.11818181818182" y="799.090909090909"/>
      <point x="73.11818181818182" y="868.8545454545455" type="curve" smooth="yes"/>
      <point x="73.11818181818182" y="878.8181818181818"/>
      <point x="73.95454545454545" y="893.2636363636364"/>
      <point x="75.47272727272728" y="905.8" type="curve"/>
      <point x="45.909090909090914" y="908.8909090909091" type="line"/>
      <point x="43.70909090909091" y="891.8818181818183"/>
      <point x="42.70909090909091" y="875.8090909090909"/>
      <point x="42.70909090909091" y="858.1818181818181" type="curve" smooth="yes"/>
      <point x="42.70909090909091" y="764.9272727272728"/>
      <point x="88.57272727272728" y="719.6"/>
      <point x="171.26363636363635" y="719.6" type="curve" smooth="yes"/>
      <point x="241.94545454545454" y="719.6"/>
      <point x="287.9727272727273" y="736.9272727272728"/>
      <point x="348.3909090909091" y="736.9272727272728" type="curve" smooth="yes"/>
      <point x="410.74545454545455" y="736.9272727272728"/>
      <point x="442.1454545454545" y="691.0"/>
    </contour>
  </outline>
</glyph>
<glyph name="rVocalic-beng" format="2">
  <advance width="574.8181818181818"/>
  <unicode hex="098B"/>
  <anchor x="377.9272727272727" y="-5.909090909090909" name="bottom"/>
  <anchor x="378.97272727272724" y="60.90909090909091" name="bottom.rakaar"/>
  <anchor x="309.50909090909096" y="140.24545454545452" name="bottom.rvocalic"/>
  <anchor x="365.74545454545455" y="3.272727272727273" name="bottom.virama"/>
  <anchor x="378.97272727272724" y="584.5454545454545" name="top"/>
  <anchor x="381.27272727272725" y="584.5454545454545" name="topright"/>
  <anchor x="287.4090909090909" y="0.0" name="vedic"/>
  <outline>
    <contour>
      <point x="375.1363636363637" y="-8.454545454545455" type="line"/>
      <point x="379.60909090909087" y="-7.454545454545455" type="line"/>
      <point x="379.60909090909087" y="641.2727272727273" type="line"/>
      <point x="344.8454545454546" y="667.0909090909091" type="line"/>
      <point x="341.1636363636364" y="666.0909090909091" type="line"/>
      <point x="341.1636363636364" y="483.26363636363635" type="line"/>
      <point x="348.02727272727276" y="502.58181818181816" type="line"/>
      <point x="245.49090909090907" y="459.74545454545455"/>
      <point x="147.36363636363635" y="401.2181818181818"/>
      <point x="56.463636363636354" y="333.39090909090913" type="curve"/>
      <point x="91.10909090909091" y="261.0" type="line"/>
      <point x="203.24545454545455" y="224.56363636363633"/>
      <point x="294.3363636363636" y="142.04545454545453"/>
      <point x="346.8181818181818" y="15.100000000000001" type="curve"/>
    </contour>
    <contour>
      <point x="341.1636363636364" y="62.763636363636365" type="line"/>
      <point x="351.54545454545456" y="62.67272727272727" type="line"/>
      <point x="306.9090909090909" y="190.5909090909091"/>
      <point x="202.55454545454543" y="273.41818181818184"/>
      <point x="106.2090909090909" y="312.89090909090913" type="curve"/>
      <point x="109.82727272727271" y="298.8" type="line"/>
      <point x="183.71818181818182" y="361.0"/>
      <point x="279.40000000000003" y="411.91818181818184"/>
      <point x="348.8636363636363" y="440.41818181818184" type="curve"/>
      <point x="341.1636363636364" y="455.9363636363637" type="line"/>
    </contour>
    <contour>
      <point x="94.51818181818182" y="453.99090909090904" type="curve" smooth="yes"/>
      <point x="157.11818181818182" y="453.99090909090904"/>
      <point x="222.63636363636365" y="493.8181818181818"/>
      <point x="258.82727272727277" y="570.909090909091" type="curve"/>
      <point x="236.22727272727275" y="567.8181818181819" type="line"/>
      <point x="259.8545454545455" y="545.4545454545455"/>
      <point x="280.1" y="512.6363636363636"/>
      <point x="306.1727272727273" y="460.8636363636364" type="curve"/>
      <point x="331.39090909090913" y="467.9545454545455" type="line"/>
      <point x="301.0181818181818" y="545.7545454545453"/>
      <point x="269.39090909090913" y="592.7818181818182"/>
      <point x="234.30909090909094" y="623.7818181818182" type="curve"/>
      <point x="195.83636363636361" y="542.3272727272727"/>
      <point x="141.62727272727275" y="505.0909090909091"/>
      <point x="98.39090909090909" y="505.0909090909091" type="curve" smooth="yes"/>
      <point x="90.58181818181819" y="505.0909090909091"/>
      <point x="79.92727272727272" y="507.18181818181813"/>
      <point x="75.05454545454545" y="509.9454545454545" type="curve"/>
      <point x="97.12727272727274" y="486.59090909090907" type="line"/>
      <point x="109.78181818181818" y="500.1818181818182"/>
      <point x="114.17272727272726" y="511.9727272727273"/>
      <point x="114.17272727272726" y="532.3181818181818" type="curve" smooth="yes"/>
      <point x="114.17272727272726" y="560.9545454545455"/>
      <point x="97.33636363636364" y="582.0454545454545"/>
      <point x="66.07272727272726" y="582.0454545454545" type="curve" smooth="yes"/>
      <point x="34.58181818181818" y="582.0454545454545"/>
      <point x="14.672727272727274" y="560.5636363636364"/>
      <point x="14.672727272727274" y="525.0818181818181" type="curve" smooth="yes"/>
      <point x="14.672727272727274" y="477.29090909090905"/>
      <point x="53.18181818181819" y="453.99090909090904"/>
    </contour>
    <contour>
      <point x="495.0909090909091" y="91.46363636363635" type="line"/>
      <point x="499.23636363636365" y="92.46363636363635" type="line"/>
      <point x="499.23636363636365" y="584.5454545454545" type="line"/>
      <point x="596.4727272727273" y="584.5454545454545" type="line"/>
      <point x="574.3272727272727" y="622.0" type="line"/>
      <point x="498.0909090909091" y="622.0" type="line"/>
      <point x="494.48181818181826" y="663.1818181818181" type="line"/>
      <point x="464.4727272727273" y="687.0909090909091" type="line"/>
      <point x="460.7909090909091" y="686.0909090909091" type="line"/>
      <point x="460.7909090909091" y="162.6818181818182" type="line"/>
      <point x="471.17272727272723" y="162.5909090909091" type="line"/>
      <point x="447.9727272727273" y="230.27272727272728"/>
      <point x="408.7545454545455" y="287.6"/>
      <point x="362.91818181818184" y="330.5363636363636" type="curve"/>
      <point x="359.0363636363636" y="275.92727272727274" type="line"/>
      <point x="403.75454545454545" y="235.46363636363637"/>
      <point x="439.5090909090909" y="180.22727272727275"/>
      <point x="466.4454545454546" y="115.01818181818182" type="curve"/>
    </contour>
  </outline>
</glyph>
<glyph name="lVocalic-beng" format="2">
  <advance width="413.2"/>
  <unicode hex="098C"/>
  <anchor x="294.6545454545454" y="584.5454545454545" name="top"/>
  <anchor x="206.1818181818182" y="0.0" name="vedic"/>
  <outline>
    <contour>
      <point x="241.81818181818178" y="33.90909090909091" type="line"/>
      <point x="313.08181818181816" y="54.09090909090909"/>
      <point x="387.8727272727273" y="142.64545454545456"/>
      <point x="387.8727272727273" y="275.04545454545456" type="curve" smooth="yes"/>
      <point x="387.8727272727273" y="407.95454545454544"/>
      <point x="325.6909090909091" y="449.59090909090907"/>
      <point x="222.78181818181818" y="480.40909090909093" type="curve" smooth="yes"/>
      <point x="152.26363636363638" y="501.57272727272726"/>
      <point x="98.0" y="520.1727272727272"/>
      <point x="98.0" y="602.9727272727274" type="curve" smooth="yes"/>
      <point x="98.0" y="637.4363636363637"/>
      <point x="107.55454545454546" y="664.7272727272727"/>
      <point x="117.69090909090907" y="690.2727272727273" type="curve"/>
      <point x="88.75454545454545" y="701.5454545454545" type="line"/>
      <point x="72.79090909090908" y="665.7454545454545"/>
      <point x="62.945454545454545" y="626.6272727272726"/>
      <point x="62.945454545454545" y="588.8909090909091" type="curve" smooth="yes"/>
      <point x="62.945454545454545" y="480.3727272727273"/>
      <point x="122.37272727272727" y="449.5090909090909"/>
      <point x="213.21818181818185" y="424.3636363636364" type="curve" smooth="yes"/>
      <point x="297.6181818181818" y="400.16363636363633"/>
      <point x="353.1454545454546" y="376.5"/>
      <point x="353.1454545454546" y="262.3818181818182" type="curve" smooth="yes"/>
      <point x="353.1454545454546" y="178.74545454545452"/>
      <point x="312.22727272727275" y="108.14545454545454"/>
      <point x="267.1636363636364" y="94.21818181818182" type="curve"/>
      <point x="286.9" y="81.9090909090909" type="line"/>
      <point x="290.58181818181816" y="199.9090909090909"/>
      <point x="255.41818181818186" y="299.09090909090907"/>
      <point x="162.0636363636364" y="299.09090909090907" type="curve" smooth="yes"/>
      <point x="90.39090909090909" y="299.09090909090907"/>
      <point x="52.272727272727266" y="239.95454545454544"/>
      <point x="52.272727272727266" y="172.18181818181816" type="curve" smooth="yes"/>
      <point x="52.272727272727266" y="95.03636363636363"/>
      <point x="89.81818181818181" y="52.81818181818181"/>
      <point x="133.83636363636361" y="52.81818181818181" type="curve" smooth="yes"/>
      <point x="169.1909090909091" y="52.81818181818181"/>
      <point x="185.0727272727273" y="79.86363636363636"/>
      <point x="185.0727272727273" y="109.54545454545455" type="curve" smooth="yes"/>
      <point x="185.0727272727273" y="141.1818181818182"/>
      <point x="164.31818181818184" y="162.0909090909091"/>
      <point x="137.32727272727274" y="162.0909090909091" type="curve" smooth="yes"/>
      <point x="113.09090909090908" y="162.0909090909091"/>
      <point x="92.5909090909091" y="142.27272727272728"/>
      <point x="93.01818181818183" y="115.45454545454545" type="curve"/>
      <point x="117.70000000000002" y="115.70909090909092" type="line"/>
      <point x="102.93636363636362" y="123.18181818181817"/>
      <point x="88.89090909090908" y="141.54545454545453"/>
      <point x="88.89090909090908" y="178.36363636363637" type="curve" smooth="yes"/>
      <point x="88.89090909090908" y="227.8"/>
      <point x="119.74545454545455" y="254.1818181818182"/>
      <point x="155.38181818181818" y="254.1818181818182" type="curve" smooth="yes"/>
      <point x="220.40909090909093" y="254.1818181818182"/>
      <point x="240.6090909090909" y="174.70909090909092"/>
      <point x="240.6090909090909" y="90.27272727272728" type="curve" smooth="yes"/>
      <point x="240.6090909090909" y="69.9090909090909"/>
      <point x="239.7181818181818" y="53.36363636363637"/>
      <point x="237.39999999999998" y="37.45454545454545" type="curve"/>
    </contour>
  </outline>
</glyph>
<glyph name="e-beng" format="2">
  <advance width="532.2"/>
  <unicode hex="098F"/>
  <anchor x="461.6818181818182" y="-8.636363636363637" name="bottom"/>
  <anchor x="461.6818181818182" y="2.5454545454545454" name="bottom.rvocalic"/>
  <anchor x="448.8363636363636" y="3.272727272727273" name="bottom.virama"/>
  <anchor x="385.99090909090916" y="584.5454545454545" name="top"/>
  <anchor x="388.67272727272734" y="584.5454545454545" name="topright"/>
  <anchor x="266.0181818181818" y="0.0" name="vedic"/>
  <outline>
    <contour>
      <point x="456.3181818181818" y="-10.272727272727273" type="line"/>
      <point x="460.7909090909091" y="-9.272727272727273" type="line"/>
      <point x="460.7909090909091" y="524.0363636363636" type="line" smooth="yes"/>
      <point x="460.7909090909091" y="593.2"/>
      <point x="431.7181818181818" y="631.2272727272726"/>
      <point x="377.1181818181818" y="631.2272727272726" type="curve" smooth="yes"/>
      <point x="280.24545454545455" y="631.2272727272726"/>
      <point x="186.71818181818182" y="495.8181818181818"/>
      <point x="186.71818181818182" y="384.22727272727275" type="curve" smooth="yes"/>
      <point x="186.71818181818182" y="315.5454545454545"/>
      <point x="223.05454545454543" y="284.9090909090909"/>
      <point x="262.53636363636366" y="283.8181818181818" type="curve" smooth="yes"/>
      <point x="308.48181818181814" y="282.7272727272727"/>
      <point x="330.95454545454544" y="313.41818181818184"/>
      <point x="330.95454545454544" y="351.90909090909093" type="curve" smooth="yes"/>
      <point x="330.95454545454544" y="388.72727272727275"/>
      <point x="309.91818181818184" y="417.04545454545456"/>
      <point x="274.22727272727275" y="417.04545454545456" type="curve" smooth="yes"/>
      <point x="256.8454545454545" y="417.04545454545456"/>
      <point x="238.03636363636363" y="408.1818181818182"/>
      <point x="230.22727272727272" y="386.6363636363636" type="curve"/>
      <point x="244.71818181818182" y="387.6363636363636" type="line"/>
      <point x="243.8" y="483.87272727272733"/>
      <point x="321.90000000000003" y="589.7818181818182"/>
      <point x="378.3090909090909" y="589.7818181818182" type="curve" smooth="yes"/>
      <point x="413.0272727272727" y="589.7818181818182"/>
      <point x="422.3454545454546" y="563.0545454545454"/>
      <point x="422.3454545454546" y="514.3636363636364" type="curve" smooth="yes"/>
      <point x="422.3454545454546" y="178.1818181818182" type="line" smooth="yes"/>
      <point x="422.3454545454546" y="145.47272727272727"/>
      <point x="423.27272727272725" y="104.93636363636364"/>
      <point x="426.19999999999993" y="70.93636363636362" type="curve"/>
      <point x="398.94545454545454" y="129.9909090909091"/>
      <point x="359.5454545454545" y="145.70909090909092"/>
      <point x="317.8727272727273" y="145.70909090909092" type="curve" smooth="yes"/>
      <point x="271.78181818181815" y="145.70909090909092"/>
      <point x="241.77272727272725" y="134.66363636363639"/>
      <point x="184.63636363636363" y="134.66363636363639" type="curve" smooth="yes"/>
      <point x="119.75454545454544" y="134.66363636363639"/>
      <point x="78.53636363636365" y="172.46363636363637"/>
      <point x="78.53636363636365" y="262.3727272727273" type="curve" smooth="yes"/>
      <point x="78.53636363636365" y="301.95454545454544"/>
      <point x="83.96363636363637" y="331.7090909090909"/>
      <point x="89.58181818181818" y="354.0090909090909" type="curve"/>
      <point x="58.0909090909091" y="360.3454545454546" type="line"/>
      <point x="50.63636363636364" y="330.94545454545454"/>
      <point x="44.95454545454545" y="291.08181818181816"/>
      <point x="44.95454545454545" y="250.7" type="curve" smooth="yes"/>
      <point x="44.95454545454545" y="115.96363636363637"/>
      <point x="112.83636363636364" y="76.26363636363637"/>
      <point x="188.08181818181816" y="76.26363636363637" type="curve" smooth="yes"/>
      <point x="248.54545454545456" y="76.26363636363637"/>
      <point x="277.5" y="89.49090909090908"/>
      <point x="331.08181818181816" y="89.49090909090908" type="curve" smooth="yes"/>
      <point x="374.45454545454544" y="89.49090909090908"/>
      <point x="402.1363636363636" y="74.36363636363636"/>
      <point x="429.4818181818182" y="12.454545454545455" type="curve"/>
    </contour>
  </outline>
</glyph>
<glyph name="ai-beng" format="2">
  <advance width="613.9545454545454"/>
  <unicode hex="0990"/>
  <anchor x="405.30909090909086" y="600.9090909090909" name="top"/>
  <anchor x="377.05454545454546" y="608.3636363636364" name="topright"/>
  <anchor x="306.90909090909093" y="0.0" name="vedic"/>
  <anchor x="461.6818181818182" y="-8.636363636363637" name="bottom"/>
  <anchor x="461.6818181818182" y="2.5454545454545454" name="bottom.rvocalic"/>
  <anchor x="448.8363636363636" y="3.272727272727273" name="bottom.virama"/>
  <outline>
    <contour>
      <point x="455.76363636363635" y="342.90909090909093" type="line"/>
      <point x="507.1000000000001" y="397.45454545454544"/>
      <point x="550.4545454545454" y="465.73636363636365"/>
      <point x="550.4545454545454" y="567.4545454545454" type="curve" smooth="yes"/>
      <point x="550.4545454545454" y="711.4"/>
      <point x="458.5727272727273" y="743.8"/>
      <point x="347.2818181818182" y="759.1454545454545" type="curve" smooth="yes"/>
      <point x="259.1363636363636" y="771.3272727272728"/>
      <point x="187.0818181818182" y="782.5545454545455"/>
      <point x="187.0818181818182" y="875.4545454545454" type="curve" smooth="yes"/>
      <point x="187.0818181818182" y="906.8272727272727"/>
      <point x="194.87272727272725" y="934.7727272727274"/>
      <point x="204.12727272727273" y="957.409090909091" type="curve"/>
      <point x="175.36363636363635" y="968.3636363636364" type="line"/>
      <point x="162.5727272727273" y="938.7090909090908"/>
      <point x="152.7909090909091" y="902.9272727272728"/>
      <point x="152.7909090909091" y="864.0181818181819" type="curve" smooth="yes"/>
      <point x="152.7909090909091" y="744.1181818181818"/>
      <point x="235.44545454545454" y="721.5818181818182"/>
      <point x="338.8090909090909" y="709.3090909090909" type="curve" smooth="yes"/>
      <point x="437.50909090909096" y="697.9"/>
      <point x="517.7636363636364" y="675.9454545454545"/>
      <point x="517.7636363636364" y="561.5454545454545" type="curve" smooth="yes"/>
      <point x="517.7636363636364" y="484.79090909090905"/>
      <point x="488.2909090909091" y="434.2818181818182"/>
      <point x="442.28181818181827" y="387.04545454545456" type="curve"/>
    </contour>
    <component base="e-beng"/>
  </outline>
</glyph>
<glyph name="o-beng" format="2">
  <advance width="572.8454545454546"/>
  <unicode hex="0993"/>
  <anchor x="424.1545454545454" y="39.90909090909091" name="bottom"/>
  <anchor x="464.26363636363635" y="-11.909090909090908" name="bottom.rakaar"/>
  <anchor x="403.4454545454546" y="73.45454545454545" name="bottom.rvocalic"/>
  <anchor x="364.57272727272726" y="24.454545454545453" name="bottom.virama"/>
  <anchor x="364.5181818181818" y="584.5454545454545" name="top"/>
  <anchor x="365.04545454545456" y="584.5454545454545" name="topright"/>
  <anchor x="286.1818181818182" y="0.0" name="vedic"/>
  <outline>
    <contour>
      <point x="356.2090909090909" y="68.63636363636364" type="curve" smooth="yes"/>
      <point x="464.1727272727273" y="68.63636363636364"/>
      <point x="521.5545454545455" y="139.94545454545454"/>
      <point x="521.5545454545455" y="243.74545454545455" type="curve" smooth="yes"/>
      <point x="521.5545454545455" y="349.82727272727277"/>
      <point x="449.39090909090913" y="412.3636363636364"/>
      <point x="395.8727272727273" y="412.3636363636364" type="curve" smooth="yes"/>
      <point x="364.4090909090909" y="412.3636363636364"/>
      <point x="342.9090909090909" y="391.09090909090907"/>
      <point x="342.9090909090909" y="355.3181818181818" type="curve" smooth="yes"/>
      <point x="342.9090909090909" y="319.72727272727275"/>
      <point x="363.8363636363636" y="296.6818181818182"/>
      <point x="396.95454545454544" y="296.6818181818182" type="curve" smooth="yes"/>
      <point x="450.42727272727274" y="296.6818181818182"/>
      <point x="504.71818181818185" y="388.47272727272724"/>
      <point x="504.71818181818185" y="486.0" type="curve" smooth="yes"/>
      <point x="504.71818181818185" y="572.0454545454546"/>
      <point x="457.03636363636366" y="624.1818181818181"/>
      <point x="376.1363636363636" y="624.1818181818181" type="curve" smooth="yes"/>
      <point x="266.41818181818184" y="624.1818181818181"/>
      <point x="172.45454545454547" y="518.5454545454545"/>
      <point x="172.45454545454547" y="420.45454545454544" type="curve" smooth="yes"/>
      <point x="172.45454545454547" y="364.8363636363636"/>
      <point x="201.53636363636363" y="338.2909090909091"/>
      <point x="235.54545454545456" y="338.2909090909091" type="curve" smooth="yes"/>
      <point x="268.4090909090909" y="338.2909090909091"/>
      <point x="291.09090909090907" y="359.94545454545454"/>
      <point x="291.09090909090907" y="400.8545454545454" type="curve" smooth="yes"/>
      <point x="291.09090909090907" y="432.58181818181816"/>
      <point x="272.6181818181818" y="456.7272727272727"/>
      <point x="244.77272727272728" y="456.7272727272727" type="curve" smooth="yes"/>
      <point x="230.2090909090909" y="456.7272727272727"/>
      <point x="213.01818181818186" y="450.95454545454544"/>
      <point x="203.3272727272727" y="430.1818181818182" type="curve"/>
      <point x="231.20909090909092" y="420.45454545454544" type="line"/>
      <point x="236.65454545454543" y="521.0909090909091"/>
      <point x="312.54545454545456" y="586.0727272727272"/>
      <point x="386.59090909090907" y="586.0727272727272" type="curve" smooth="yes"/>
      <point x="438.2454545454546" y="586.0727272727272"/>
      <point x="464.00909090909096" y="550.5"/>
      <point x="464.00909090909096" y="496.6363636363636" type="curve" smooth="yes"/>
      <point x="464.00909090909096" y="444.69090909090914"/>
      <point x="442.1272727272728" y="406.1272727272727"/>
      <point x="408.6363636363636" y="382.72727272727275" type="curve"/>
      <point x="419.98181818181826" y="352.5363636363636" type="line"/>
      <point x="449.1" y="352.08181818181816"/>
      <point x="484.9363636363636" y="315.5"/>
      <point x="484.9363636363636" y="253.87272727272727" type="curve" smooth="yes"/>
      <point x="484.9363636363636" y="172.47272727272724"/>
      <point x="436.8090909090909" y="127.48181818181818"/>
      <point x="358.6" y="127.48181818181818" type="curve" smooth="yes"/>
      <point x="227.0" y="127.48181818181818"/>
      <point x="125.28181818181817" y="244.72727272727272"/>
      <point x="59.845454545454544" y="533.8545454545455" type="curve"/>
      <point x="29.227272727272723" y="526.1818181818181" type="line"/>
      <point x="94.6" y="198.8181818181818"/>
      <point x="218.5" y="68.63636363636364"/>
    </contour>
  </outline>
</glyph>
<glyph name="au-beng" format="2">
  <advance width="627.4545454545455"/>
  <unicode hex="0994"/>
  <anchor x="510.0" y="39.90909090909091" name="bottom"/>
  <anchor x="558.0" y="-11.909090909090908" name="bottom.rakaar"/>
  <anchor x="481.90909090909093" y="73.45454545454545" name="bottom.rvocalic"/>
  <anchor x="434.6363636363636" y="24.454545454545453" name="bottom.virama"/>
  <anchor x="523.6363636363636" y="600.9090909090909" name="top"/>
  <anchor x="473.09090909090907" y="608.3636363636364" name="topright"/>
  <anchor x="313.72727272727275" y="0.0" name="vedic"/>
  <outline>
    <contour>
      <point x="469.2636363636363" y="342.90909090909093" type="line"/>
      <point x="520.6" y="397.45454545454544"/>
      <point x="563.9545454545455" y="465.73636363636365"/>
      <point x="563.9545454545455" y="567.2090909090908" type="curve" smooth="yes"/>
      <point x="563.9545454545455" y="712.1090909090909"/>
      <point x="471.25454545454545" y="743.9636363636364"/>
      <point x="360.7818181818182" y="759.1454545454545" type="curve" smooth="yes"/>
      <point x="272.6363636363636" y="771.3272727272728"/>
      <point x="200.5818181818182" y="782.5545454545455"/>
      <point x="200.5818181818182" y="875.4545454545454" type="curve" smooth="yes"/>
      <point x="200.5818181818182" y="906.8272727272727"/>
      <point x="208.37272727272727" y="934.7727272727274"/>
      <point x="217.62727272727273" y="957.409090909091" type="curve"/>
      <point x="188.86363636363637" y="968.3636363636364" type="line"/>
      <point x="176.0727272727273" y="938.7090909090908"/>
      <point x="166.29090909090908" y="902.9272727272728"/>
      <point x="166.29090909090908" y="864.0181818181819" type="curve" smooth="yes"/>
      <point x="166.29090909090908" y="744.1181818181818"/>
      <point x="248.94545454545454" y="721.5818181818182"/>
      <point x="352.1454545454546" y="709.3090909090909" type="curve" smooth="yes"/>
      <point x="451.0090909090909" y="697.7363636363636"/>
      <point x="531.2636363636364" y="675.9454545454545"/>
      <point x="531.2636363636364" y="561.1363636363636" type="curve" smooth="yes"/>
      <point x="531.2636363636364" y="483.1545454545455"/>
      <point x="501.6272727272727" y="432.9727272727273"/>
      <point x="455.6181818181819" y="385.73636363636365" type="curve"/>
    </contour>
    <component base="o-beng"/>
  </outline>
</glyph>
<glyph name="ka-beng" format="2">
  <advance width="582.3090909090909"/>
  <unicode hex="0995"/>
  <anchor x="345.8454545454546" y="21.363636363636363" name="bottom"/>
  <anchor x="349.17272727272723" y="47.27272727272727" name="bottom.rakaar"/>
  <anchor x="352.1" y="7.745454545454546" name="bottom.rvocalic"/>
  <anchor x="344.1181818181818" y="17.81818181818182" name="bottom.virama"/>
  <anchor x="166.54545454545453" y="84.0909090909091" name="nukta"/>
  <anchor x="352.1" y="584.5454545454545" name="top"/>
  <anchor x="349.9454545454545" y="584.5454545454545" name="topright"/>
  <anchor x="290.8818181818181" y="0.0" name="vedic"/>
  <outline>
    <contour>
      <point x="347.6272727272728" y="-8.454545454545455" type="line"/>
      <point x="352.1" y="-7.454545454545455" type="line"/>
      <point x="352.1" y="473.7727272727273" type="line"/>
      <point x="339.2272727272727" y="455.80909090909086" type="line"/>
      <point x="342.6181818181818" y="457.10909090909087"/>
      <point x="347.24545454545455" y="458.10909090909087"/>
      <point x="351.6181818181818" y="458.10909090909087" type="curve" smooth="yes"/>
      <point x="438.4454545454546" y="458.10909090909087"/>
      <point x="514.0272727272727" y="385.6818181818182"/>
      <point x="514.0272727272727" y="295.3363636363636" type="curve" smooth="yes"/>
      <point x="514.0272727272727" y="276.6818181818182"/>
      <point x="510.0454545454545" y="267.27272727272725"/>
      <point x="503.1454545454545" y="257.0181818181818" type="curve"/>
      <point x="517.0818181818182" y="257.54545454545456" type="line"/>
      <point x="511.49090909090904" y="290.72727272727275"/>
      <point x="492.8818181818181" y="306.82727272727277"/>
      <point x="466.87272727272733" y="306.82727272727277" type="curve" smooth="yes"/>
      <point x="434.18181818181813" y="306.82727272727277"/>
      <point x="415.7909090909091" y="281.8181818181818"/>
      <point x="415.7909090909091" y="249.13636363636365" type="curve" smooth="yes"/>
      <point x="415.7909090909091" y="216.4090909090909"/>
      <point x="436.0727272727273" y="187.5"/>
      <point x="474.0454545454545" y="187.5" type="curve" smooth="yes"/>
      <point x="515.6363636363636" y="187.5"/>
      <point x="545.8545454545454" y="227.06363636363636"/>
      <point x="545.8545454545454" y="295.3181818181818" type="curve" smooth="yes"/>
      <point x="545.8545454545454" y="413.90909090909093"/>
      <point x="453.63636363636357" y="508.41818181818184"/>
      <point x="342.10909090909087" y="517.3454545454545" type="curve"/>
      <point x="352.1" y="500.0454545454545" type="line"/>
      <point x="352.1" y="584.5454545454545" type="line"/>
      <point x="603.9636363636363" y="584.5454545454545" type="line"/>
      <point x="581.6636363636363" y="622.0" type="line"/>
      <point x="-21.654545454545453" y="622.0" type="line"/>
      <point x="0.3272727272727278" y="584.5454545454545" type="line"/>
      <point x="313.6545454545454" y="584.5454545454545" type="line"/>
      <point x="313.6545454545454" y="500.3636363636363" type="line"/>
      <point x="320.5181818181818" y="518.4272727272728" type="line"/>
      <point x="217.8909090909091" y="474.6090909090909"/>
      <point x="122.14545454545454" y="413.6818181818182"/>
      <point x="28.954545454545453" y="338.9818181818182" type="curve"/>
      <point x="63.599999999999994" y="266.59090909090907" type="line"/>
      <point x="175.73636363636365" y="228.5181818181818"/>
      <point x="266.41818181818184" y="142.5909090909091"/>
      <point x="319.3090909090909" y="15.100000000000001" type="curve"/>
    </contour>
    <contour>
      <point x="313.6545454545454" y="62.763636363636365" type="line"/>
      <point x="324.03636363636366" y="62.67272727272727" type="line"/>
      <point x="279.40000000000003" y="190.5909090909091"/>
      <point x="175.04545454545456" y="279.3090909090909"/>
      <point x="78.7" y="318.4818181818182" type="curve"/>
      <point x="82.31818181818183" y="304.55454545454546" type="line"/>
      <point x="158.03636363636363" y="372.82727272727277"/>
      <point x="251.3727272727273" y="424.92727272727274"/>
      <point x="321.35454545454553" y="455.6636363636364" type="curve"/>
      <point x="313.6545454545454" y="472.8181818181818" type="line"/>
    </contour>
  </outline>
</glyph>
<glyph name="kha-beng" format="2">
  <advance width="483.2636363636363"/>
  <unicode hex="0996"/>
  <anchor x="401.04545454545456" y="21.363636363636363" name="bottom"/>
  <anchor x="407.04545454545456" y="51.36363636363636" name="bottom.rakaar"/>
  <anchor x="407.6818181818182" y="9.272727272727273" name="bottom.rvocalic"/>
  <anchor x="396.42727272727274" y="13.454545454545455" name="bottom.virama"/>
  <anchor x="403.4818181818182" y="560.9545454545455" name="top"/>
  <anchor x="395.1181818181818" y="558.409090909091" name="topright"/>
  <anchor x="225.49090909090907" y="0.0" name="vedic"/>
  <outline>
    <contour>
      <point x="403.59090909090907" y="-8.454545454545455" type="line"/>
      <point x="407.6818181818182" y="-7.454545454545455" type="line"/>
      <point x="407.6818181818182" y="584.5454545454545" type="line"/>
      <point x="504.91818181818184" y="584.5454545454545" type="line"/>
      <point x="482.77272727272725" y="622.0" type="line"/>
      <point x="406.5363636363636" y="622.0" type="line"/>
      <point x="402.92727272727274" y="663.1818181818181" type="line"/>
      <point x="372.91818181818184" y="687.0909090909091" type="line"/>
      <point x="369.23636363636365" y="686.0909090909091" type="line"/>
      <point x="369.23636363636365" y="63.90909090909091" type="line"/>
      <point x="378.4727272727273" y="67.63636363636364" type="line"/>
      <point x="336.50909090909096" y="184.0181818181818"/>
      <point x="243.9090909090909" y="271.23636363636365"/>
      <point x="149.71818181818185" y="308.1090909090909" type="curve"/>
      <point x="156.4181818181818" y="292.49090909090904" type="line"/>
      <point x="253.47272727272724" y="312.6545454545454"/>
      <point x="303.3636363636364" y="367.00909090909096"/>
      <point x="303.3636363636364" y="459.1454545454546" type="curve" smooth="yes"/>
      <point x="303.3636363636364" y="541.6818181818181"/>
      <point x="264.69090909090914" y="590.7727272727273"/>
      <point x="230.73636363636365" y="623.7818181818182" type="curve"/>
      <point x="194.55454545454543" y="542.7363636363636"/>
      <point x="143.61818181818182" y="502.22727272727275"/>
      <point x="98.9090909090909" y="502.22727272727275" type="curve" smooth="yes"/>
      <point x="90.66363636363636" y="502.22727272727275"/>
      <point x="80.39090909090909" y="504.3181818181818"/>
      <point x="75.54545454545455" y="507.40909090909093" type="curve"/>
      <point x="97.53636363636365" y="485.09090909090907" type="line"/>
      <point x="110.32727272727273" y="498.8181818181818"/>
      <point x="114.71818181818183" y="510.6090909090909"/>
      <point x="114.71818181818183" y="531.0909090909091" type="curve" smooth="yes"/>
      <point x="114.71818181818183" y="559.8636363636363"/>
      <point x="97.74545454545455" y="581.0909090909091"/>
      <point x="66.34545454545454" y="581.0909090909091" type="curve" smooth="yes"/>
      <point x="34.71818181818182" y="581.0909090909091"/>
      <point x="14.672727272727274" y="559.4727272727273"/>
      <point x="14.672727272727274" y="523.8545454545455" type="curve" smooth="yes"/>
      <point x="14.672727272727274" y="474.1545454545454"/>
      <point x="52.82727272727273" y="450.3636363636364"/>
      <point x="94.13636363636364" y="450.3636363636364" type="curve" smooth="yes"/>
      <point x="158.26363636363635" y="450.3636363636364"/>
      <point x="220.72727272727275" y="494.09090909090907"/>
      <point x="256.7818181818182" y="570.909090909091" type="curve"/>
      <point x="231.36363636363637" y="565.3363636363638" type="line"/>
      <point x="249.3727272727273" y="545.7"/>
      <point x="265.3" y="516.6727272727272"/>
      <point x="265.3" y="470.7454545454545" type="curve" smooth="yes"/>
      <point x="265.3" y="378.49090909090904"/>
      <point x="181.34545454545457" y="344.10909090909087"/>
      <point x="90.14545454545454" y="337.2" type="curve"/>
      <point x="113.83636363636363" y="261.72727272727275" type="line"/>
      <point x="227.79999999999998" y="235.36363636363635"/>
      <point x="320.55454545454546" y="146.43636363636364"/>
      <point x="374.1272727272728" y="17.772727272727273" type="curve"/>
    </contour>
  </outline>
</glyph>
<glyph name="ga-beng" format="2">
  <advance width="480.3727272727273"/>
  <unicode hex="0997"/>
  <anchor x="392.08181818181816" y="57.81818181818181" name="bottom"/>
  <anchor x="404.1545454545454" y="-9.363636363636363" name="bottom.rakaar"/>
  <anchor x="404.7909090909091" y="-2.0454545454545454" name="bottom.rvocalic"/>
  <anchor x="391.3545454545455" y="5.545454545454546" name="bottom.virama"/>
  <anchor x="400.5909090909091" y="553.1818181818181" name="top"/>
  <anchor x="392.2272727272727" y="558.409090909091" name="topright"/>
  <anchor x="239.75454545454548" y="0.0" name="vedic"/>
  <outline>
    <contour>
      <point x="401.40909090909093" y="-18.18181818181818" type="line"/>
      <point x="404.7909090909091" y="-17.18181818181818" type="line"/>
      <point x="404.7909090909091" y="584.5454545454545" type="line"/>
      <point x="502.02727272727276" y="584.5454545454545" type="line"/>
      <point x="479.8818181818181" y="622.0" type="line"/>
      <point x="403.6454545454546" y="622.0" type="line"/>
      <point x="400.03636363636366" y="663.1818181818181" type="line"/>
      <point x="370.0272727272727" y="687.0909090909091" type="line"/>
      <point x="366.3454545454545" y="686.0909090909091" type="line"/>
      <point x="366.3454545454545" y="569.0909090909091" type="line" smooth="yes"/>
      <point x="366.3454545454545" y="521.8727272727273"/>
      <point x="367.90000000000003" y="475.4818181818182"/>
      <point x="371.3454545454545" y="431.1818181818182" type="curve"/>
      <point x="379.1818181818182" y="426.8181818181818" type="line"/>
      <point x="331.1636363636364" y="558.6818181818182"/>
      <point x="265.9" y="629.9090909090909"/>
      <point x="185.34545454545457" y="629.9090909090909" type="curve" smooth="yes"/>
      <point x="113.22727272727272" y="629.9090909090909"/>
      <point x="50.3909090909091" y="570.490909090909"/>
      <point x="14.60909090909091" y="449.2" type="curve"/>
      <point x="70.02727272727273" y="411.06363636363636" type="line"/>
      <point x="95.0909090909091" y="438.1636363636364"/>
      <point x="124.54545454545455" y="454.99090909090904"/>
      <point x="158.80909090909094" y="454.99090909090904" type="curve" smooth="yes"/>
      <point x="196.13636363636363" y="454.99090909090904"/>
      <point x="214.89999999999998" y="428.43636363636364"/>
      <point x="214.89999999999998" y="394.4909090909091" type="curve" smooth="yes"/>
      <point x="214.89999999999998" y="342.4090909090909"/>
      <point x="176.4909090909091" y="301.0909090909091"/>
      <point x="109.94545454545454" y="264.1818181818182" type="curve"/>
      <point x="147.38181818181818" y="206.1090909090909" type="line"/>
      <point x="219.13636363636363" y="256.56363636363636"/>
      <point x="257.8363636363636" y="310.7181818181818"/>
      <point x="257.8363636363636" y="383.1636363636364" type="curve" smooth="yes"/>
      <point x="257.8363636363636" y="447.9636363636364"/>
      <point x="220.7818181818182" y="494.0181818181818"/>
      <point x="161.3818181818182" y="494.0181818181818" type="curve" smooth="yes"/>
      <point x="123.52727272727275" y="494.0181818181818"/>
      <point x="91.55454545454545" y="478.52727272727276"/>
      <point x="71.2090909090909" y="457.3545454545454" type="curve"/>
      <point x="82.75454545454545" y="450.89090909090913" type="line"/>
      <point x="104.65454545454546" y="543.4727272727273"/>
      <point x="151.0818181818182" y="579.4454545454546"/>
      <point x="197.65454545454548" y="579.4454545454546" type="curve" smooth="yes"/>
      <point x="261.67272727272723" y="579.4454545454546"/>
      <point x="320.75454545454545" y="515.3090909090909"/>
      <point x="373.40909090909093" y="365.76363636363635" type="curve"/>
      <point x="366.3454545454545" y="417.8636363636364" type="line"/>
      <point x="366.3454545454545" y="3.0" type="line"/>
    </contour>
  </outline>
</glyph>
<glyph name="gha-beng" format="2">
  <advance width="430.1363636363636"/>
  <unicode hex="0998"/>
  <anchor x="348.3" y="21.363636363636363" name="bottom"/>
  <anchor x="351.6272727272727" y="51.36363636363636" name="bottom.rakaar"/>
  <anchor x="354.55454545454546" y="7.745454545454546" name="bottom.rvocalic"/>
  <anchor x="345.20909090909095" y="13.454545454545455" name="bottom.virama"/>
  <anchor x="352.6454545454545" y="584.5454545454545" name="top"/>
  <anchor x="352.40000000000003" y="584.5454545454545" name="topright"/>
  <anchor x="214.99999999999997" y="0.0" name="vedic"/>
  <outline>
    <contour>
      <point x="350.08181818181816" y="-8.454545454545455" type="line"/>
      <point x="354.55454545454546" y="-7.454545454545455" type="line"/>
      <point x="354.55454545454546" y="584.5454545454545" type="line"/>
      <point x="451.7909090909091" y="584.5454545454545" type="line"/>
      <point x="429.80909090909086" y="622.0" type="line"/>
      <point x="-21.654545454545453" y="622.0" type="line"/>
      <point x="0.3272727272727278" y="584.5454545454545" type="line"/>
      <point x="316.1090909090909" y="584.5454545454545" type="line"/>
      <point x="316.1090909090909" y="62.763636363636365" type="line"/>
      <point x="326.49090909090904" y="62.67272727272727" type="line"/>
      <point x="284.5" y="186.3909090909091"/>
      <point x="186.82727272727274" y="267.42727272727274"/>
      <point x="81.15454545454547" y="306.89090909090913" type="curve"/>
      <point x="84.13636363636364" y="287.77272727272725" type="line"/>
      <point x="146.0090909090909" y="342.0363636363636"/>
      <point x="211.97272727272727" y="381.4"/>
      <point x="267.1909090909091" y="413.9909090909091" type="curve"/>
      <point x="240.95454545454547" y="464.3636363636364" type="line"/>
      <point x="215.7818181818182" y="442.3545454545454"/>
      <point x="189.20000000000002" y="430.59090909090907"/>
      <point x="161.9818181818182" y="430.59090909090907" type="curve" smooth="yes"/>
      <point x="123.92727272727272" y="430.59090909090907"/>
      <point x="89.4090909090909" y="455.40909090909093"/>
      <point x="89.4090909090909" y="502.6181818181818" type="curve" smooth="yes"/>
      <point x="89.4090909090909" y="558.9818181818181"/>
      <point x="133.03636363636366" y="583.6363636363636"/>
      <point x="178.54545454545456" y="591.3636363636364" type="curve"/>
      <point x="130.34545454545454" y="617.9090909090909" type="line"/>
      <point x="82.36363636363636" y="608.3636363636364"/>
      <point x="35.13636363636364" y="575.2545454545455"/>
      <point x="35.13636363636364" y="508.0363636363636" type="curve" smooth="yes"/>
      <point x="35.13636363636364" y="442.59090909090907"/>
      <point x="87.33636363636363" y="402.1090909090909"/>
      <point x="153.3" y="397.6818181818182" type="curve"/>
      <point x="148.2" y="407.77272727272725" type="line"/>
      <point x="107.5090909090909" y="381.9545454545455"/>
      <point x="71.01818181818182" y="355.3818181818182"/>
      <point x="35.418181818181814" y="325.8636363636364" type="curve"/>
      <point x="66.05454545454545" y="255.0" type="line"/>
      <point x="177.53636363636366" y="222.5"/>
      <point x="269.3090909090909" y="143.40909090909093"/>
      <point x="321.7636363636364" y="15.100000000000001" type="curve"/>
    </contour>
  </outline>
</glyph>
<glyph name="nga-beng" format="2">
  <advance width="483.91818181818184"/>
  <unicode hex="0999"/>
  <anchor x="326.27272727272725" y="28.545454545454547" name="bottom"/>
  <anchor x="405.6181818181819" y="-36.36363636363636" name="bottom.rakaar"/>
  <anchor x="338.1363636363636" y="35.90909090909091" name="bottom.rvocalic"/>
  <anchor x="306.7545454545455" y="0.0" name="bottom.virama"/>
  <anchor x="267.90909090909093" y="584.5454545454545" name="top"/>
  <anchor x="260.0181818181818" y="584.5454545454545" name="topright"/>
  <anchor x="241.61818181818182" y="0.0" name="vedic"/>
  <outline>
    <contour>
      <point x="291.7" y="44.18181818181818" type="curve" smooth="yes"/>
      <point x="397.29090909090905" y="44.18181818181818"/>
      <point x="457.3909090909091" y="121.08181818181818"/>
      <point x="457.3909090909091" y="245.4818181818182" type="curve" smooth="yes"/>
      <point x="457.3909090909091" y="323.5181818181818"/>
      <point x="431.7363636363637" y="383.3363636363636"/>
      <point x="398.1090909090909" y="424.79090909090905" type="curve"/>
      <point x="363.8090909090909" y="356.2818181818182"/>
      <point x="308.6" y="295.8727272727273"/>
      <point x="259.08181818181816" y="295.8727272727273" type="curve" smooth="yes"/>
      <point x="238.8272727272727" y="295.8727272727273"/>
      <point x="227.58181818181822" y="308.67272727272723"/>
      <point x="227.58181818181822" y="331.67272727272723" type="curve" smooth="yes"/>
      <point x="227.58181818181822" y="478.4" type="line" smooth="yes"/>
      <point x="227.58181818181822" y="555.1454545454546"/>
      <point x="249.9909090909091" y="593.4545454545455"/>
      <point x="287.72727272727275" y="593.4545454545455" type="curve" smooth="yes"/>
      <point x="316.7363636363637" y="593.4545454545455"/>
      <point x="337.05454545454546" y="571.3636363636364"/>
      <point x="337.05454545454546" y="531.3181818181818" type="curve" smooth="yes"/>
      <point x="337.05454545454546" y="492.8636363636364"/>
      <point x="321.77272727272725" y="458.72727272727275"/>
      <point x="269.6909090909091" y="458.72727272727275" type="curve" smooth="yes"/>
      <point x="190.77272727272725" y="458.72727272727275"/>
      <point x="154.5909090909091" y="512.5363636363636"/>
      <point x="118.06363636363636" y="620.4" type="curve"/>
      <point x="90.07272727272728" y="607.4545454545455" type="line"/>
      <point x="122.3" y="509.2818181818182"/>
      <point x="167.96363636363634" y="415.6363636363636"/>
      <point x="269.3818181818182" y="415.6363636363636" type="curve" smooth="yes"/>
      <point x="349.26363636363635" y="415.6363636363636"/>
      <point x="373.8636363636364" y="474.42727272727274"/>
      <point x="374.02727272727276" y="523.9545454545454" type="curve" smooth="yes"/>
      <point x="374.19090909090914" y="584.7272727272727"/>
      <point x="343.5909090909091" y="632.4545454545455"/>
      <point x="285.92727272727274" y="632.4545454545455" type="curve" smooth="yes"/>
      <point x="223.67272727272726" y="632.4545454545455"/>
      <point x="188.8090909090909" y="579.7272727272726"/>
      <point x="188.8090909090909" y="493.09090909090907" type="curve" smooth="yes"/>
      <point x="188.8090909090909" y="330.6272727272727" type="line" smooth="yes"/>
      <point x="188.8090909090909" y="299.59090909090907"/>
      <point x="200.20909090909092" y="278.26363636363635"/>
      <point x="215.01818181818177" y="264.4636363636364" type="curve" smooth="yes"/>
      <point x="229.60909090909087" y="250.71818181818185"/>
      <point x="248.8818181818182" y="243.4818181818182"/>
      <point x="269.9636363636364" y="243.4818181818182" type="curve" smooth="yes"/>
      <point x="322.54545454545456" y="243.4818181818182"/>
      <point x="378.8181818181818" y="292.7090909090909"/>
      <point x="417.1818181818182" y="358.79090909090905" type="curve"/>
      <point x="394.1181818181818" y="359.0909090909091" type="line"/>
      <point x="409.3" y="336.72727272727275"/>
      <point x="421.7" y="302.23636363636365"/>
      <point x="421.7" y="253.25454545454548" type="curve" smooth="yes"/>
      <point x="421.7" y="153.57272727272726"/>
      <point x="369.57272727272726" y="103.18181818181819"/>
      <point x="290.44545454545454" y="103.18181818181819" type="curve" smooth="yes"/>
      <point x="157.36363636363637" y="103.18181818181819"/>
      <point x="96.00909090909092" y="237.4181818181818"/>
      <point x="47.32727272727273" y="494.8636363636364" type="curve"/>
      <point x="17.88181818181818" y="488.2727272727273" type="line"/>
      <point x="67.42727272727272" y="180.81818181818184"/>
      <point x="146.86363636363637" y="44.18181818181818"/>
    </contour>
  </outline>
</glyph>
<glyph name="ca-beng" format="2">
  <advance width="399.6"/>
  <unicode hex="099A"/>
  <anchor x="257.6181818181818" y="37.72727272727273" name="bottom"/>
  <anchor x="305.04545454545456" y="0.0" name="bottom.rakaar"/>
  <anchor x="252.78181818181818" y="39.63636363636364" name="bottom.rvocalic"/>
  <anchor x="205.36363636363635" y="35.54545454545455" name="bottom.virama"/>
  <anchor x="110.2090909090909" y="584.5454545454545" name="top"/>
  <anchor x="112.12727272727274" y="584.5454545454545" name="topright"/>
  <anchor x="199.60909090909092" y="0.0" name="vedic"/>
  <outline>
    <contour>
      <point x="171.6" y="39.63636363636364" type="curve" smooth="yes"/>
      <point x="281.09090909090907" y="39.63636363636364"/>
      <point x="356.3818181818182" y="215.24545454545452"/>
      <point x="356.10909090909087" y="336.8636363636364" type="curve" smooth="yes"/>
      <point x="356.10909090909087" y="367.6363636363636"/>
      <point x="332.43636363636364" y="389.3636363636364"/>
      <point x="319.3636363636364" y="397.4090909090909" type="curve"/>
      <point x="241.80909090909094" y="407.3636363636363"/>
      <point x="155.21818181818182" y="459.6454545454546"/>
      <point x="108.60909090909091" y="566.0454545454546" type="curve"/>
      <point x="106.3" y="516.8181818181819" type="line"/>
      <point x="141.3909090909091" y="419.7545454545455"/>
      <point x="223.02727272727276" y="357.1181818181818"/>
      <point x="319.7818181818182" y="344.4" type="curve"/>
      <point x="304.8909090909091" y="360.8" type="line"/>
      <point x="303.06363636363636" y="217.58181818181816"/>
      <point x="232.35454545454544" y="85.5"/>
      <point x="164.14545454545456" y="85.5" type="curve" smooth="yes"/>
      <point x="134.31818181818184" y="85.5"/>
      <point x="114.02727272727273" y="106.31818181818183"/>
      <point x="114.02727272727273" y="144.14545454545453" type="curve" smooth="yes"/>
      <point x="114.02727272727273" y="584.5454545454545" type="line"/>
      <point x="421.25454545454545" y="584.5454545454545" type="line"/>
      <point x="398.95454545454544" y="622.0" type="line"/>
      <point x="-21.654545454545453" y="622.0" type="line"/>
      <point x="1.3545454545454554" y="584.5454545454545" type="line"/>
      <point x="75.58181818181819" y="584.5454545454545" type="line"/>
      <point x="75.58181818181819" y="143.69090909090906" type="line" smooth="yes"/>
      <point x="75.58181818181819" y="79.7909090909091"/>
      <point x="116.98181818181817" y="39.63636363636364"/>
    </contour>
  </outline>
</glyph>
<glyph name="cha-beng" format="2">
  <advance width="434.08181818181816"/>
  <unicode hex="099B"/>
  <anchor x="255.14545454545453" y="77.27272727272727" name="bottom"/>
  <anchor x="353.99090909090904" y="-98.9090909090909" name="bottom.rakaar"/>
  <anchor x="301.55454545454546" y="74.86363636363637" name="bottom.rvocalic"/>
  <anchor x="240.05454545454546" y="68.72727272727272" name="bottom.virama"/>
  <anchor x="94.64545454545456" y="584.5454545454545" name="top"/>
  <anchor x="96.56363636363638" y="584.5454545454545" name="topright"/>
  <anchor x="216.8909090909091" y="0.0" name="vedic"/>
  <outline>
    <contour>
      <point x="411.1181818181819" y="-62.13636363636363" type="curve"/>
      <point x="431.6454545454546" y="-38.22727272727273" type="line"/>
      <point x="369.4818181818182" y="39.93636363636363"/>
      <point x="276.3454545454546" y="139.54545454545453"/>
      <point x="167.66363636363639" y="176.75454545454548" type="curve"/>
      <point x="152.87272727272727" y="160.4909090909091" type="line"/>
      <point x="171.86363636363635" y="154.8272727272727"/>
      <point x="190.04545454545453" y="153.55454545454546"/>
      <point x="210.51818181818183" y="153.55454545454546" type="curve" smooth="yes"/>
      <point x="303.8" y="153.55454545454546"/>
      <point x="379.6454545454545" y="214.35454545454547"/>
      <point x="379.6454545454545" y="334.7181818181818" type="curve" smooth="yes"/>
      <point x="379.6454545454545" y="436.9272727272727"/>
      <point x="318.1181818181818" y="499.76363636363635"/>
      <point x="234.6727272727273" y="499.76363636363635" type="curve" smooth="yes"/>
      <point x="170.27272727272725" y="499.76363636363635"/>
      <point x="122.92727272727272" y="522.3636363636364"/>
      <point x="95.14545454545456" y="584.5454545454545" type="curve"/>
      <point x="91.41818181818182" y="553.2727272727273" type="line"/>
      <point x="114.86363636363636" y="491.6363636363636"/>
      <point x="164.16363636363639" y="454.5181818181818"/>
      <point x="229.5818181818182" y="452.6" type="curve"/>
      <point x="213.97272727272724" y="475.90909090909093" type="line"/>
      <point x="212.79090909090908" y="379.6363636363636"/>
      <point x="177.3181818181818" y="310.12727272727267"/>
      <point x="135.35454545454547" y="310.12727272727267" type="curve" smooth="yes"/>
      <point x="112.2090909090909" y="310.12727272727267"/>
      <point x="99.9909090909091" y="326.1272727272727"/>
      <point x="99.9909090909091" y="353.45454545454544" type="curve" smooth="yes"/>
      <point x="99.9909090909091" y="584.5454545454545" type="line"/>
      <point x="455.7363636363636" y="584.5454545454545" type="line"/>
      <point x="433.3727272727273" y="622.0" type="line"/>
      <point x="-21.654545454545453" y="622.0" type="line"/>
      <point x="0.3272727272727278" y="584.5454545454545" type="line"/>
      <point x="61.54545454545454" y="584.5454545454545" type="line"/>
      <point x="61.54545454545454" y="353.3818181818182" type="line" smooth="yes"/>
      <point x="61.54545454545454" y="302.8727272727273"/>
      <point x="94.80909090909091" y="264.45454545454544"/>
      <point x="143.03636363636366" y="264.45454545454544" type="curve" smooth="yes"/>
      <point x="206.03636363636366" y="264.45454545454544"/>
      <point x="260.2545454545455" y="335.76363636363635"/>
      <point x="269.5818181818182" y="479.72727272727275" type="curve"/>
      <point x="247.1909090909091" y="460.45454545454544" type="line"/>
      <point x="292.99090909090904" y="457.8"/>
      <point x="338.93636363636364" y="429.5"/>
      <point x="338.93636363636364" y="344.1545454545454" type="curve" smooth="yes"/>
      <point x="338.93636363636364" y="249.76363636363638"/>
      <point x="280.6545454545455" y="204.3090909090909"/>
      <point x="193.0090909090909" y="204.3090909090909" type="curve" smooth="yes"/>
      <point x="146.6909090909091" y="204.3090909090909"/>
      <point x="111.04545454545455" y="213.13636363636363"/>
      <point x="80.86363636363636" y="229.0090909090909" type="curve"/>
      <point x="98.22727272727273" y="152.6090909090909" type="line"/>
      <point x="222.4090909090909" y="122.9909090909091"/>
      <point x="315.3181818181818" y="48.25454545454545"/>
    </contour>
  </outline>
</glyph>
<glyph name="ja-beng" format="2">
  <advance width="631.3272727272728"/>
  <unicode hex="099C"/>
  <anchor x="545.3454545454546" y="87.72727272727273" name="bottom"/>
  <anchor x="558.7" y="76.86363636363636" name="bottom.rakaar"/>
  <anchor x="558.3272727272728" y="19.5" name="bottom.rvocalic"/>
  <anchor x="547.5454545454545" y="6.863636363636363" name="bottom.virama"/>
  <anchor x="345.2454545454545" y="584.5454545454545" name="top"/>
  <anchor x="347.48181818181814" y="584.5454545454545" name="topright"/>
  <anchor x="315.58181818181816" y="0.0" name="vedic"/>
  <outline>
    <contour>
      <point x="278.2545454545455" y="67.45454545454545" type="curve" smooth="yes"/>
      <point x="380.04545454545456" y="67.45454545454545"/>
      <point x="427.9636363636364" y="144.4909090909091"/>
      <point x="427.9636363636364" y="249.27272727272728" type="curve" smooth="yes"/>
      <point x="427.9636363636364" y="314.19090909090914"/>
      <point x="410.5" y="370.72727272727275"/>
      <point x="366.80909090909097" y="421.1636363636364" type="curve"/>
      <point x="334.8272727272727" y="353.74545454545455"/>
      <point x="298.1909090909091" y="322.23636363636365"/>
      <point x="258.7727272727273" y="322.23636363636365" type="curve" smooth="yes"/>
      <point x="223.86363636363635" y="322.23636363636365"/>
      <point x="199.66363636363636" y="348.93636363636364"/>
      <point x="199.66363636363636" y="396.6636363636364" type="curve" smooth="yes"/>
      <point x="199.66363636363636" y="482.39090909090913"/>
      <point x="281.8" y="550.5454545454546"/>
      <point x="359.1" y="584.5454545454545" type="curve"/>
      <point x="652.9818181818181" y="584.5454545454545" type="line"/>
      <point x="631.1363636363637" y="622.0" type="line"/>
      <point x="-21.654545454545453" y="622.0" type="line"/>
      <point x="0.3272727272727278" y="584.5454545454545" type="line"/>
      <point x="295.0" y="584.5454545454545" type="line"/>
      <point x="283.98181818181814" y="596.2727272727273" type="line"/>
      <point x="222.2363636363636" y="563.0272727272727"/>
      <point x="157.4909090909091" y="492.76363636363635"/>
      <point x="157.4909090909091" y="406.1181818181818" type="curve" smooth="yes"/>
      <point x="157.4909090909091" y="322.4363636363637"/>
      <point x="206.4363636363636" y="269.8"/>
      <point x="266.2181818181818" y="269.8" type="curve" smooth="yes"/>
      <point x="322.73636363636365" y="269.8"/>
      <point x="365.5181818181818" y="315.6363636363636"/>
      <point x="392.8181818181818" y="366.8181818181818" type="curve"/>
      <point x="365.40000000000003" y="362.8363636363636" type="line"/>
      <point x="382.4090909090909" y="335.2"/>
      <point x="393.6909090909091" y="306.06363636363636"/>
      <point x="393.6909090909091" y="258.8363636363636" type="curve" smooth="yes"/>
      <point x="393.6909090909091" y="175.8"/>
      <point x="352.3727272727273" y="125.86363636363637"/>
      <point x="276.4454545454546" y="125.86363636363637" type="curve" smooth="yes"/>
      <point x="160.45454545454544" y="125.86363636363637"/>
      <point x="89.89090909090909" y="249.37272727272727"/>
      <point x="54.845454545454544" y="492.7090909090909" type="curve"/>
      <point x="24.772727272727273" y="486.8181818181818" type="line"/>
      <point x="64.16363636363636" y="186.12727272727273"/>
      <point x="152.04545454545456" y="67.45454545454545"/>
    </contour>
    <contour>
      <point x="529.3909090909092" y="2.427272727272726" type="curve"/>
      <point x="558.3272727272728" y="13.136363636363637" type="line"/>
      <point x="540.9545454545455" y="75.01818181818182"/>
      <point x="529.1181818181818" y="134.99999999999997"/>
      <point x="529.1181818181818" y="211.1090909090909" type="curve" smooth="yes"/>
      <point x="529.1181818181818" y="302.0090909090909"/>
      <point x="549.3454545454546" y="371.5090909090909"/>
      <point x="586.5818181818181" y="422.8181818181818" type="curve"/>
      <point x="557.0909090909091" y="471.72727272727275" type="line"/>
      <point x="464.6454545454546" y="475.72727272727275"/>
      <point x="407.4" y="506.8181818181818"/>
      <point x="366.33636363636367" y="607.0545454545455" type="curve"/>
      <point x="339.43636363636364" y="582.9090909090909" type="line"/>
      <point x="383.1272727272728" y="473.5"/>
      <point x="458.91818181818184" y="429.17272727272723"/>
      <point x="537.7" y="419.49090909090904" type="curve"/>
      <point x="530.5363636363636" y="438.4545454545455" type="line"/>
      <point x="506.98181818181814" y="390.2090909090909"/>
      <point x="489.4454545454545" y="317.8545454545454"/>
      <point x="489.4454545454545" y="233.86363636363637" type="curve" smooth="yes"/>
      <point x="489.4454545454545" y="150.23636363636362"/>
      <point x="504.9181818181818" y="76.82727272727271"/>
    </contour>
  </outline>
</glyph>
<glyph name="jha-beng" format="2">
  <advance width="547.3090909090909"/>
  <unicode hex="099D"/>
  <anchor x="345.8454545454546" y="21.363636363636363" name="bottom"/>
  <anchor x="349.17272727272723" y="51.36363636363636" name="bottom.rakaar"/>
  <anchor x="352.1" y="7.745454545454546" name="bottom.rvocalic"/>
  <anchor x="342.75454545454545" y="13.454545454545455" name="bottom.virama"/>
  <anchor x="346.91818181818184" y="584.5454545454545" name="top"/>
  <anchor x="393.43636363636364" y="584.5454545454545" name="topleft"/>
  <anchor x="346.6727272727273" y="584.5454545454545" name="topright"/>
  <anchor x="273.4272727272727" y="0.0" name="vedic"/>
  <outline>
    <contour>
      <point x="347.6272727272728" y="-8.454545454545455" type="line"/>
      <point x="352.1" y="-7.454545454545455" type="line"/>
      <point x="352.1" y="622.0" type="line"/>
      <point x="-21.654545454545453" y="622.0" type="line"/>
      <point x="0.3272727272727278" y="584.5454545454545" type="line"/>
      <point x="313.6545454545454" y="584.5454545454545" type="line"/>
      <point x="313.6545454545454" y="501.0181818181818" type="line"/>
      <point x="320.5181818181818" y="518.4272727272728" type="line"/>
      <point x="217.5727272727273" y="474.6090909090909"/>
      <point x="122.14545454545454" y="413.6818181818182"/>
      <point x="28.954545454545453" y="338.9818181818182" type="curve"/>
      <point x="63.599999999999994" y="266.59090909090907" type="line"/>
      <point x="175.73636363636365" y="228.5181818181818"/>
      <point x="266.41818181818184" y="142.5909090909091"/>
      <point x="319.3090909090909" y="15.100000000000001" type="curve"/>
    </contour>
    <contour>
      <point x="313.6545454545454" y="62.763636363636365" type="line"/>
      <point x="324.03636363636366" y="62.67272727272727" type="line"/>
      <point x="279.40000000000003" y="190.5909090909091"/>
      <point x="175.04545454545456" y="279.3090909090909"/>
      <point x="78.7" y="318.4818181818182" type="curve"/>
      <point x="82.31818181818183" y="304.3909090909091" type="line"/>
      <point x="158.17272727272726" y="372.4818181818182"/>
      <point x="251.3727272727273" y="424.76363636363635"/>
      <point x="321.35454545454553" y="455.5" type="curve"/>
      <point x="313.6545454545454" y="472.1636363636364" type="line"/>
    </contour>
    <contour>
      <point x="467.5818181818182" y="91.46363636363635" type="line"/>
      <point x="471.7272727272728" y="92.46363636363635" type="line"/>
      <point x="471.7272727272728" y="584.5454545454545" type="line"/>
      <point x="568.9636363636364" y="584.5454545454545" type="line"/>
      <point x="546.8181818181819" y="622.0" type="line"/>
      <point x="470.5818181818182" y="622.0" type="line"/>
      <point x="466.97272727272724" y="663.1818181818181" type="line"/>
      <point x="436.96363636363634" y="687.0909090909091" type="line"/>
      <point x="433.28181818181815" y="686.0909090909091" type="line"/>
      <point x="433.28181818181815" y="162.6818181818182" type="line"/>
      <point x="443.6636363636364" y="162.5909090909091" type="line"/>
      <point x="420.4636363636364" y="230.27272727272728"/>
      <point x="381.24545454545455" y="287.6"/>
      <point x="335.4090909090909" y="330.5363636363636" type="curve"/>
      <point x="331.5272727272727" y="275.92727272727274" type="line"/>
      <point x="376.2454545454545" y="235.46363636363637"/>
      <point x="412.0" y="180.22727272727275"/>
      <point x="438.93636363636364" y="115.01818181818182" type="curve"/>
    </contour>
  </outline>
</glyph>
<glyph name="nya-beng" format="2">
  <advance width="746.9363636363636"/>
  <unicode hex="099E"/>
  <anchor x="454.53636363636366" y="19.545454545454547" name="bottom"/>
  <anchor x="487.4818181818182" y="49.54545454545455" name="bottom.rakaar"/>
  <anchor x="460.7909090909091" y="5.272727272727273" name="bottom.rvocalic"/>
  <anchor x="451.4454545454545" y="11.636363636363637" name="bottom.virama"/>
  <anchor x="395.7818181818182" y="584.5454545454545" name="top"/>
  <anchor x="400.9454545454546" y="584.5454545454545" name="topright"/>
  <anchor x="373.4" y="0.0" name="vedic"/>
  <outline>
    <contour>
      <point x="591.2636363636364" y="70.75454545454545" type="curve" smooth="yes"/>
      <point x="655.1454545454546" y="70.75454545454545"/>
      <point x="689.2090909090908" y="130.34545454545454"/>
      <point x="689.2090909090908" y="210.66363636363636" type="curve" smooth="yes"/>
      <point x="689.2090909090908" y="267.7818181818182"/>
      <point x="668.7181818181817" y="314.8454545454546"/>
      <point x="638.3363636363637" y="345.1181818181818" type="curve"/>
      <point x="644.5363636363636" y="317.7545454545455" type="line"/>
      <point x="668.0272727272728" y="347.7727272727273"/>
      <point x="687.0181818181819" y="398.90909090909093"/>
      <point x="687.0181818181819" y="460.4818181818182" type="curve" smooth="yes"/>
      <point x="687.0181818181819" y="533.1"/>
      <point x="654.3727272727273" y="594.5727272727272"/>
      <point x="597.1363636363637" y="594.5727272727272" type="curve" smooth="yes"/>
      <point x="513.4818181818182" y="594.5727272727272"/>
      <point x="452.26363636363635" y="450.39090909090913"/>
      <point x="445.6636363636364" y="377.5727272727273" type="curve"/>
      <point x="445.6636363636364" y="288.7545454545455" type="line"/>
      <point x="458.4090909090909" y="176.11818181818182"/>
      <point x="518.5363636363636" y="70.75454545454545"/>
    </contour>
    <contour>
      <point x="588.7727272727274" y="126.75454545454545" type="curve" smooth="yes"/>
      <point x="522.7727272727273" y="126.75454545454545"/>
      <point x="467.17272727272723" y="233.8181818181818"/>
      <point x="467.17272727272723" y="327.39090909090913" type="curve" smooth="yes"/>
      <point x="467.17272727272723" y="405.9818181818182"/>
      <point x="521.2909090909092" y="540.7545454545455"/>
      <point x="595.5454545454545" y="540.7545454545455" type="curve" smooth="yes"/>
      <point x="630.6545454545455" y="540.7545454545455"/>
      <point x="651.6363636363636" y="512.6636363636363"/>
      <point x="651.6363636363636" y="469.4818181818182" type="curve" smooth="yes"/>
      <point x="651.6363636363636" y="415.6363636363637"/>
      <point x="629.8090909090909" y="375.1181818181818"/>
      <point x="598.1545454545454" y="354.4818181818182" type="curve"/>
      <point x="629.2545454545453" y="348.9363636363637" type="line"/>
      <point x="612.8636363636364" y="375.4818181818182"/>
      <point x="592.6818181818181" y="382.5727272727273"/>
      <point x="574.2272727272727" y="382.5727272727273" type="curve" smooth="yes"/>
      <point x="545.8909090909091" y="382.5727272727273"/>
      <point x="525.609090909091" y="362.19090909090914"/>
      <point x="525.609090909091" y="328.9363636363637" type="curve" smooth="yes"/>
      <point x="525.609090909091" y="292.6636363636364"/>
      <point x="547.2272727272727" y="274.1181818181818"/>
      <point x="576.4818181818183" y="274.1181818181818" type="curve" smooth="yes"/>
      <point x="602.4818181818183" y="274.1181818181818"/>
      <point x="621.7363636363636" y="287.6181818181819"/>
      <point x="638.7090909090908" y="312.3" type="curve"/>
      <point x="614.2363636363636" y="322.5727272727273" type="line"/>
      <point x="634.8181818181818" y="303.7545454545455"/>
      <point x="656.4454545454546" y="272.52727272727276"/>
      <point x="656.4454545454546" y="220.3" type="curve" smooth="yes"/>
      <point x="656.4454545454546" y="160.3"/>
      <point x="631.5" y="126.75454545454545"/>
    </contour>
    <component base="e-beng"/>
  </outline>
</glyph>
<glyph name="tta-beng" format="2">
  <advance width="407.03636363636366"/>
  <unicode hex="099F"/>
  <anchor x="261.43636363636364" y="44.22727272727273" name="bottom"/>
  <anchor x="308.8636363636364" y="7.181818181818181" name="bottom.rakaar"/>
  <anchor x="257.0909090909091" y="48.290909090909096" name="bottom.rvocalic"/>
  <anchor x="209.1818181818182" y="42.72727272727273" name="bottom.virama"/>
  <anchor x="210.4818181818182" y="643.8272727272728" name="top"/>
  <anchor x="164.0909090909091" y="649.0909090909091" name="topright"/>
  <anchor x="203.43636363636364" y="0.0" name="vedic"/>
  <anchor x="179.20909090909092" y="-53.81818181818182" name="nukta"/>
  <outline>
    <contour>
      <point x="307.6727272727273" y="614.7272727272727" type="curve"/>
      <point x="338.7818181818182" y="614.7272727272727" type="line"/>
      <point x="334.3363636363636" y="732.3818181818182"/>
      <point x="301.8818181818182" y="786.0272727272727"/>
      <point x="229.16363636363639" y="786.0272727272727" type="curve" smooth="yes"/>
      <point x="188.64545454545456" y="786.0272727272727"/>
      <point x="159.11818181818182" y="775.5272727272727"/>
      <point x="115.87272727272726" y="775.5272727272727" type="curve" smooth="yes"/>
      <point x="61.490909090909106" y="775.5272727272727"/>
      <point x="35.95454545454546" y="797.5"/>
      <point x="35.95454545454546" y="868.2545454545455" type="curve" smooth="yes"/>
      <point x="35.95454545454546" y="880.5636363636364"/>
      <point x="36.95454545454546" y="895.3363636363637"/>
      <point x="38.472727272727276" y="905.8" type="curve"/>
      <point x="9.836363636363636" y="908.8909090909091" type="line"/>
      <point x="7.772727272727273" y="893.3"/>
      <point x="6.472727272727273" y="873.4636363636364"/>
      <point x="6.472727272727273" y="858.4545454545455" type="curve" smooth="yes"/>
      <point x="6.472727272727273" y="765.9545454545455"/>
      <point x="42.790909090909096" y="721.8545454545455"/>
      <point x="116.52727272727273" y="721.8545454545455" type="curve" smooth="yes"/>
      <point x="166.7" y="721.8545454545455"/>
      <point x="192.0090909090909" y="732.9"/>
      <point x="235.20909090909092" y="732.9" type="curve" smooth="yes"/>
      <point x="285.9272727272727" y="732.9"/>
      <point x="305.07272727272726" y="691.8727272727273"/>
    </contour>
    <component base="ddha-beng"/>
  </outline>
</glyph>
<glyph name="ttha-beng" format="2">
  <advance width="431.62727272727267"/>
  <unicode hex="09A0"/>
  <anchor x="255.06363636363633" y="2.2727272727272725" name="bottom"/>
  <anchor x="358.5909090909091" y="-29.272727272727273" name="bottom.rakaar"/>
  <anchor x="285.4454545454546" y="10.0" name="bottom.rvocalic"/>
  <anchor x="258.0090909090909" y="0.0" name="bottom.virama"/>
  <anchor x="338.45454545454544" y="553.9454545454545" name="top"/>
  <anchor x="342.5909090909091" y="615.8545454545455" name="topleft"/>
  <anchor x="247.26363636363635" y="584.5454545454545" name="topright"/>
  <anchor x="215.47272727272727" y="0.0" name="vedic"/>
  <outline>
    <contour>
      <point x="220.62727272727275" y="12.272727272727273" type="curve" smooth="yes"/>
      <point x="318.56363636363636" y="12.272727272727273"/>
      <point x="379.1454545454546" y="88.72727272727273"/>
      <point x="379.1454545454546" y="213.85454545454544" type="curve" smooth="yes"/>
      <point x="379.1454545454546" y="337.6545454545454"/>
      <point x="320.3181818181818" y="457.6363636363636"/>
      <point x="231.87272727272727" y="584.5454545454545" type="curve"/>
      <point x="453.2818181818182" y="584.5454545454545" type="line"/>
      <point x="431.98181818181814" y="622.0" type="line"/>
      <point x="197.71818181818182" y="622.0" type="line"/>
      <point x="168.9" y="664.0909090909091"/>
      <point x="141.4818181818182" y="711.409090909091"/>
      <point x="141.4818181818182" y="759.8" type="curve" smooth="yes"/>
      <point x="141.4818181818182" y="799.0"/>
      <point x="160.28181818181818" y="828.6363636363636"/>
      <point x="199.86363636363635" y="858.4545454545455" type="curve"/>
      <point x="161.8181818181818" y="901.4545454545455" type="line"/>
      <point x="116.60909090909092" y="867.0"/>
      <point x="95.82727272727271" y="828.7090909090908"/>
      <point x="95.82727272727271" y="780.6363636363636" type="curve" smooth="yes"/>
      <point x="95.82727272727271" y="722.3727272727274"/>
      <point x="126.16363636363639" y="672.8181818181819"/>
      <point x="159.5090909090909" y="622.0" type="curve"/>
      <point x="-21.654545454545453" y="622.0" type="line"/>
      <point x="0.3272727272727278" y="584.5454545454545" type="line"/>
      <point x="174.54545454545453" y="584.5454545454545" type="line"/>
      <point x="188.3272727272727" y="552.2727272727273"/>
      <point x="196.0909090909091" y="500.6727272727273"/>
      <point x="196.0909090909091" y="457.95454545454544" type="curve" smooth="yes"/>
      <point x="196.0909090909091" y="346.3363636363636"/>
      <point x="154.5727272727273" y="272.2727272727273"/>
      <point x="33.590909090909086" y="241.0" type="curve"/>
      <point x="53.590909090909086" y="84.56363636363638"/>
      <point x="123.61818181818184" y="12.272727272727273"/>
    </contour>
    <contour>
      <point x="215.0090909090909" y="56.93636363636363" type="curve" smooth="yes"/>
      <point x="143.1818181818182" y="56.93636363636363"/>
      <point x="96.01818181818183" y="124.2909090909091"/>
      <point x="90.11818181818181" y="216.8181818181818" type="curve"/>
      <point x="80.11818181818181" y="191.45454545454544" type="line"/>
      <point x="181.88181818181818" y="221.36363636363635"/>
      <point x="234.6" y="296.59090909090907"/>
      <point x="234.6" y="413.8636363636364" type="curve" smooth="yes"/>
      <point x="234.6" y="483.5727272727273"/>
      <point x="219.47272727272727" y="542.0909090909091"/>
      <point x="198.6727272727273" y="595.4545454545455" type="curve"/>
      <point x="193.51818181818183" y="593.6363636363636" type="line"/>
      <point x="273.3090909090909" y="470.8181818181818"/>
      <point x="328.3818181818182" y="354.42727272727274"/>
      <point x="328.3818181818182" y="225.76363636363635" type="curve" smooth="yes"/>
      <point x="328.3818181818182" y="108.86363636363637"/>
      <point x="277.51818181818186" y="56.93636363636363"/>
    </contour>
  </outline>
</glyph>
<glyph name="dda-beng" format="2">
  <advance width="497.10909090909087"/>
  <unicode hex="09A1"/>
  <anchor x="332.59090909090907" y="48.09090909090909" name="bottom"/>
  <anchor x="409.6636363636364" y="-15.09090909090909" name="bottom.rakaar"/>
  <anchor x="341.9818181818182" y="64.27272727272728" name="bottom.rvocalic"/>
  <anchor x="309.52727272727276" y="21.272727272727273" name="bottom.virama"/>
  <anchor x="264.0" y="-39.27272727272727" name="nukta"/>
  <anchor x="232.4090909090909" y="584.5454545454545" name="top"/>
  <anchor x="234.70909090909092" y="584.5454545454545" name="topright"/>
  <anchor x="248.36363636363635" y="0.0" name="vedic"/>
  <outline>
    <contour>
      <point x="292.54545454545456" y="65.45454545454545" type="curve" smooth="yes"/>
      <point x="403.54545454545456" y="65.45454545454545"/>
      <point x="462.3636363636363" y="149.0181818181818"/>
      <point x="462.3636363636363" y="270.04545454545456" type="curve" smooth="yes"/>
      <point x="462.3636363636363" y="359.1181818181818"/>
      <point x="431.54545454545456" y="419.3272727272727"/>
      <point x="392.4636363636364" y="458.4909090909091" type="curve"/>
      <point x="360.87272727272733" y="394.00909090909096"/>
      <point x="310.95454545454544" y="339.07272727272726"/>
      <point x="267.90909090909093" y="339.07272727272726" type="curve" smooth="yes"/>
      <point x="247.2818181818182" y="339.07272727272726"/>
      <point x="236.22727272727272" y="352.3909090909091"/>
      <point x="236.22727272727272" y="374.75454545454545" type="curve" smooth="yes"/>
      <point x="236.22727272727272" y="584.5454545454545" type="line"/>
      <point x="518.7636363636364" y="584.5454545454545" type="line"/>
      <point x="496.0818181818182" y="622.0" type="line"/>
      <point x="-21.654545454545453" y="622.0" type="line"/>
      <point x="0.3272727272727278" y="584.5454545454545" type="line"/>
      <point x="197.78181818181818" y="584.5454545454545" type="line"/>
      <point x="197.78181818181818" y="373.6181818181819" type="line" smooth="yes"/>
      <point x="197.78181818181818" y="342.58181818181816"/>
      <point x="207.04545454545453" y="321.8909090909091"/>
      <point x="223.76363636363635" y="307.27272727272725" type="curve" smooth="yes"/>
      <point x="238.74545454545455" y="293.90909090909093"/>
      <point x="256.6636363636364" y="287.3636363636364"/>
      <point x="277.42727272727274" y="287.3636363636364" type="curve" smooth="yes"/>
      <point x="326.54545454545456" y="287.3636363636364"/>
      <point x="379.8" y="330.3909090909091"/>
      <point x="419.3090909090909" y="400.9818181818182" type="curve"/>
      <point x="391.0272727272727" y="390.7727272727273" type="line"/>
      <point x="410.6363636363636" y="371.1363636363636"/>
      <point x="426.3181818181818" y="338.6181818181818"/>
      <point x="426.3181818181818" y="282.7454545454545" type="curve" smooth="yes"/>
      <point x="426.3181818181818" y="181.15454545454546"/>
      <point x="373.6909090909091" y="124.3"/>
      <point x="292.6636363636364" y="124.3" type="curve" smooth="yes"/>
      <point x="160.84545454545454" y="124.3"/>
      <point x="97.2909090909091" y="247.23636363636365"/>
      <point x="54.327272727272735" y="496.54545454545456" type="curve"/>
      <point x="24.17272727272727" y="490.8181818181818" type="line"/>
      <point x="66.72727272727273" y="198.20909090909092"/>
      <point x="150.25454545454548" y="65.45454545454545"/>
    </contour>
  </outline>
</glyph>
<glyph name="ddha-beng" format="2">
  <advance width="407.03636363636366"/>
  <unicode hex="09A2"/>
  <anchor x="263.25454545454545" y="44.09090909090909" name="bottom"/>
  <anchor x="311.0909090909091" y="7.181818181818181" name="bottom.rakaar"/>
  <anchor x="258.9909090909091" y="47.96363636363637" name="bottom.rvocalic"/>
  <anchor x="211.4090909090909" y="42.72727272727273" name="bottom.virama"/>
  <anchor x="179.20909090909092" y="-53.81818181818182" name="nukta"/>
  <anchor x="116.25454545454545" y="584.5454545454545" name="top"/>
  <anchor x="118.17272727272729" y="584.5454545454545" name="topright"/>
  <anchor x="203.43636363636364" y="0.0" name="vedic"/>
  <outline>
    <contour>
      <point x="171.63636363636363" y="46.81818181818182" type="curve" smooth="yes"/>
      <point x="279.0909090909091" y="46.81818181818182"/>
      <point x="363.6454545454545" y="214.77272727272728"/>
      <point x="363.6454545454545" y="343.3636363636364" type="curve" smooth="yes"/>
      <point x="363.6454545454545" y="411.3272727272727"/>
      <point x="331.82727272727277" y="444.27272727272725"/>
      <point x="291.10909090909087" y="444.27272727272725" type="curve" smooth="yes"/>
      <point x="248.31818181818184" y="444.27272727272725"/>
      <point x="226.02727272727273" y="411.06363636363636"/>
      <point x="226.02727272727273" y="375.56363636363636" type="curve" smooth="yes"/>
      <point x="226.02727272727273" y="337.4"/>
      <point x="249.30909090909094" y="309.54545454545456"/>
      <point x="287.04545454545456" y="309.54545454545456" type="curve" smooth="yes"/>
      <point x="307.4545454545455" y="309.54545454545456"/>
      <point x="320.6090909090909" y="320.3454545454546"/>
      <point x="329.9818181818182" y="338.4545454545455" type="curve"/>
      <point x="312.3545454545454" y="353.72727272727275" type="line"/>
      <point x="309.1" y="223.4181818181818"/>
      <point x="236.8181818181818" y="92.51818181818183"/>
      <point x="164.43636363636364" y="92.51818181818183" type="curve" smooth="yes"/>
      <point x="132.44545454545454" y="92.51818181818183"/>
      <point x="114.02727272727273" y="114.59090909090908"/>
      <point x="114.02727272727273" y="153.11818181818182" type="curve" smooth="yes"/>
      <point x="114.02727272727273" y="584.5454545454545" type="line"/>
      <point x="428.6909090909091" y="584.5454545454545" type="line"/>
      <point x="406.70909090909095" y="622.0" type="line"/>
      <point x="-21.654545454545453" y="622.0" type="line"/>
      <point x="1.3545454545454554" y="584.5454545454545" type="line"/>
      <point x="75.58181818181819" y="584.5454545454545" type="line"/>
      <point x="75.58181818181819" y="151.25454545454545" type="line" smooth="yes"/>
      <point x="75.58181818181819" y="85.89090909090908"/>
      <point x="117.27272727272728" y="46.81818181818182"/>
    </contour>
  </outline>
</glyph>
<glyph name="nna-beng" format="2">
  <advance width="457.53636363636355"/>
  <unicode hex="09A3"/>
  <anchor x="369.24545454545455" y="57.81818181818181" name="bottom"/>
  <anchor x="381.3181818181818" y="-9.363636363636363" name="bottom.rakaar"/>
  <anchor x="381.95454545454544" y="-2.0454545454545454" name="bottom.rvocalic"/>
  <anchor x="368.5181818181818" y="5.545454545454546" name="bottom.virama"/>
  <anchor x="377.75454545454545" y="553.1818181818181" name="top"/>
  <anchor x="369.3909090909091" y="558.409090909091" name="topright"/>
  <anchor x="228.33636363636361" y="0.0" name="vedic"/>
  <outline>
    <contour>
      <point x="378.5727272727273" y="-18.18181818181818" type="line"/>
      <point x="381.95454545454544" y="-17.18181818181818" type="line"/>
      <point x="381.95454545454544" y="584.5454545454545" type="line"/>
      <point x="479.1909090909091" y="584.5454545454545" type="line"/>
      <point x="457.0454545454545" y="622.0" type="line"/>
      <point x="380.8090909090909" y="622.0" type="line"/>
      <point x="377.2" y="663.1818181818181" type="line"/>
      <point x="347.1909090909091" y="687.0909090909091" type="line"/>
      <point x="343.5090909090909" y="686.0909090909091" type="line"/>
      <point x="343.5090909090909" y="545.2272727272727" type="line" smooth="yes"/>
      <point x="343.5090909090909" y="496.5363636363636"/>
      <point x="344.90000000000003" y="450.41818181818184"/>
      <point x="348.1818181818182" y="405.76363636363635" type="curve"/>
      <point x="354.2090909090909" y="407.47272727272724" type="line"/>
      <point x="295.6545454545455" y="575.1090909090909"/>
      <point x="236.37272727272727" y="627.0"/>
      <point x="164.86363636363637" y="627.0" type="curve" smooth="yes"/>
      <point x="91.9909090909091" y="627.0"/>
      <point x="37.38181818181819" y="566.3818181818183"/>
      <point x="37.38181818181819" y="468.8" type="curve" smooth="yes"/>
      <point x="37.38181818181819" y="364.55454545454546"/>
      <point x="99.51818181818182" y="301.9090909090909"/>
      <point x="169.0181818181818" y="301.9090909090909" type="curve" smooth="yes"/>
      <point x="214.77272727272728" y="301.9090909090909"/>
      <point x="241.22727272727272" y="330.0"/>
      <point x="241.22727272727272" y="372.0" type="curve" smooth="yes"/>
      <point x="241.22727272727272" y="409.9545454545455"/>
      <point x="218.32727272727274" y="437.6818181818182"/>
      <point x="182.6727272727273" y="437.6818181818182" type="curve" smooth="yes"/>
      <point x="150.20000000000002" y="437.6818181818182"/>
      <point x="127.44545454545455" y="412.92727272727274"/>
      <point x="127.44545454545455" y="377.74545454545455" type="curve" smooth="yes"/>
      <point x="127.44545454545455" y="361.1818181818182"/>
      <point x="133.71818181818182" y="345.09090909090907"/>
      <point x="141.6090909090909" y="337.6090909090909" type="curve"/>
      <point x="166.87272727272727" y="356.72727272727275" type="line"/>
      <point x="159.25454545454548" y="354.72727272727275"/>
      <point x="151.85454545454547" y="354.1818181818182"/>
      <point x="144.75454545454548" y="354.1818181818182" type="curve" smooth="yes"/>
      <point x="109.48181818181818" y="354.1818181818182"/>
      <point x="76.2090909090909" y="393.4636363636364"/>
      <point x="76.2090909090909" y="457.44545454545454" type="curve" smooth="yes"/>
      <point x="76.2090909090909" y="528.8909090909091"/>
      <point x="118.16363636363636" y="568.5181818181818"/>
      <point x="172.8" y="568.5181818181818" type="curve" smooth="yes"/>
      <point x="242.04545454545453" y="568.5181818181818"/>
      <point x="292.5181818181818" y="514.4818181818181"/>
      <point x="349.1818181818182" y="347.7090909090909" type="curve"/>
      <point x="343.5090909090909" y="392.60909090909087" type="line"/>
      <point x="343.5090909090909" y="3.0" type="line"/>
    </contour>
  </outline>
</glyph>
<glyph name="ta-beng" format="2">
  <advance width="505.19090909090914"/>
  <unicode hex="09A4"/>
  <anchor x="350.9090909090909" y="56.45454545454545" name="bottom"/>
  <anchor x="420.7181818181818" y="-7.636363636363637" name="bottom.rakaar"/>
  <anchor x="359.2454545454545" y="72.27272727272728" name="bottom.rvocalic"/>
  <anchor x="320.26363636363635" y="28.727272727272727" name="bottom.virama"/>
  <anchor x="302.8363636363636" y="584.5454545454545" name="top"/>
  <anchor x="305.1363636363636" y="584.5454545454545" name="topright"/>
  <anchor x="252.43636363636367" y="0.0" name="vedic"/>
  <outline>
    <contour>
      <point x="305.82727272727277" y="72.9090909090909" type="curve" smooth="yes"/>
      <point x="396.1272727272727" y="72.9090909090909"/>
      <point x="468.54545454545456" y="133.84545454545454"/>
      <point x="469.09090909090907" y="272.6727272727273" type="curve" smooth="yes"/>
      <point x="469.6363636363636" y="403.3727272727273"/>
      <point x="403.5181818181818" y="492.6818181818182"/>
      <point x="294.7272727272727" y="492.6818181818182" type="curve" smooth="yes"/>
      <point x="231.70909090909092" y="492.6818181818182"/>
      <point x="197.07272727272726" y="456.1"/>
      <point x="197.07272727272726" y="401.1363636363636" type="curve" smooth="yes"/>
      <point x="197.07272727272726" y="356.20909090909095"/>
      <point x="224.35454545454544" y="321.6363636363637"/>
      <point x="270.2818181818182" y="321.6363636363637" type="curve" smooth="yes"/>
      <point x="312.8727272727273" y="321.6363636363637"/>
      <point x="336.7363636363637" y="354.0454545454545"/>
      <point x="336.7363636363637" y="394.8181818181818" type="curve" smooth="yes"/>
      <point x="336.7363636363637" y="423.43636363636364"/>
      <point x="324.73636363636365" y="449.6363636363636"/>
      <point x="310.2" y="460.6363636363637" type="curve"/>
      <point x="283.8636363636364" y="426.09090909090907" type="line"/>
      <point x="293.17272727272723" y="431.77272727272725"/>
      <point x="308.39090909090913" y="436.0"/>
      <point x="326.6" y="436.0" type="curve" smooth="yes"/>
      <point x="380.7090909090909" y="436.0"/>
      <point x="431.7090909090909" y="387.44545454545454"/>
      <point x="431.7090909090909" y="286.8181818181818" type="curve" smooth="yes"/>
      <point x="431.7090909090909" y="178.25454545454545"/>
      <point x="376.75454545454545" y="131.9181818181818"/>
      <point x="303.4454545454545" y="131.9181818181818" type="curve" smooth="yes"/>
      <point x="193.29090909090905" y="131.9181818181818"/>
      <point x="111.18181818181817" y="228.1"/>
      <point x="51.20909090909091" y="504.59090909090907" type="curve"/>
      <point x="21.354545454545452" y="497.45454545454544" type="line"/>
      <point x="81.91818181818181" y="182.63636363636365"/>
      <point x="176.78181818181815" y="72.9090909090909"/>
    </contour>
    <contour>
      <point x="-0.21818181818181803" y="584.5454545454545" type="line"/>
      <point x="526.8454545454547" y="584.5454545454545" type="line"/>
      <point x="504.5454545454545" y="622.0" type="line"/>
      <point x="-21.654545454545453" y="622.0" type="line"/>
    </contour>
  </outline>
</glyph>
<glyph name="tha-beng" format="2">
  <advance width="450.2090909090909"/>
  <unicode hex="09A5"/>
  <anchor x="367.99090909090916" y="21.363636363636363" name="bottom"/>
  <anchor x="373.9909090909091" y="51.36363636363636" name="bottom.rakaar"/>
  <anchor x="374.6272727272727" y="9.272727272727273" name="bottom.rvocalic"/>
  <anchor x="363.3727272727273" y="13.454545454545455" name="bottom.virama"/>
  <anchor x="370.4272727272727" y="553.1818181818181" name="top"/>
  <anchor x="362.06363636363636" y="558.409090909091" name="topright"/>
  <anchor x="224.75454545454545" y="0.0" name="vedic"/>
  <outline>
    <contour>
      <point x="370.5363636363636" y="-8.454545454545455" type="line"/>
      <point x="374.6272727272727" y="-7.454545454545455" type="line"/>
      <point x="374.6272727272727" y="584.5454545454545" type="line"/>
      <point x="471.8636363636364" y="584.5454545454545" type="line"/>
      <point x="449.7181818181818" y="622.0" type="line"/>
      <point x="373.4818181818182" y="622.0" type="line"/>
      <point x="369.87272727272733" y="663.1818181818181" type="line"/>
      <point x="339.8636363636364" y="687.0909090909091" type="line"/>
      <point x="336.1818181818182" y="686.0909090909091" type="line"/>
      <point x="336.1818181818182" y="63.90909090909091" type="line"/>
      <point x="345.41818181818184" y="67.63636363636364" type="line"/>
      <point x="303.91818181818184" y="182.92727272727274"/>
      <point x="210.36363636363635" y="270.3909090909091"/>
      <point x="113.93636363636362" y="308.24545454545455" type="curve"/>
      <point x="120.63636363636364" y="292.62727272727267" type="line"/>
      <point x="217.63636363636363" y="312.4636363636364"/>
      <point x="268.2636363636364" y="366.7545454545455"/>
      <point x="268.2636363636364" y="462.0" type="curve" smooth="yes"/>
      <point x="268.2636363636364" y="571.6454545454545"/>
      <point x="208.5909090909091" y="624.0909090909091"/>
      <point x="134.7909090909091" y="624.0909090909091" type="curve" smooth="yes"/>
      <point x="68.41818181818182" y="624.0909090909091"/>
      <point x="23.754545454545458" y="573.8818181818182"/>
      <point x="23.754545454545458" y="520.6" type="curve" smooth="yes"/>
      <point x="23.754545454545458" y="476.76363636363635"/>
      <point x="49.36363636363636" y="451.17272727272723"/>
      <point x="82.52727272727273" y="451.17272727272723" type="curve" smooth="yes"/>
      <point x="113.57272727272728" y="451.17272727272723"/>
      <point x="132.9090909090909" y="471.77272727272725"/>
      <point x="132.9090909090909" y="504.23636363636365" type="curve" smooth="yes"/>
      <point x="132.9090909090909" y="529.3272727272728"/>
      <point x="120.36363636363636" y="550.7"/>
      <point x="93.98181818181818" y="555.1181818181817" type="curve"/>
      <point x="95.27272727272728" y="538.4545454545455" type="line"/>
      <point x="102.12727272727274" y="559.4545454545454"/>
      <point x="120.64545454545454" y="578.6181818181818"/>
      <point x="152.63636363636363" y="578.6181818181818" type="curve" smooth="yes"/>
      <point x="202.0818181818182" y="578.6181818181818"/>
      <point x="230.03636363636363" y="534.7272727272727"/>
      <point x="230.03636363636363" y="473.3" type="curve" smooth="yes"/>
      <point x="230.03636363636363" y="377.30909090909086"/>
      <point x="144.85454545454544" y="344.10909090909087"/>
      <point x="54.36363636363637" y="338.3181818181818" type="curve"/>
      <point x="78.60000000000001" y="262.40909090909093" type="line"/>
      <point x="192.94545454545457" y="234.68181818181816"/>
      <point x="286.6545454545454" y="146.9818181818182"/>
      <point x="341.0727272727273" y="17.772727272727273" type="curve"/>
    </contour>
  </outline>
</glyph>
<glyph name="da-beng" format="2">
  <advance width="423.53636363636366"/>
  <unicode hex="09A6"/>
  <anchor x="343.8727272727273" y="81.54545454545455" name="bottom"/>
  <anchor x="356.79090909090905" y="70.0" name="bottom.rakaar"/>
  <anchor x="354.91818181818184" y="12.909090909090908" name="bottom.rvocalic"/>
  <anchor x="345.6363636363636" y="0.0" name="bottom.virama"/>
  <anchor x="105.02727272727273" y="584.5454545454545" name="top"/>
  <anchor x="107.64545454545456" y="584.5454545454545" name="topright"/>
  <anchor x="211.61818181818182" y="0.0" name="vedic"/>
  <outline>
    <contour>
      <point x="327.3454545454546" y="-4.436363636363637" type="curve"/>
      <point x="356.55454545454546" y="6.2727272727272725" type="line"/>
      <point x="338.9636363636364" y="67.9090909090909"/>
      <point x="325.9" y="127.37272727272726"/>
      <point x="325.9" y="205.23636363636362" type="curve" smooth="yes"/>
      <point x="325.9" y="292.9909090909091"/>
      <point x="344.1818181818182" y="371.27272727272725"/>
      <point x="375.0909090909091" y="429.3636363636364" type="curve"/>
      <point x="320.23636363636365" y="482.74545454545455" type="line"/>
      <point x="241.4090909090909" y="431.2909090909091"/>
      <point x="144.3090909090909" y="332.67272727272723"/>
      <point x="92.56363636363636" y="258.2454545454545" type="curve"/>
      <point x="108.84545454545454" y="246.77272727272728" type="line"/>
      <point x="108.84545454545454" y="584.5454545454545" type="line"/>
      <point x="445.1909090909091" y="584.5454545454545" type="line"/>
      <point x="423.6636363636364" y="622.0" type="line"/>
      <point x="-21.654545454545453" y="622.0" type="line"/>
      <point x="0.781818181818182" y="584.5454545454545" type="line"/>
      <point x="70.4" y="584.5454545454545" type="line"/>
      <point x="70.4" y="216.15454545454543" type="line"/>
      <point x="106.9909090909091" y="193.52727272727273" type="line"/>
      <point x="178.9818181818182" y="289.0727272727273"/>
      <point x="263.05454545454546" y="376.5909090909091"/>
      <point x="333.93636363636364" y="425.25454545454545" type="curve"/>
      <point x="323.37272727272733" y="433.5" type="line"/>
      <point x="300.9363636363637" y="386.04545454545456"/>
      <point x="285.90000000000003" y="306.7818181818182"/>
      <point x="285.90000000000003" y="228.45454545454547" type="curve" smooth="yes"/>
      <point x="285.90000000000003" y="145.9090909090909"/>
      <point x="302.1636363636364" y="70.01818181818182"/>
    </contour>
  </outline>
</glyph>
<glyph name="dha-beng" format="2">
  <advance width="424.36363636363643"/>
  <unicode hex="09A7"/>
  <anchor x="342.52727272727276" y="21.363636363636363" name="bottom"/>
  <anchor x="345.8545454545454" y="51.36363636363636" name="bottom.rakaar"/>
  <anchor x="348.7818181818182" y="7.745454545454546" name="bottom.rvocalic"/>
  <anchor x="339.43636363636364" y="13.454545454545455" name="bottom.virama"/>
  <anchor x="346.8727272727273" y="584.5454545454545" name="top"/>
  <anchor x="346.62727272727267" y="584.5454545454545" name="topright"/>
  <anchor x="211.95454545454547" y="0.0" name="vedic"/>
  <outline>
    <contour>
      <point x="344.30909090909097" y="-8.454545454545455" type="line"/>
      <point x="348.7818181818182" y="-7.454545454545455" type="line"/>
      <point x="348.7818181818182" y="584.5454545454545" type="line"/>
      <point x="446.0181818181818" y="584.5454545454545" type="line"/>
      <point x="424.0363636363636" y="622.0" type="line"/>
      <point x="310.33636363636367" y="622.0" type="line"/>
      <point x="310.33636363636367" y="499.9272727272727" type="line"/>
      <point x="317.2" y="517.3363636363637" type="line"/>
      <point x="215.61818181818182" y="472.1545454545454"/>
      <point x="119.5090909090909" y="412.59090909090907"/>
      <point x="25.636363636363637" y="337.89090909090913" type="curve"/>
      <point x="60.28181818181818" y="265.5" type="line"/>
      <point x="170.45454545454547" y="226.77272727272728"/>
      <point x="263.50909090909096" y="142.80909090909094"/>
      <point x="315.9909090909091" y="15.100000000000001" type="curve"/>
    </contour>
    <contour>
      <point x="310.33636363636367" y="62.763636363636365" type="line"/>
      <point x="320.71818181818185" y="62.67272727272727" type="line"/>
      <point x="276.73636363636365" y="189.71818181818185"/>
      <point x="171.8909090909091" y="276.7727272727273"/>
      <point x="75.38181818181818" y="317.39090909090913" type="curve"/>
      <point x="79.0" y="303.3" type="line"/>
      <point x="155.53636363636366" y="371.3909090909091"/>
      <point x="249.41818181818186" y="422.30909090909086"/>
      <point x="318.0363636363637" y="454.4090909090909" type="curve"/>
      <point x="310.33636363636367" y="471.0727272727273" type="line"/>
    </contour>
    <contour>
      <point x="166.3181818181818" y="413.94545454545454" type="curve"/>
      <point x="183.3909090909091" y="438.2181818181818" type="line"/>
      <point x="138.02727272727273" y="443.0"/>
      <point x="100.2909090909091" y="472.06363636363636"/>
      <point x="100.2909090909091" y="516.9090909090909" type="curve" smooth="yes"/>
      <point x="100.2909090909091" y="561.6363636363636"/>
      <point x="127.65454545454547" y="580.3090909090909"/>
      <point x="154.3272727272727" y="580.3090909090909" type="curve" smooth="yes"/>
      <point x="161.65454545454546" y="580.3090909090909"/>
      <point x="169.00909090909093" y="578.6727272727272"/>
      <point x="176.15454545454546" y="575.6727272727272" type="curve"/>
      <point x="157.13636363636363" y="599.5454545454545" type="line"/>
      <point x="146.9" y="591.0"/>
      <point x="142.87272727272725" y="576.6181818181818"/>
      <point x="142.87272727272725" y="563.9090909090909" type="curve" smooth="yes"/>
      <point x="142.87272727272725" y="532.9090909090909"/>
      <point x="161.9" y="517.0181818181818"/>
      <point x="185.66363636363636" y="517.0181818181818" type="curve" smooth="yes"/>
      <point x="209.8090909090909" y="517.0181818181818"/>
      <point x="228.96363636363634" y="535.5454545454545"/>
      <point x="228.96363636363634" y="566.0909090909091" type="curve" smooth="yes"/>
      <point x="228.96363636363634" y="600.2727272727273"/>
      <point x="207.14545454545453" y="630.5454545454545"/>
      <point x="157.8181818181818" y="630.5454545454545" type="curve" smooth="yes"/>
      <point x="102.71818181818182" y="630.5454545454545"/>
      <point x="57.709090909090904" y="591.409090909091"/>
      <point x="57.709090909090904" y="526.5454545454545" type="curve" smooth="yes"/>
      <point x="57.709090909090904" y="451.94545454545454"/>
      <point x="122.21818181818183" y="415.3090909090909"/>
    </contour>
  </outline>
</glyph>
<glyph name="na-beng" format="2">
  <advance width="417.17272727272723"/>
  <unicode hex="09A8"/>
  <anchor x="329.3181818181818" y="67.27272727272728" name="bottom"/>
  <anchor x="340.95454545454544" y="51.36363636363636" name="bottom.rakaar"/>
  <anchor x="341.59090909090907" y="8.727272727272727" name="bottom.rvocalic"/>
  <anchor x="330.3363636363636" y="13.454545454545455" name="bottom.virama"/>
  <anchor x="339.6818181818182" y="584.5454545454545" name="top"/>
  <anchor x="339.43636363636364" y="584.5454545454545" name="topright"/>
  <anchor x="208.51818181818183" y="0.0" name="vedic"/>
  <outline>
    <contour>
      <point x="337.5" y="-8.454545454545455" type="line"/>
      <point x="341.59090909090907" y="-7.454545454545455" type="line"/>
      <point x="341.59090909090907" y="584.5454545454545" type="line"/>
      <point x="438.82727272727277" y="584.5454545454545" type="line"/>
      <point x="416.8454545454546" y="622.0" type="line"/>
      <point x="-21.654545454545453" y="622.0" type="line"/>
      <point x="0.3272727272727278" y="584.5454545454545" type="line"/>
      <point x="303.1454545454546" y="584.5454545454545" type="line"/>
      <point x="303.1454545454546" y="303.0909090909091" type="line" smooth="yes"/>
      <point x="303.1454545454546" y="249.26363636363638"/>
      <point x="307.52727272727276" y="191.6909090909091"/>
      <point x="309.90909090909093" y="151.41818181818184" type="curve"/>
      <point x="314.7636363636364" y="145.41818181818184" type="line"/>
      <point x="301.43636363636364" y="273.55454545454546"/>
      <point x="236.53636363636366" y="409.1818181818182"/>
      <point x="115.85454545454546" y="409.1818181818182" type="curve" smooth="yes"/>
      <point x="63.645454545454534" y="409.1818181818182"/>
      <point x="25.936363636363637" y="375.6818181818182"/>
      <point x="25.936363636363637" y="320.5" type="curve" smooth="yes"/>
      <point x="25.936363636363637" y="272.93636363636364"/>
      <point x="52.60909090909091" y="236.98181818181817"/>
      <point x="99.16363636363637" y="236.98181818181817" type="curve" smooth="yes"/>
      <point x="141.14545454545453" y="236.98181818181817"/>
      <point x="164.51818181818183" y="267.4545454545455"/>
      <point x="164.51818181818183" y="308.1363636363636" type="curve" smooth="yes"/>
      <point x="164.51818181818183" y="330.5"/>
      <point x="157.47272727272727" y="352.90909090909093"/>
      <point x="142.23636363636362" y="363.0909090909091" type="curve"/>
      <point x="124.1727272727273" y="339.72727272727275" type="line"/>
      <point x="130.27272727272725" y="343.3636363636364"/>
      <point x="141.02727272727273" y="345.8181818181818"/>
      <point x="151.85454545454547" y="345.8181818181818" type="curve" smooth="yes"/>
      <point x="250.23636363636365" y="345.8181818181818"/>
      <point x="305.54545454545456" y="152.93636363636367"/>
      <point x="309.9454545454546" y="15.754545454545454" type="curve"/>
    </contour>
  </outline>
</glyph>
<glyph name="pa-beng" format="2">
  <advance width="516.2636363636364"/>
  <unicode hex="09AA"/>
  <anchor x="427.9727272727273" y="57.81818181818181" name="bottom"/>
  <anchor x="440.04545454545456" y="-9.363636363636363" name="bottom.rakaar"/>
  <anchor x="440.68181818181824" y="-2.0454545454545454" name="bottom.rvocalic"/>
  <anchor x="427.2454545454545" y="5.545454545454546" name="bottom.virama"/>
  <anchor x="436.48181818181826" y="553.1818181818181" name="top"/>
  <anchor x="428.1181818181818" y="558.409090909091" name="topright"/>
  <anchor x="257.9818181818182" y="0.0" name="vedic"/>
  <outline>
    <contour>
      <point x="437.30000000000007" y="-18.18181818181818" type="line"/>
      <point x="440.68181818181824" y="-17.18181818181818" type="line"/>
      <point x="440.68181818181824" y="584.5454545454545" type="line"/>
      <point x="537.9181818181819" y="584.5454545454545" type="line"/>
      <point x="515.7727272727273" y="622.0" type="line"/>
      <point x="439.53636363636366" y="622.0" type="line"/>
      <point x="435.9272727272727" y="663.1818181818181" type="line"/>
      <point x="405.91818181818184" y="687.0909090909091" type="line"/>
      <point x="402.23636363636365" y="686.0909090909091" type="line"/>
      <point x="402.23636363636365" y="532.5454545454545" type="line" smooth="yes"/>
      <point x="402.23636363636365" y="483.3636363636364"/>
      <point x="403.46363636363634" y="441.7181818181818"/>
      <point x="406.6363636363636" y="392.1818181818182" type="curve"/>
      <point x="412.5545454545455" y="395.8363636363636" type="line"/>
      <point x="364.8636363636364" y="519.1545454545454"/>
      <point x="299.02727272727276" y="626.3"/>
      <point x="200.92727272727274" y="626.3" type="curve" smooth="yes"/>
      <point x="113.74545454545454" y="626.3"/>
      <point x="49.63636363636363" y="538.4454545454545"/>
      <point x="12.01818181818182" y="437.7181818181818" type="curve"/>
      <point x="58.50909090909091" y="396.09090909090907" type="line"/>
      <point x="72.9" y="410.78181818181815"/>
      <point x="93.61818181818181" y="420.3818181818181"/>
      <point x="117.65454545454546" y="420.3818181818181" type="curve" smooth="yes"/>
      <point x="155.70909090909095" y="420.3818181818181"/>
      <point x="171.8272727272727" y="390.1545454545454"/>
      <point x="171.8272727272727" y="352.89090909090913" type="curve" smooth="yes"/>
      <point x="171.8272727272727" y="320.7181818181818"/>
      <point x="159.45454545454544" y="289.6545454545454"/>
      <point x="140.1909090909091" y="267.69090909090914" type="curve"/>
      <point x="182.4090909090909" y="230.84545454545454" type="line"/>
      <point x="362.46363636363634" y="462.93636363636364" type="line"/>
      <point x="333.46363636363634" y="512.0181818181819" type="line"/>
      <point x="179.96363636363637" y="308.58181818181816" type="line"/>
      <point x="188.84545454545454" y="294.82727272727277" type="line"/>
      <point x="197.36363636363635" y="315.80909090909086"/>
      <point x="202.0" y="340.94545454545454"/>
      <point x="202.0" y="362.7181818181818" type="curve" smooth="yes"/>
      <point x="202.0" y="416.52727272727276"/>
      <point x="175.85454545454544" y="461.0909090909091"/>
      <point x="121.88181818181818" y="461.0909090909091" type="curve" smooth="yes"/>
      <point x="96.14545454545454" y="461.0909090909091"/>
      <point x="72.39090909090908" y="452.3545454545454"/>
      <point x="57.372727272727275" y="439.56363636363636" type="curve"/>
      <point x="73.24545454545455" y="429.8818181818182" type="line"/>
      <point x="99.0" y="510.94545454545454"/>
      <point x="151.45454545454547" y="578.0454545454545"/>
      <point x="211.9909090909091" y="578.0454545454545" type="curve" smooth="yes"/>
      <point x="298.50909090909096" y="578.0454545454545"/>
      <point x="362.27272727272725" y="454.8545454545455"/>
      <point x="408.05454545454546" y="327.3363636363636" type="curve"/>
      <point x="402.23636363636365" y="378.8636363636364" type="line"/>
      <point x="402.23636363636365" y="3.0" type="line"/>
    </contour>
  </outline>
</glyph>
